<svg width="32" height="25" viewBox="0 0 32 25" fill="none" xmlns="http://www.w3.org/2000/svg">
<path d="M6.5 6.65C6.5 6.39804 6.60009 6.1564 6.77825 5.97825C6.95641 5.80009 7.19804 5.7 7.45 5.7H20.75C21.002 5.7 21.2436 5.80009 21.4218 5.97825C21.5999 6.1564 21.7 6.39804 21.7 6.65C21.7 6.90195 21.5999 7.14359 21.4218 7.32175C21.2436 7.49991 21.002 7.6 20.75 7.6H7.45C7.19804 7.6 6.95641 7.49991 6.77825 7.32175C6.60009 7.14359 6.5 6.90195 6.5 6.65Z" fill="#90A4AE"/>
<path d="M16.95 11.4C16.698 11.4 16.4564 11.5001 16.2782 11.6782C16.1001 11.8564 16 12.098 16 12.35C16 12.6019 16.1001 12.8436 16.2782 13.0217C16.4564 13.1999 16.698 13.3 16.95 13.3H20.75C21.002 13.3 21.2436 13.1999 21.4218 13.0217C21.5999 12.8436 21.7 12.6019 21.7 12.35C21.7 12.098 21.5999 11.8564 21.4218 11.6782C21.2436 11.5001 21.002 11.4 20.75 11.4H16.95Z" fill="#90A4AE"/>
<path d="M16 18.05C16 17.798 16.1001 17.5564 16.2782 17.3783C16.4564 17.2001 16.698 17.1 16.95 17.1H20.75C21.002 17.1 21.2436 17.2001 21.4218 17.3783C21.5999 17.5564 21.7 17.798 21.7 18.05C21.7 18.302 21.5999 18.5436 21.4218 18.7218C21.2436 18.8999 21.002 19 20.75 19H16.95C16.698 19 16.4564 18.8999 16.2782 18.7218C16.1001 18.5436 16 18.302 16 18.05Z" fill="#90A4AE"/>
<path d="M7.45 11.4C7.19804 11.4 6.95641 11.5001 6.77825 11.6782C6.60009 11.8564 6.5 12.098 6.5 12.35V18.05C6.5 18.3019 6.60009 18.5436 6.77825 18.7217C6.95641 18.8999 7.19804 19 7.45 19H13.15C13.402 19 13.6436 18.8999 13.8218 18.7217C13.9999 18.5436 14.1 18.3019 14.1 18.05V12.35C14.1 12.098 13.9999 11.8564 13.8218 11.6782C13.6436 11.5001 13.402 11.4 13.15 11.4H7.45ZM8.4 17.1V13.3H12.2V17.1H8.4Z" fill="#90A4AE"/>
<path d="M0.800049 3.8C0.800049 2.79218 1.2004 1.82563 1.91304 1.11299C2.62568 0.400356 3.59223 0 4.60005 0H23.6C24.6079 0 25.5744 0.400356 26.2871 1.11299C26.9997 1.82563 27.4001 2.79218 27.4001 3.8V5.7C28.4079 5.7 29.3744 6.10036 30.0871 6.81299C30.7997 7.52563 31.2001 8.49218 31.2001 9.5V19.95C31.2001 21.2098 30.6996 22.418 29.8088 23.3088C28.918 24.1996 27.7098 24.7 26.4501 24.7H5.55005C4.29027 24.7 3.08209 24.1996 2.19129 23.3088C1.30049 22.418 0.800049 21.2098 0.800049 19.95V3.8ZM25.5 3.8C25.5 3.29609 25.2999 2.81282 24.9436 2.4565C24.5872 2.10018 24.104 1.9 23.6 1.9H4.60005C4.09614 1.9 3.61287 2.10018 3.25655 2.4565C2.90023 2.81282 2.70005 3.29609 2.70005 3.8V19.95C2.70005 20.7059 3.00032 21.4308 3.53479 21.9653C4.06927 22.4997 4.79418 22.8 5.55005 22.8H26.4501C27.2059 22.8 27.9308 22.4997 28.4653 21.9653C28.9998 21.4308 29.3001 20.7059 29.3001 19.95V9.5C29.3001 8.99609 29.0999 8.51282 28.7436 8.1565C28.3872 7.80018 27.904 7.6 27.4001 7.6V19.95C27.4001 20.202 27.3 20.4436 27.1218 20.6217C26.9436 20.7999 26.702 20.9 26.4501 20.9C26.1981 20.9 25.9565 20.7999 25.7783 20.6217C25.6001 20.4436 25.5 20.202 25.5 19.95V3.8Z" fill="#90A4AE"/>
</svg>
