<svg width="27" height="27" viewBox="0 0 27 27" fill="none" xmlns="http://www.w3.org/2000/svg">
<path d="M25.6022 10.8569L14.354 0.508552C13.9884 0.172137 13.5068 -0.00992662 13.0101 0.000417857C12.5133 0.0107623 12.0397 0.212714 11.6884 0.56406L1.34339 10.9091L0.8125 11.44V26.6907H10.7812V17.1751H16.2188V26.6907H26.1875V11.3954L25.6022 10.8569ZM13.049 1.81253C13.065 1.81253 13.0551 1.81599 13.0483 1.82273C13.0412 1.81599 13.0331 1.81253 13.049 1.81253ZM24.375 24.8782H18.0312V17.1751C18.0312 16.6944 17.8403 16.2334 17.5004 15.8935C17.1605 15.5536 16.6995 15.3626 16.2188 15.3626H10.7812C10.3005 15.3626 9.83953 15.5536 9.49962 15.8935C9.15971 16.2334 8.96875 16.6944 8.96875 17.1751V24.8782H2.625V12.1907L13.049 1.84567C13.0498 1.84499 13.0498 1.84437 13.0504 1.84369L24.375 12.1907V24.8782Z" fill="#90A4AE"/>
</svg>
