<svg width="26" height="24" viewBox="0 0 26 24" fill="none" xmlns="http://www.w3.org/2000/svg">
<path d="M17.1489 13.2802C18.3866 13.2802 19.3911 14.2848 19.3911 15.5225V21.2883C19.3911 21.883 19.1549 22.4533 18.7344 22.8738C18.3139 23.2943 17.7436 23.5306 17.1489 23.5306H2.41401C1.81933 23.5306 1.249 23.2943 0.828494 22.8738C0.407988 22.4533 0.17175 21.883 0.17175 21.2883V15.5225C0.17175 14.2848 1.175 13.2802 2.41401 13.2802H17.1489ZM24.5163 15.7134V22.5696C24.5188 22.8148 24.4275 23.0517 24.261 23.2317C24.0945 23.4118 23.8655 23.5214 23.6209 23.5381C23.3762 23.5548 23.1344 23.4774 22.945 23.3216C22.7556 23.1658 22.6329 22.9436 22.6021 22.7003L22.5944 22.5696V15.7301C23.2261 15.887 23.8874 15.8813 24.5163 15.7134ZM17.1489 15.2022H2.41401C2.32906 15.2022 2.24758 15.2359 2.18751 15.296C2.12744 15.3561 2.09369 15.4375 2.09369 15.5225V21.2883C2.09369 21.4651 2.23591 21.6086 2.41401 21.6086H17.1489C17.2338 21.6086 17.3153 21.5749 17.3754 21.5148C17.4355 21.4547 17.4692 21.3733 17.4692 21.2883V15.5225C17.4692 15.4375 17.4355 15.3561 17.3754 15.296C17.3153 15.2359 17.2338 15.2022 17.1489 15.2022ZM23.5554 9.55422C24.2037 9.55422 24.8256 9.81178 25.284 10.2703C25.7425 10.7287 26.0001 11.3505 26.0001 11.9989C26.0001 12.6473 25.7425 13.2691 25.284 13.7276C24.8256 14.1861 24.2037 14.4436 23.5554 14.4436C22.907 14.4436 22.2852 14.1861 21.8267 13.7276C21.3682 13.2691 21.1106 12.6473 21.1106 11.9989C21.1106 11.3505 21.3682 10.7287 21.8267 10.2703C22.2852 9.81178 22.907 9.55422 23.5554 9.55422ZM17.1412 0.467285C18.3802 0.467285 19.3835 1.47182 19.3835 2.70955V8.47537C19.3835 9.07005 19.1472 9.64038 18.7267 10.0609C18.3062 10.4814 17.7359 10.7176 17.1412 10.7176H2.40633C1.81164 10.7176 1.24131 10.4814 0.820806 10.0609C0.4003 9.64038 0.164063 9.07005 0.164062 8.47537V2.70955C0.16411 2.14661 0.3759 1.60429 0.757362 1.19031C1.13882 0.776326 1.66205 0.520973 2.2231 0.474973L2.40761 0.467285H17.1425H17.1412ZM17.1412 2.38923H2.40633L2.33329 2.39819C2.26303 2.41465 2.20037 2.45435 2.15549 2.51086C2.11061 2.56737 2.08612 2.63738 2.086 2.70955V8.47537C2.086 8.65219 2.22951 8.79569 2.40633 8.79569H17.1412C17.2262 8.79569 17.3076 8.76194 17.3677 8.70187C17.4278 8.6418 17.4615 8.56032 17.4615 8.47537V2.70955C17.4615 2.62459 17.4278 2.54312 17.3677 2.48305C17.3076 2.42297 17.2262 2.38923 17.1412 2.38923ZM23.5554 0.467285C23.7876 0.467295 24.0119 0.551393 24.1869 0.704026C24.362 0.856659 24.4758 1.0675 24.5074 1.29756L24.5163 1.42826V8.28446C23.8874 8.11646 23.2261 8.11073 22.5944 8.2678V1.42826C22.5944 1.17339 22.6956 0.928963 22.8758 0.748747C23.0561 0.56853 23.3005 0.467285 23.5554 0.467285Z" fill="#90A4AE"/>
</svg>
