<svg width="29" height="28" viewBox="0 0 29 28" fill="none" xmlns="http://www.w3.org/2000/svg">
<path d="M26.125 8.625H22.25V0.875H20.3125V8.625H11.5938V6.6875H9.65625V8.625H6.75V6.6875H4.8125V8.625H2.875C2.36114 8.625 1.86833 8.82913 1.50498 9.19248C1.14163 9.55583 0.9375 10.0486 0.9375 10.5625V26.0625C0.9375 26.5764 1.14163 27.0692 1.50498 27.4325C1.86833 27.7959 2.36114 28 2.875 28H26.125C26.6389 28 27.1317 27.7959 27.495 27.4325C27.8584 27.0692 28.0625 26.5764 28.0625 26.0625V10.5625C28.0625 10.0486 27.8584 9.55583 27.495 9.19248C27.1317 8.82913 26.6389 8.625 26.125 8.625ZM2.875 26.0625V10.5625H26.125V26.0625H2.875Z" fill="#90A4AE"/>
<path d="M8.6875 24.125C7.9211 24.125 7.17191 23.8977 6.53467 23.4719C5.89743 23.0462 5.40076 22.441 5.10747 21.7329C4.81418 21.0248 4.73744 20.2457 4.88696 19.494C5.03648 18.7424 5.40553 18.0519 5.94746 17.51C6.48939 16.968 7.17985 16.599 7.93153 16.4495C8.6832 16.2999 9.46234 16.3767 10.1704 16.67C10.8785 16.9633 11.4837 17.4599 11.9094 18.0972C12.3352 18.7344 12.5625 19.4836 12.5625 20.25C12.5625 21.2777 12.1542 22.2633 11.4275 22.99C10.7008 23.7167 9.71522 24.125 8.6875 24.125ZM8.6875 18.3125C8.3043 18.3125 7.9297 18.4261 7.61108 18.639C7.29246 18.8519 7.04413 19.1545 6.89748 19.5086C6.75084 19.8626 6.71247 20.2522 6.78723 20.628C6.86199 21.0038 7.04652 21.3491 7.31748 21.62C7.58845 21.891 7.93368 22.0755 8.30951 22.1503C8.68535 22.225 9.07492 22.1867 9.42895 22.04C9.78298 21.8934 10.0856 21.645 10.2985 21.3264C10.5114 21.0078 10.625 20.6332 10.625 20.25C10.625 19.7361 10.4209 19.2433 10.0575 18.88C9.69417 18.5166 9.20136 18.3125 8.6875 18.3125Z" fill="#90A4AE"/>
<path d="M5.78125 12.5H11.5938V14.4375H5.78125V12.5Z" fill="#90A4AE"/>
<path d="M15.4688 14.4375H24.1875V16.375H15.4688V14.4375Z" fill="#90A4AE"/>
<path d="M15.4688 18.3125H24.1875V20.25H15.4688V18.3125Z" fill="#90A4AE"/>
<path d="M15.4688 22.1875H24.1875V24.125H15.4688V22.1875Z" fill="#90A4AE"/>
</svg>
