<svg width="48" height="48" viewBox="0 0 48 48" fill="none" xmlns="http://www.w3.org/2000/svg">
<path fill-rule="evenodd" clip-rule="evenodd" d="M6.34658 31.2475L0.0283109 13.6787C-0.062439 13.4229 0.0722795 13.1395 0.328123 13.046C8.63511 10.0583 17.9957 7.27952 25.9973 3.86534C26.3549 3.63978 26.6355 3.86262 26.7895 4.289L36.7167 29.8775L39.4124 37.3744C39.5031 37.6302 39.3711 37.9163 39.1153 38.0072L20.1192 44.8383L12.7144 47.5014C12.4585 47.595 12.1752 47.4602 12.0817 47.2043L6.34658 31.2475Z" fill="white"/>
<path fill-rule="evenodd" clip-rule="evenodd" d="M11.6141 25.4179L8.45913 7.01816C8.41235 6.74854 8.59394 6.49269 8.86076 6.44591L30.5882 2.72085L35.5642 1.90101C35.8365 1.7827 36.2794 1.92023 36.3838 2.52829L41.7586 29.3686L43.1037 37.2204C43.1505 37.4873 42.9689 37.7459 42.7021 37.7927L22.8065 41.2041L15.0497 42.5357C14.7828 42.5797 14.5243 42.3981 14.4775 42.1312L11.6141 25.4179Z" fill="white"/>
<path fill-rule="evenodd" clip-rule="evenodd" d="M17.7013 19.9928V37.6827C17.7013 37.9661 17.9324 38.1999 18.2157 38.1999H26.4264H38.5817H40.3283H47.4856C47.7689 38.1999 48 37.9661 48 37.6827V29.3715V6.41308V6.17374H42.7737C42.2704 6.17374 41.225 6.24527 41.225 5.10359L41.214 0.00012207H18.2156C17.9323 0.00012207 17.7012 0.231216 17.7012 0.514621V4.93024V6.7983V19.9928H17.7013Z" fill="white"/>
<path fill-rule="evenodd" clip-rule="evenodd" d="M8.98171 10.0692C6.03852 11.0597 3.12281 12.0418 0.328123 13.046C0.0722795 13.1395 -0.062439 13.4228 0.0283109 13.6787L6.34658 31.2476L12.0817 47.2043C12.1753 47.4601 12.4586 47.595 12.7144 47.5014L20.1192 44.8382L36.9918 38.772L8.98171 10.0692Z" fill="#B5C4CF"/>
<path fill-rule="evenodd" clip-rule="evenodd" d="M17.7014 4.93018L8.86076 6.44602C8.59394 6.4928 8.41235 6.74864 8.45913 7.01827L8.98179 10.0693L11.6142 25.418L14.4776 42.1313C14.5244 42.3982 14.7829 42.5797 15.0497 42.5357L22.8066 41.2042L36.9918 38.7721L40.3284 38.1999H38.5817L17.7014 4.93018Z" fill="#D7E7EC"/>
<path fill-rule="evenodd" clip-rule="evenodd" d="M47.9999 29.3715V6.41308V6.17374V6.09396C47.9999 5.94537 47.9366 5.92062 47.7083 5.69777L42.0667 0.316528C41.7999 0.0634032 41.756 0.00012207 41.5991 0.00012207H41.214H18.2156C17.9323 0.00012207 17.7012 0.231216 17.7012 0.514621V37.6827C17.7012 37.9661 17.9323 38.1999 18.2156 38.1999H47.4855C47.7688 38.1999 47.9999 37.9661 47.9999 37.6827V29.3715Z" fill="#EDF3F4"/>
<path fill-rule="evenodd" clip-rule="evenodd" d="M17.7013 4.93018L15.6301 5.28511V39.5838C15.6301 39.8699 15.8612 40.101 16.1445 40.101H24.3552H29.2405L36.9918 38.7722L40.3283 38.2H38.5817H36.4334H26.4265H18.2157C17.9324 38.2 17.7013 37.9661 17.7013 37.6827C17.7013 26.766 17.7013 15.8467 17.7013 4.93018Z" fill="#B5C4CF"/>
<path fill-rule="evenodd" clip-rule="evenodd" d="M11.6141 25.4179L8.98166 10.0692C8.26925 10.3086 7.55957 10.5479 6.8526 10.7872L7.17997 12.6938L9.81238 28.0426L12.6786 44.7558C12.7226 45.0226 12.9811 45.2042 13.2479 45.1603L21.0048 43.8287L24.6852 43.1987L35.7704 39.2096L35.6384 39.0032L29.2404 40.101L22.8066 41.2042L15.0497 42.5357C14.7829 42.5798 14.5243 42.3982 14.4776 42.1313L11.6141 25.4179Z" fill="#9AAFB7"/>
<path fill-rule="evenodd" clip-rule="evenodd" d="M47.9999 29.3715V6.41308V6.17374C47.9999 5.89587 47.9092 5.89315 47.7084 5.69777L42.0668 0.316528C41.8 0.0634032 41.756 0.00012207 41.5992 0.00012207H41.2141H35.4899C42.4848 9.36508 42.8836 26.2462 37.6932 36.7831C37.4538 37.2728 37.2035 37.7433 36.9422 38.1999H38.5816H40.3283H47.4855C47.7689 38.1999 47.9999 37.9661 47.9999 37.6827V29.3715Z" fill="#D7E7EC"/>
<path fill-rule="evenodd" clip-rule="evenodd" d="M41.225 5.10346C41.225 6.24515 42.2702 6.17362 42.7737 6.17362H47.9999V6.09384C47.9999 5.94524 47.9367 5.92049 47.7084 5.69765L42.0668 0.316406C41.8 0.0632812 41.756 0 41.5992 0H41.2141L41.225 5.10346Z" fill="white"/>
<path fill-rule="evenodd" clip-rule="evenodd" d="M47.7084 5.69777L42.0668 0.316528C41.8 0.0634032 41.756 0.00012207 41.5992 0.00012207H41.2141L41.225 5.10349C41.225 6.24518 42.2702 6.17365 42.7737 6.17365H47.9999V6.09387C47.9999 5.94537 47.9367 5.92062 47.7084 5.69777Z" fill="#B5C4CF"/>
<path d="M43.3513 11.2506H22.6415C22.2415 11.2506 21.9172 10.9262 21.9172 10.526C21.9172 10.1258 22.2415 9.80139 22.6415 9.80139H43.3513C43.7513 9.80139 44.0756 10.1258 44.0756 10.526C44.0756 10.9262 43.7514 11.2506 43.3513 11.2506Z" fill="#9AAFB7"/>
<path d="M43.3513 16.3979H22.6415C22.2415 16.3979 21.9172 16.0735 21.9172 15.6733C21.9172 15.2731 22.2415 14.9487 22.6415 14.9487H43.3513C43.7513 14.9487 44.0756 15.2731 44.0756 15.6733C44.0756 16.0735 43.7514 16.3979 43.3513 16.3979Z" fill="#9AAFB7"/>
<path d="M43.3513 21.5454H22.6415C22.2415 21.5454 21.9172 21.221 21.9172 20.8208C21.9172 20.4206 22.2415 20.0962 22.6415 20.0962H43.3513C43.7513 20.0962 44.0756 20.4206 44.0756 20.8208C44.0756 21.221 43.7514 21.5454 43.3513 21.5454Z" fill="#9AAFB7"/>
<path d="M43.3513 26.6928H22.6415C22.2415 26.6928 21.9172 26.3685 21.9172 25.9682C21.9172 25.568 22.2415 25.2437 22.6415 25.2437H43.3513C43.7513 25.2437 44.0756 25.568 44.0756 25.9682C44.0756 26.3685 43.7514 26.6928 43.3513 26.6928Z" fill="#9AAFB7"/>
<path d="M43.3513 31.8403H22.6415C22.2415 31.8403 21.9172 31.5159 21.9172 31.1157C21.9172 30.7155 22.2415 30.3911 22.6415 30.3911H43.3513C43.7513 30.3911 44.0756 30.7155 44.0756 31.1157C44.0756 31.5159 43.7514 31.8403 43.3513 31.8403Z" fill="#9AAFB7"/>
</svg>
