<svg width="35" height="48" viewBox="0 0 35 48" fill="none" xmlns="http://www.w3.org/2000/svg">
<path d="M24.3126 40.2652L1.57077 35.0394C0.813834 34.8655 0.34124 34.1109 0.515146 33.3539L7.92871 1.09165C8.10261 0.334708 8.85721 -0.137886 9.61415 0.0360202L32.3558 5.26183C33.1128 5.43574 33.5854 6.19033 33.4115 6.94727L25.9979 39.2095C25.8241 39.9665 25.0695 40.4391 24.3126 40.2652Z" fill="#9DC6FB"/>
<path d="M32.3562 5.26193L31.1334 4.98096L24.0097 35.9819C23.8308 36.7601 23.0549 37.2461 22.2767 37.0673L0.796242 32.1312L0.515273 33.3541C0.341367 34.1109 0.813868 34.8654 1.57071 35.0393L24.3129 40.2652C25.0696 40.4391 25.8241 39.9666 25.998 39.2097L33.4117 6.94699C33.5855 6.19033 33.113 5.43583 32.3562 5.26193Z" fill="#80B4FB"/>
<path d="M24.7406 42.9387H1.40625C0.629625 42.9387 0 42.3091 0 41.5325V8.42944C0 7.65282 0.629625 7.02319 1.40625 7.02319H24.7407C25.5173 7.02319 26.147 7.65282 26.147 8.42944V41.5325C26.1469 42.3091 25.5173 42.9387 24.7406 42.9387Z" fill="#ECBE6B"/>
<path d="M24.7409 7.02319H23.4862V38.8321C23.4862 39.6307 22.8388 40.278 22.0403 40.278H0V41.5328C0 42.3093 0.629532 42.9387 1.40597 42.9387H24.7409C25.5174 42.9387 26.1469 42.3092 26.1469 41.5328V8.42916C26.1469 7.65263 25.5174 7.02319 24.7409 7.02319Z" fill="#EAB14D"/>
<path d="M9.9254 15.234H3.54871C3.14943 15.234 2.82581 14.9104 2.82581 14.5111C2.82581 14.1118 3.14952 13.7882 3.54871 13.7882H9.9254C10.3247 13.7882 10.6483 14.1118 10.6483 14.5111C10.6483 14.9104 10.3247 15.234 9.9254 15.234Z" fill="#E7A52E"/>
<path d="M9.9254 19.2146H3.54871C3.14943 19.2146 2.82581 18.891 2.82581 18.4917C2.82581 18.0924 3.14952 17.7688 3.54871 17.7688H9.9254C10.3247 17.7688 10.6483 18.0924 10.6483 18.4917C10.6483 18.891 10.3247 19.2146 9.9254 19.2146Z" fill="#E7A52E"/>
<path d="M9.9254 23.1953H3.54871C3.14943 23.1953 2.82581 22.8717 2.82581 22.4724C2.82581 22.0731 3.14952 21.7495 3.54871 21.7495H9.9254C10.3247 21.7495 10.6483 22.0731 10.6483 22.4724C10.6483 22.8717 10.3247 23.1953 9.9254 23.1953Z" fill="#E7A52E"/>
<path d="M9.9254 27.176H3.54871C3.14943 27.176 2.82581 26.8524 2.82581 26.4531C2.82581 26.0538 3.14952 25.7302 3.54871 25.7302H9.9254C10.3247 25.7302 10.6483 26.0538 10.6483 26.4531C10.6483 26.8524 10.3247 27.176 9.9254 27.176Z" fill="#E7A52E"/>
<path d="M9.9254 31.1566H3.54871C3.14943 31.1566 2.82581 30.833 2.82581 30.4337C2.82581 30.0344 3.14952 29.7108 3.54871 29.7108H9.9254C10.3247 29.7108 10.6483 30.0344 10.6483 30.4337C10.6483 30.833 10.3247 31.1566 9.9254 31.1566Z" fill="#E7A52E"/>
<path d="M9.9254 35.1373H3.54871C3.14943 35.1373 2.82581 34.8137 2.82581 34.4144C2.82581 34.0152 3.14952 33.6915 3.54871 33.6915H9.9254C10.3247 33.6915 10.6483 34.0152 10.6483 34.4144C10.6483 34.8137 10.3247 35.1373 9.9254 35.1373Z" fill="#E7A52E"/>
<path d="M24.5419 12.0845H9.33968C8.54103 12.0845 7.89349 12.7319 7.89349 13.5307V46.5539C7.89349 47.3526 8.54093 48.0001 9.33968 48.0001H32.5943C33.3929 48.0001 34.0405 47.3527 34.0405 46.5539V21.5829C34.0405 21.0715 33.8373 20.5811 33.4757 20.2194L25.9054 12.6492C25.5438 12.2876 25.0533 12.0845 24.5419 12.0845Z" fill="#F9F6F9"/>
<path d="M33.4757 20.2195L30.8792 17.623C31.2408 17.9846 31.4439 18.475 31.4439 18.9865V43.9573C31.4439 44.7561 30.7965 45.4035 29.9977 45.4035H7.89343V46.5538C7.89343 47.3525 8.54087 48 9.33962 48H32.5942C33.3929 48 34.0404 47.3526 34.0404 46.5538V21.5829C34.0404 21.0715 33.8372 20.581 33.4757 20.2195Z" fill="#E7ECF6"/>
<path d="M33.4757 20.2195L25.9054 12.6492C25.6392 12.383 25.3029 12.2035 24.9401 12.127V20.2207C24.9401 20.7532 25.3717 21.1848 25.9042 21.1848H33.998C33.9214 20.8219 33.7419 20.4856 33.4757 20.2195Z" fill="#E7ECF6"/>
<path d="M33.4757 20.2196L31.7943 18.5383H24.9401V20.2209C24.9401 20.7533 25.3717 21.185 25.9042 21.185H33.998C33.9214 20.8222 33.7419 20.4858 33.4757 20.2196Z" fill="#D8E2F1"/>
<path d="M29.0204 31.6596C29.4196 31.6596 29.7433 31.336 29.7433 30.9367C29.7433 30.5374 29.4195 30.2138 29.0204 30.2138H14.7086V27.6791H29.0204C29.4196 27.6791 29.7433 27.3555 29.7433 26.9562C29.7433 26.5569 29.4195 26.2333 29.0204 26.2333H14.7086V25.2704C14.7086 24.871 14.3849 24.5474 13.9857 24.5474C13.5865 24.5474 13.2628 24.871 13.2628 25.2704V26.2333H11.1574C10.7581 26.2333 10.4345 26.5569 10.4345 26.9562C10.4345 27.3555 10.7582 27.6791 11.1574 27.6791H13.2628V30.2138H11.1574C10.7581 30.2138 10.4345 30.5374 10.4345 30.9367C10.4345 31.336 10.7582 31.6596 11.1574 31.6596H13.2628V34.1944H11.1574C10.7581 34.1944 10.4345 34.518 10.4345 34.9173C10.4345 35.3166 10.7582 35.6402 11.1574 35.6402H13.2628V38.175H11.1574C10.7581 38.175 10.4345 38.4986 10.4345 38.8979C10.4345 39.2971 10.7582 39.6209 11.1574 39.6209H13.2628V40.5825C13.2628 40.9818 13.5865 41.3055 13.9857 41.3055C14.3849 41.3055 14.7086 40.9818 14.7086 40.5825V39.6209H29.0204C29.4196 39.6209 29.7433 39.2972 29.7433 38.8979C29.7433 38.4986 29.4195 38.175 29.0204 38.175H14.7086V35.6402H29.0204C29.4196 35.6402 29.7433 35.3166 29.7433 34.9173C29.7433 34.518 29.4195 34.1944 29.0204 34.1944H14.7086V31.6596H29.0204Z" fill="#D8E2F1"/>
</svg>
