<svg width="36" height="48" viewBox="0 0 36 48" fill="none" xmlns="http://www.w3.org/2000/svg">
<path d="M36 47.7272H4.90912V14.1818L13.9091 5.18176H36V47.7272Z" fill="#F5F5F5"/>
<path d="M13.9091 5.1818L4.90909 14.1818V42.8182H0V0.272705H31.0909V5.1818H13.9091Z" fill="#FBD699"/>
<path d="M21.2328 18.6L22.5727 22.7236C22.6821 23.0608 22.9966 23.2889 23.3509 23.2889H27.6871C28.0419 23.2889 28.3559 23.517 28.4654 23.8542C28.5752 24.1914 28.455 24.5609 28.1685 24.7691L24.6601 27.3151C24.3728 27.5237 24.2526 27.8928 24.3621 28.23L25.7024 32.3537C25.8119 32.6908 25.692 33.0604 25.4052 33.2685C25.1183 33.4771 24.73 33.4771 24.4432 33.2685L20.9355 30.7197C20.6487 30.5111 20.2604 30.5111 19.9735 30.7197L16.4659 33.2685C16.179 33.4771 15.7907 33.4771 15.5039 33.2685C15.217 33.0604 15.0972 32.6908 15.2066 32.3537L16.547 28.23C16.6564 27.8928 16.5362 27.5237 16.249 27.3151L12.7417 24.7667C12.4549 24.5582 12.3346 24.189 12.4445 23.8518C12.5539 23.5147 12.868 23.2865 13.2227 23.2865H17.5589C17.9133 23.2865 18.2277 23.0584 18.3372 22.7212L19.6771 18.5976C19.7877 18.2612 20.1018 18.0343 20.4557 18.0347C20.8097 18.0355 21.1233 18.2636 21.2328 18.6Z" fill="#FBB540"/>
<path d="M13.9091 14.1818H4.90912L13.9091 5.18176V14.1818Z" fill="#EBEBEB"/>
</svg>
