<svg width="46" height="52" viewBox="0 0 46 52" fill="none" xmlns="http://www.w3.org/2000/svg">
<path d="M9.75 0C7.9625 0 6.5 1.4625 6.5 3.25V48.75C6.5 50.5375 7.9625 52 9.75 52H42.25C44.0375 52 45.5 50.5375 45.5 48.75V13L32.5 0H9.75Z" fill="#E2E5E7"/>
<path d="M35.75 13H45.5L32.5 0V9.75C32.5 11.5375 33.9625 13 35.75 13Z" fill="#B0B7BD"/>
<path d="M45.5 22.75L35.75 13H45.5V22.75Z" fill="#CAD1D8"/>
<path d="M39 42.25C39 43.1437 38.2687 43.875 37.375 43.875H1.625C0.73125 43.875 0 43.1437 0 42.25V26C0 25.1062 0.73125 24.375 1.625 24.375H37.375C38.2687 24.375 39 25.1062 39 26V42.25Z" fill="#F15642"/>
<path d="M7.08362 30.7888C7.08362 30.3598 7.42162 29.8918 7.96599 29.8918H10.9674C12.6574 29.8918 14.1784 31.0228 14.1784 33.1906C14.1784 35.2446 12.6574 36.3886 10.9674 36.3886H8.79799V38.1046C8.79799 38.6766 8.43399 39 7.96599 39C7.53699 39 7.08362 38.6766 7.08362 38.1046V30.7888ZM8.79799 31.5282V34.7652H10.9674C11.8384 34.7652 12.5274 33.9966 12.5274 33.1906C12.5274 32.2822 11.8384 31.5282 10.9674 31.5282H8.79799Z" fill="white"/>
<path d="M16.7227 39C16.2937 39 15.8257 38.766 15.8257 38.1957V30.8149C15.8257 30.3485 16.2937 30.0089 16.7227 30.0089H19.6981C25.6358 30.0089 25.5058 39 19.8151 39H16.7227ZM17.5417 31.5949V37.4157H19.6981C23.2064 37.4157 23.3624 31.5949 19.6981 31.5949H17.5417Z" fill="white"/>
<path d="M27.6119 31.6989V33.7643H30.9252C31.3932 33.7643 31.8612 34.2323 31.8612 34.6857C31.8612 35.1147 31.3932 35.4657 30.9252 35.4657H27.6119V38.1941C27.6119 38.6491 27.2885 38.9985 26.8335 38.9985C26.2615 38.9985 25.9121 38.6491 25.9121 38.1941V30.8133C25.9121 30.3469 26.2631 30.0073 26.8335 30.0073H31.3949C31.9669 30.0073 32.3049 30.3469 32.3049 30.8133C32.3049 31.2293 31.9669 31.6973 31.3949 31.6973H27.6119V31.6989Z" fill="white"/>
<path d="M37.375 43.875H6.5V45.5H37.375C38.2687 45.5 39 44.7687 39 43.875V42.25C39 43.1438 38.2687 43.875 37.375 43.875Z" fill="#CAD1D8"/>
</svg>
