<svg width="107" height="114" viewBox="0 0 107 114" fill="none" xmlns="http://www.w3.org/2000/svg">
<path d="M33.375 83.125C34.375 79.5 36 70.625 36 66.5C36 62.125 32 61 28 61C23.875 61 20 62.125 20 66.5C20 70.625 21.5 79.625 22.5 83.125C23.125 85.5 25.625 86 28 86C30.25 86 32.75 85.5 33.375 83.125ZM19.5 58.125C17.25 55.875 15.75 52.625 16 49C16.25 42.875 21.25 37.75 27.5 37.625C34.25 37.25 40 42.75 40 49.5C40 52.875 38.5 56 36.375 58.125C36 58.5 36 59 36.375 59.25C37.625 60.125 38.5 61.25 39 62.5C39.25 62.875 39.875 63 40.25 62.625C43.875 59.25 46 54.5 45.875 49.125C45.75 39.625 38 31.875 28.5 31.625C18.25 31.25 10 39.5 10 49.5C10 54.75 12.125 59.375 15.625 62.625C16 63 16.625 62.875 16.875 62.5C17.375 61.25 18.25 60.125 19.5 59.25C19.875 59 19.875 58.5 19.5 58.125ZM28 22C12.5 22 0 34.625 0 50C0 61.25 6.5 70.75 15.625 75.25C16.25 75.5 16.875 75 16.75 74.5C16.375 72.5 16.125 70.625 16 68.875C16 68.625 15.875 68.5 15.75 68.375C9.75 64.375 5.875 57.625 6 49.875C6 37.875 15.875 28.125 27.875 28.125C40 28 50 37.875 50 50C50 57.75 45.875 64.625 39.875 68.5C39.75 70.25 39.5 72.375 39.125 74.5C39 75 39.625 75.5 40.25 75.25C49.375 70.75 56 61.375 56 50C56 34.625 43.375 22 28 22ZM28 42C23.5 42 20 45.625 20 50C20 54.5 23.5 58 28 58C32.375 58 36 54.5 36 50C36 45.625 32.375 42 28 42Z" fill="#78909C"/>
<path d="M97.1719 81.5L105.766 72.9062C106.883 71.875 106.883 70.1562 105.766 69.125L103.875 67.2344C102.844 66.1172 101.125 66.1172 100.094 67.2344L91.5 75.8281L82.8203 67.2344C81.7891 66.1172 80.0703 66.1172 79.0391 67.2344L77.1484 69.125C76.0312 70.1562 76.0312 71.875 77.1484 72.9062L85.7422 81.5L77.1484 90.1797C76.0312 91.2109 76.0312 92.9297 77.1484 93.9609L79.0391 95.8516C80.0703 96.9688 81.7891 96.9688 82.8203 95.8516L91.5 87.2578L100.094 95.8516C101.125 96.9688 102.844 96.9688 103.875 95.8516L105.766 93.9609C106.883 92.9297 106.883 91.2109 105.766 90.1797L97.1719 81.5Z" fill="#E53935"/>
<path d="M95.125 21L101.375 14.75C102.188 14 102.188 12.75 101.375 12L100 10.625C99.25 9.8125 98 9.8125 97.25 10.625L91 16.875L84.6875 10.625C83.9375 9.8125 82.6875 9.8125 81.9375 10.625L80.5625 12C79.75 12.75 79.75 14 80.5625 14.75L86.8125 21L80.5625 27.3125C79.75 28.0625 79.75 29.3125 80.5625 30.0625L81.9375 31.4375C82.6875 32.25 83.9375 32.25 84.6875 31.4375L91 25.1875L97.25 31.4375C98 32.25 99.25 32.25 100 31.4375L101.375 30.0625C102.188 29.3125 102.188 28.0625 101.375 27.3125L95.125 21Z" fill="#78909C"/>
</svg>
