<svg width="111" height="114" viewBox="0 0 111 114" fill="none" xmlns="http://www.w3.org/2000/svg">
<path d="M33.375 83.125C34.375 79.5 36 70.625 36 66.5C36 62.125 32 61 28 61C23.875 61 20 62.125 20 66.5C20 70.625 21.5 79.625 22.5 83.125C23.125 85.5 25.625 86 28 86C30.25 86 32.75 85.5 33.375 83.125ZM19.5 58.125C17.25 55.875 15.75 52.625 16 49C16.25 42.875 21.25 37.75 27.5 37.625C34.25 37.25 40 42.75 40 49.5C40 52.875 38.5 56 36.375 58.125C36 58.5 36 59 36.375 59.25C37.625 60.125 38.5 61.25 39 62.5C39.25 62.875 39.875 63 40.25 62.625C43.875 59.25 46 54.5 45.875 49.125C45.75 39.625 38 31.875 28.5 31.625C18.25 31.25 10 39.5 10 49.5C10 54.75 12.125 59.375 15.625 62.625C16 63 16.625 62.875 16.875 62.5C17.375 61.25 18.25 60.125 19.5 59.25C19.875 59 19.875 58.5 19.5 58.125ZM28 22C12.5 22 0 34.625 0 50C0 61.25 6.5 70.75 15.625 75.25C16.25 75.5 16.875 75 16.75 74.5C16.375 72.5 16.125 70.625 16 68.875C16 68.625 15.875 68.5 15.75 68.375C9.75 64.375 5.875 57.625 6 49.875C6 37.875 15.875 28.125 27.875 28.125C40 28 50 37.875 50 50C50 57.75 45.875 64.625 39.875 68.5C39.75 70.25 39.5 72.375 39.125 74.5C39 75 39.625 75.5 40.25 75.25C49.375 70.75 56 61.375 56 50C56 34.625 43.375 22 28 22ZM28 42C23.5 42 20 45.625 20 50C20 54.5 23.5 58 28 58C32.375 58 36 54.5 36 50C36 45.625 32.375 42 28 42Z" fill="#78909C"/>
<path d="M95.1953 101.523C95.8828 99.0312 97 92.9297 97 90.0938C97 87.0859 94.25 86.3125 91.5 86.3125C88.6641 86.3125 86 87.0859 86 90.0938C86 92.9297 87.0312 99.1172 87.7188 101.523C88.1484 103.156 89.8672 103.5 91.5 103.5C93.0469 103.5 94.7656 103.156 95.1953 101.523ZM85.6562 84.3359C84.1094 82.7891 83.0781 80.5547 83.25 78.0625C83.4219 73.8516 86.8594 70.3281 91.1562 70.2422C95.7969 69.9844 99.75 73.7656 99.75 78.4062C99.75 80.7266 98.7188 82.875 97.2578 84.3359C97 84.5938 97 84.9375 97.2578 85.1094C98.1172 85.7109 98.7188 86.4844 99.0625 87.3438C99.2344 87.6016 99.6641 87.6875 99.9219 87.4297C102.414 85.1094 103.875 81.8438 103.789 78.1484C103.703 71.6172 98.375 66.2891 91.8438 66.1172C84.7969 65.8594 79.125 71.5312 79.125 78.4062C79.125 82.0156 80.5859 85.1953 82.9922 87.4297C83.25 87.6875 83.6797 87.6016 83.8516 87.3438C84.1953 86.4844 84.7969 85.7109 85.6562 85.1094C85.9141 84.9375 85.9141 84.5938 85.6562 84.3359ZM91.5 59.5C80.8438 59.5 72.25 68.1797 72.25 78.75C72.25 86.4844 76.7188 93.0156 82.9922 96.1094C83.4219 96.2812 83.8516 95.9375 83.7656 95.5938C83.5078 94.2188 83.3359 92.9297 83.25 91.7266C83.25 91.5547 83.1641 91.4688 83.0781 91.3828C78.9531 88.6328 76.2891 83.9922 76.375 78.6641C76.375 70.4141 83.1641 63.7109 91.4141 63.7109C99.75 63.625 106.625 70.4141 106.625 78.75C106.625 84.0781 103.789 88.8047 99.6641 91.4688C99.5781 92.6719 99.4062 94.1328 99.1484 95.5938C99.0625 95.9375 99.4922 96.2812 99.9219 96.1094C106.195 93.0156 110.75 86.5703 110.75 78.75C110.75 68.1797 102.07 59.5 91.5 59.5ZM91.5 73.25C88.4062 73.25 86 75.7422 86 78.75C86 81.8438 88.4062 84.25 91.5 84.25C94.5078 84.25 97 81.8438 97 78.75C97 75.7422 94.5078 73.25 91.5 73.25Z" fill="#E53935"/>
<path d="M93.6875 35.5625C94.1875 33.75 95 29.3125 95 27.25C95 25.0625 93 24.5 91 24.5C88.9375 24.5 87 25.0625 87 27.25C87 29.3125 87.75 33.8125 88.25 35.5625C88.5625 36.75 89.8125 37 91 37C92.125 37 93.375 36.75 93.6875 35.5625ZM86.75 23.0625C85.625 21.9375 84.875 20.3125 85 18.5C85.125 15.4375 87.625 12.875 90.75 12.8125C94.125 12.625 97 15.375 97 18.75C97 20.4375 96.25 22 95.1875 23.0625C95 23.25 95 23.5 95.1875 23.625C95.8125 24.0625 96.25 24.625 96.5 25.25C96.625 25.4375 96.9375 25.5 97.125 25.3125C98.9375 23.625 100 21.25 99.9375 18.5625C99.875 13.8125 96 9.9375 91.25 9.8125C86.125 9.625 82 13.75 82 18.75C82 21.375 83.0625 23.6875 84.8125 25.3125C85 25.5 85.3125 25.4375 85.4375 25.25C85.6875 24.625 86.125 24.0625 86.75 23.625C86.9375 23.5 86.9375 23.25 86.75 23.0625ZM91 5C83.25 5 77 11.3125 77 19C77 24.625 80.25 29.375 84.8125 31.625C85.125 31.75 85.4375 31.5 85.375 31.25C85.1875 30.25 85.0625 29.3125 85 28.4375C85 28.3125 84.9375 28.25 84.875 28.1875C81.875 26.1875 79.9375 22.8125 80 18.9375C80 12.9375 84.9375 8.0625 90.9375 8.0625C97 8 102 12.9375 102 19C102 22.875 99.9375 26.3125 96.9375 28.25C96.875 29.125 96.75 30.1875 96.5625 31.25C96.5 31.5 96.8125 31.75 97.125 31.625C101.688 29.375 105 24.6875 105 19C105 11.3125 98.6875 5 91 5ZM91 15C88.75 15 87 16.8125 87 19C87 21.25 88.75 23 91 23C93.1875 23 95 21.25 95 19C95 16.8125 93.1875 15 91 15Z" fill="#78909C"/>
</svg>
