<svg width="28" height="28" viewBox="0 0 28 28" fill="none" xmlns="http://www.w3.org/2000/svg">
<path d="M21.5833 2.33337H7.58333C5.33167 2.33337 3.5 4.16504 3.5 6.41671V25.6667L11.6667 21.5834L19.8333 25.6667V15.1667H25.6667V6.41671C25.6667 4.16504 23.835 2.33337 21.5833 2.33337ZM17.5 21.8914L11.6667 18.9747L5.83333 21.8914V6.41671C5.83333 5.45187 6.6185 4.66671 7.58333 4.66671H17.9107C17.6436 5.21164 17.5033 5.80988 17.5 6.41671V21.8914ZM23.3333 12.8334H19.8333V6.41671C19.8333 5.45187 20.6185 4.66671 21.5833 4.66671C22.5482 4.66671 23.3333 5.45187 23.3333 6.41671V12.8334Z" fill="#CFD8DC"/>
<path d="M12.8333 8.16663H10.5V10.5H8.16663V12.8333H10.5V15.1666H12.8333V12.8333H15.1666V10.5H12.8333V8.16663Z" fill="#CFD8DC"/>
</svg>
