<svg width="28" height="28" viewBox="0 0 28 28" fill="none" xmlns="http://www.w3.org/2000/svg">
<circle cx="14" cy="14" r="13" stroke="#546E7A" stroke-width="2"/>
<path d="M19.375 12.4375H15.4375V8.5C15.4375 8.03516 15.0273 7.625 14.5625 7.625H13.6875C13.1953 7.625 12.8125 8.03516 12.8125 8.5V12.4375H8.875C8.38281 12.4375 8 12.8477 8 13.3125V14.1875C8 14.6797 8.38281 15.0625 8.875 15.0625H12.8125V19C12.8125 19.4922 13.1953 19.875 13.6875 19.875H14.5625C15.0273 19.875 15.4375 19.4922 15.4375 19V15.0625H19.375C19.8398 15.0625 20.25 14.6797 20.25 14.1875V13.3125C20.25 12.8477 19.8398 12.4375 19.375 12.4375Z" fill="#546E7A"/>
</svg>
