<svg width="14" height="16" viewBox="0 0 14 16" fill="none" xmlns="http://www.w3.org/2000/svg">
<path d="M0 14.4688C0 15.2598 0.615234 15.875 1.40625 15.875H11.7188C12.4805 15.875 13.125 15.2598 13.125 14.4688V6.5H0V14.4688ZM9.375 8.72656C9.375 8.55078 9.52148 8.375 9.72656 8.375H10.8984C11.0742 8.375 11.25 8.55078 11.25 8.72656V9.89844C11.25 10.1035 11.0742 10.25 10.8984 10.25H9.72656C9.52148 10.25 9.375 10.1035 9.375 9.89844V8.72656ZM9.375 12.4766C9.375 12.3008 9.52148 12.125 9.72656 12.125H10.8984C11.0742 12.125 11.25 12.3008 11.25 12.4766V13.6484C11.25 13.8535 11.0742 14 10.8984 14H9.72656C9.52148 14 9.375 13.8535 9.375 13.6484V12.4766ZM5.625 8.72656C5.625 8.55078 5.77148 8.375 5.97656 8.375H7.14844C7.32422 8.375 7.5 8.55078 7.5 8.72656V9.89844C7.5 10.1035 7.32422 10.25 7.14844 10.25H5.97656C5.77148 10.25 5.625 10.1035 5.625 9.89844V8.72656ZM5.625 12.4766C5.625 12.3008 5.77148 12.125 5.97656 12.125H7.14844C7.32422 12.125 7.5 12.3008 7.5 12.4766V13.6484C7.5 13.8535 7.32422 14 7.14844 14H5.97656C5.77148 14 5.625 13.8535 5.625 13.6484V12.4766ZM1.875 8.72656C1.875 8.55078 2.02148 8.375 2.22656 8.375H3.39844C3.57422 8.375 3.75 8.55078 3.75 8.72656V9.89844C3.75 10.1035 3.57422 10.25 3.39844 10.25H2.22656C2.02148 10.25 1.875 10.1035 1.875 9.89844V8.72656ZM1.875 12.4766C1.875 12.3008 2.02148 12.125 2.22656 12.125H3.39844C3.57422 12.125 3.75 12.3008 3.75 12.4766V13.6484C3.75 13.8535 3.57422 14 3.39844 14H2.22656C2.02148 14 1.875 13.8535 1.875 13.6484V12.4766ZM11.7188 2.75H10.3125V1.34375C10.3125 1.10938 10.0781 0.875 9.84375 0.875H8.90625C8.64258 0.875 8.4375 1.10938 8.4375 1.34375V2.75H4.6875V1.34375C4.6875 1.10938 4.45312 0.875 4.21875 0.875H3.28125C3.01758 0.875 2.8125 1.10938 2.8125 1.34375V2.75H1.40625C0.615234 2.75 0 3.39453 0 4.15625V5.5625H13.125V4.15625C13.125 3.39453 12.4805 2.75 11.7188 2.75Z" fill="#546E7A"/>
</svg>
