<svg width="24" height="37" viewBox="0 0 24 37" fill="none" xmlns="http://www.w3.org/2000/svg">
<path d="M21 7H3C1.3125 7 0 8.35938 0 10V23.5C0 25.1875 1.3125 26.5 3 26.5H7.5V30.4375C7.5 30.8125 7.73438 31 8.0625 31C8.15625 31 8.25 31 8.39062 30.9062L14.25 26.5H21C22.6406 26.5 24 25.1875 24 23.5V10C24 8.35938 22.6406 7 21 7ZM21.75 23.5C21.75 23.9219 21.375 24.25 21 24.25H13.5L12.8906 24.7188L9.75 27.0625V24.25H3C2.57812 24.25 2.25 23.9219 2.25 23.5V10C2.25 9.625 2.57812 9.25 3 9.25H21C21.375 9.25 21.75 9.625 21.75 10V23.5Z" fill="#546E7A"/>
<path d="M13.6875 16.5C13.6875 15.5859 12.9141 14.8125 12 14.8125C11.0625 14.8125 10.3125 15.5859 10.3125 16.5C10.3125 17.4375 11.0625 18.1875 12 18.1875C12.9141 18.1875 13.6875 17.4375 13.6875 16.5ZM16.125 14.8125C15.1875 14.8125 14.4375 15.5859 14.4375 16.5C14.4375 17.4375 15.1875 18.1875 16.125 18.1875C17.0391 18.1875 17.8125 17.4375 17.8125 16.5C17.8125 15.5859 17.0391 14.8125 16.125 14.8125ZM7.875 14.8125C6.9375 14.8125 6.1875 15.5859 6.1875 16.5C6.1875 17.4375 6.9375 18.1875 7.875 18.1875C8.78906 18.1875 9.5625 17.4375 9.5625 16.5C9.5625 15.5859 8.78906 14.8125 7.875 14.8125Z" fill="#546E7A"/>
</svg>
