<svg width="15" height="15" viewBox="0 0 15 15" fill="none" xmlns="http://www.w3.org/2000/svg">
<path d="M7.26562 0.109375C3.25195 0.109375 0 3.36133 0 7.375C0 11.3887 3.25195 14.6406 7.26562 14.6406C11.2793 14.6406 14.5312 11.3887 14.5312 7.375C14.5312 3.36133 11.2793 0.109375 7.26562 0.109375ZM9.60938 5.03125C10.1074 5.03125 10.5469 5.4707 10.5469 5.96875C10.5469 6.49609 10.1074 6.90625 9.60938 6.90625C9.08203 6.90625 8.67188 6.49609 8.67188 5.96875C8.67188 5.4707 9.08203 5.03125 9.60938 5.03125ZM4.92188 5.03125C5.41992 5.03125 5.85938 5.4707 5.85938 5.96875C5.85938 6.49609 5.41992 6.90625 4.92188 6.90625C4.39453 6.90625 3.98438 6.49609 3.98438 5.96875C3.98438 5.4707 4.39453 5.03125 4.92188 5.03125ZM10.6055 10.041C9.78516 11.0371 8.55469 11.5938 7.26562 11.5938C5.94727 11.5938 4.7168 11.0371 3.89648 10.041C3.48633 9.54297 4.21875 8.95703 4.59961 9.42578C5.27344 10.2168 6.24023 10.6562 7.26562 10.6562C8.29102 10.6562 9.22852 10.2168 9.90234 9.42578C10.2832 8.95703 11.0156 9.54297 10.6055 10.041Z" fill="#546E7A"/>
</svg>
