<svg width="11" height="12" viewBox="0 0 11 12" fill="none" xmlns="http://www.w3.org/2000/svg">
<path d="M7.49805 2.50195C6.33789 2.50195 5.39258 1.75 3.95312 1.75C3.41602 1.75 2.94336 1.85742 2.49219 2.0293C2.53516 1.87891 2.55664 1.75 2.55664 1.59961C2.55664 1.55664 2.55664 1.53516 2.55664 1.51367C2.53516 0.912109 2.01953 0.417969 1.41797 0.396484C0.730469 0.353516 0.171875 0.912109 0.171875 1.57812C0.171875 2.00781 0.365234 2.35156 0.6875 2.56641V10.8594C0.6875 11.1602 0.902344 11.375 1.20312 11.375H1.54688C1.82617 11.375 2.0625 11.1602 2.0625 10.8594V8.83984C2.66406 8.58203 3.41602 8.36719 4.51172 8.36719C5.67188 8.36719 6.61719 9.11914 8.05664 9.11914C9.08789 9.11914 9.92578 8.75391 10.6992 8.23828C10.8711 8.10938 11 7.89453 11 7.67969V2.4375C11 1.94336 10.4629 1.62109 10.0117 1.81445C9.28125 2.1582 8.37891 2.50195 7.49805 2.50195Z" fill="#E53935"/>
</svg>
