<svg width="25" height="25" viewBox="0 0 25 25" fill="none" xmlns="http://www.w3.org/2000/svg">
<path d="M8.125 24.6953C9.54688 24.6953 10.75 23.5469 10.75 22.0703V2.82031C10.75 1.39844 9.54688 0.195312 8.125 0.195312H2.875C1.39844 0.195312 0.25 1.39844 0.25 2.82031V22.0703C0.25 23.5469 1.39844 24.6953 2.875 24.6953H8.125ZM24.75 22.0703V2.82031C24.75 1.39844 23.5469 0.195312 22.125 0.195312H16.875C15.3984 0.195312 14.25 1.39844 14.25 2.82031V22.0703C14.25 23.5469 15.3984 24.6953 16.875 24.6953H22.125C23.5469 24.6953 24.75 23.5469 24.75 22.0703Z" fill="white"/>
</svg>
