<svg width="28" height="32" viewBox="0 0 28 32" fill="none" xmlns="http://www.w3.org/2000/svg">
<path d="M16.6875 30.5625C17.1875 28.75 18 24.3125 18 22.25C18 20.0625 16 19.5 14 19.5C11.9375 19.5 10 20.0625 10 22.25C10 24.3125 10.75 28.8125 11.25 30.5625C11.5625 31.75 12.8125 32 14 32C15.125 32 16.375 31.75 16.6875 30.5625ZM9.75 18.0625C8.625 16.9375 7.875 15.3125 8 13.5C8.125 10.4375 10.625 7.875 13.75 7.8125C17.125 7.625 20 10.375 20 13.75C20 15.4375 19.25 17 18.1875 18.0625C18 18.25 18 18.5 18.1875 18.625C18.8125 19.0625 19.25 19.625 19.5 20.25C19.625 20.4375 19.9375 20.5 20.125 20.3125C21.9375 18.625 23 16.25 22.9375 13.5625C22.875 8.8125 19 4.9375 14.25 4.8125C9.125 4.625 5 8.75 5 13.75C5 16.375 6.0625 18.6875 7.8125 20.3125C8 20.5 8.3125 20.4375 8.4375 20.25C8.6875 19.625 9.125 19.0625 9.75 18.625C9.9375 18.5 9.9375 18.25 9.75 18.0625ZM14 0C6.25 0 0 6.3125 0 14C0 19.625 3.25 24.375 7.8125 26.625C8.125 26.75 8.4375 26.5 8.375 26.25C8.1875 25.25 8.0625 24.3125 8 23.4375C8 23.3125 7.9375 23.25 7.875 23.1875C4.875 21.1875 2.9375 17.8125 3 13.9375C3 7.9375 7.9375 3.0625 13.9375 3.0625C20 3 25 7.9375 25 14C25 17.875 22.9375 21.3125 19.9375 23.25C19.875 24.125 19.75 25.1875 19.5625 26.25C19.5 26.5 19.8125 26.75 20.125 26.625C24.6875 24.375 28 19.6875 28 14C28 6.3125 21.6875 0 14 0ZM14 10C11.75 10 10 11.8125 10 14C10 16.25 11.75 18 14 18C16.1875 18 18 16.25 18 14C18 11.8125 16.1875 10 14 10Z" fill="white"/>
</svg>
