<svg width="24" height="24" viewBox="0 0 24 24" fill="none" xmlns="http://www.w3.org/2000/svg">
<path d="M20.625 0.609375L20.8125 4.5C18.7031 1.96875 15.5156 0.375 12 0.375C11.9531 0.375 11.9531 0.375 11.9531 0.375C6.28125 0.375 1.54688 4.45312 0.5625 9.84375C0.5625 9.89062 0.5625 9.9375 0.5625 9.98438C0.5625 10.2656 0.796875 10.5 1.125 10.5H3.42188C3.65625 10.5 3.89062 10.3594 3.9375 10.0781C4.82812 6.46875 8.0625 3.79688 11.9531 3.79688C14.8125 3.79688 17.3438 5.20312 18.7969 7.40625L14.0625 7.17188H14.0156C13.7344 7.17188 13.4531 7.45312 13.4531 7.73438V9.98438C13.4531 10.2656 13.7344 10.5469 14.0156 10.5469H23.4375C23.7188 10.5469 24 10.2656 24 9.98438V0.5625C24 0.28125 23.7188 0 23.4375 0H21.1875C20.9062 0.046875 20.625 0.28125 20.625 0.5625C20.625 0.609375 20.625 0.609375 20.625 0.609375ZM11.9531 20.25C9.09375 20.25 6.60938 18.8438 5.10938 16.6406L9.89062 16.875H9.9375C10.2188 16.875 10.5 16.5938 10.5 16.3125V14.0625C10.5 13.7812 10.2188 13.5 9.9375 13.5H0.5625C0.234375 13.5 0 13.7812 0 14.0625V23.4375C0 23.7656 0.234375 24 0.5625 24H2.76562C3.04688 24 3.32812 23.7656 3.32812 23.4375L3.14062 19.5469C5.25 22.0781 8.4375 23.6719 11.9531 23.6719V23.625C17.625 23.625 22.3594 19.5938 23.3906 14.2031C23.3906 14.1562 23.3906 14.1094 23.3906 14.0625C23.3906 13.7812 23.1562 13.5 22.8281 13.5H20.5312C20.25 13.5469 20.0625 13.6875 19.9688 13.9688C19.125 17.5781 15.8438 20.25 11.9531 20.25Z" fill="#B0BEC5"/>
</svg>
