<svg width="17" height="12" viewBox="0 0 17 12" fill="none" xmlns="http://www.w3.org/2000/svg">
<path d="M2.4375 5.3125C3.32617 5.3125 4.0625 4.60156 4.0625 3.6875C4.0625 2.79883 3.32617 2.0625 2.4375 2.0625C1.52344 2.0625 0.8125 2.79883 0.8125 3.6875C0.8125 4.60156 1.52344 5.3125 2.4375 5.3125ZM13.8125 5.3125C14.7012 5.3125 15.4375 4.60156 15.4375 3.6875C15.4375 2.79883 14.7012 2.0625 13.8125 2.0625C12.8984 2.0625 12.1875 2.79883 12.1875 3.6875C12.1875 4.60156 12.8984 5.3125 13.8125 5.3125ZM14.625 6.125H13C12.543 6.125 12.1367 6.32812 11.832 6.60742C12.873 7.16602 13.584 8.18164 13.7617 9.375H15.4375C15.8691 9.375 16.25 9.01953 16.25 8.5625V7.75C16.25 6.86133 15.5137 6.125 14.625 6.125ZM8.125 6.125C9.67383 6.125 10.9688 4.85547 10.9688 3.28125C10.9688 1.73242 9.67383 0.4375 8.125 0.4375C6.55078 0.4375 5.28125 1.73242 5.28125 3.28125C5.28125 4.85547 6.55078 6.125 8.125 6.125ZM10.0547 6.9375H9.85156C9.31836 7.19141 8.73438 7.34375 8.125 7.34375C7.49023 7.34375 6.90625 7.19141 6.37305 6.9375H6.16992C4.54492 6.9375 3.25 8.25781 3.25 9.88281V10.5938C3.25 11.2793 3.7832 11.8125 4.46875 11.8125H11.7812C12.4414 11.8125 13 11.2793 13 10.5938V9.88281C13 8.25781 11.6797 6.9375 10.0547 6.9375ZM4.39258 6.60742C4.08789 6.32812 3.68164 6.125 3.25 6.125H1.625C0.710938 6.125 0 6.86133 0 7.75V8.5625C0 9.01953 0.355469 9.375 0.8125 9.375H2.46289C2.64062 8.18164 3.35156 7.16602 4.39258 6.60742Z" fill="#546E7A"/>
</svg>
