<svg width="24" height="24" viewBox="0 0 24 24" fill="none" xmlns="http://www.w3.org/2000/svg">
<path d="M7.03 4.95L3.49 8.49C0.17 11.81 0.17 17.19 3.49 20.51C6.81 23.83 12.19 23.83 15.51 20.51L21.52 14.5C21.7804 14.2363 21.9794 13.9184 22.1028 13.5689C22.2261 13.2194 22.2708 12.847 22.2335 12.4782C22.1963 12.1095 22.078 11.7535 21.8873 11.4357C21.6965 11.118 21.4379 10.8463 21.13 10.64L21.52 10.25C22.49 9.28 22.49 7.69 21.52 6.71C21.36 6.55 21.17 6.41 20.98 6.3C21.1998 5.80091 21.2501 5.24358 21.1234 4.71317C20.9966 4.18276 20.6997 3.70844 20.278 3.36267C19.8562 3.01691 19.3329 2.81871 18.7879 2.79836C18.243 2.77802 17.7063 2.93664 17.26 3.25C17.0565 2.93658 16.7858 2.6724 16.4675 2.47663C16.1492 2.28087 15.7913 2.15844 15.4198 2.11822C15.0483 2.07801 14.6725 2.12102 14.3196 2.24414C13.9668 2.36725 13.6458 2.56738 13.38 2.83L10.87 5.34C10.6663 5.03191 10.3966 4.77294 10.0806 4.58181C9.76449 4.39068 9.4099 4.27217 9.04243 4.23485C8.67497 4.19753 8.30379 4.24233 7.95576 4.36601C7.60772 4.48969 7.29151 4.68916 7.03 4.95ZM8.44 6.37C8.64 6.17 8.95 6.17 9.15 6.37C9.35 6.57 9.35 6.88 9.15 7.08L5.97 10.26C6.5318 10.8225 6.84736 11.585 6.84736 12.38C6.84736 13.175 6.5318 13.9375 5.97 14.5L7.38 15.91C8.06732 15.222 8.53929 14.3487 8.7382 13.3968C8.93711 12.4449 8.85433 11.4556 8.5 10.55L14.8 4.25C15 4.05 15.31 4.05 15.51 4.25C15.71 4.45 15.71 4.76 15.51 4.96L10.91 9.56L12.32 10.97L18.33 4.96C18.53 4.76 18.84 4.76 19.04 4.96C19.24 5.16 19.24 5.47 19.04 5.67L13.03 11.68L14.44 13.09L19.39 8.14C19.59 7.94 19.9 7.94 20.1 8.14C20.3 8.34 20.3 8.65 20.1 8.85L14.44 14.51L15.85 15.92L19.39 12.38C19.59 12.18 19.9 12.18 20.1 12.38C20.3 12.58 20.3 12.89 20.1 13.09L14.1 19.1C11.56 21.64 7.45 21.64 4.91 19.1C2.37 16.56 2.37 12.45 4.91 9.91L8.44 6.37ZM23 17C23 20.31 20.31 23 17 23V21.5C19.48 21.5 21.5 19.48 21.5 17H23ZM1 7C1 3.69 3.69 1 7 1V2.5C4.52 2.5 2.5 4.52 2.5 7H1Z" fill="#90A4AE"/>
</svg>
