<svg width="30" height="30" viewBox="0 0 30 30" fill="none" xmlns="http://www.w3.org/2000/svg">
<path d="M10.8481 13.7639C11.0399 13.956 11.4235 13.956 11.6153 13.7639L18.0082 7.36032C18.2319 7.1362 18.2 6.784 18.0082 6.5919L11.5833 0.156317C11.3915 -0.0357898 11.0399 -0.0678076 10.8162 0.156317L9.28188 1.69317C9.09009 1.88528 9.09009 2.26949 9.28188 2.4616L11.8071 4.99101C8.73848 4.7989 5.574 5.91952 3.24059 8.32086C-1.10658 12.7393 -1.07462 19.7512 3.30452 24.1377C5.58089 26.4178 8.5828 27.5041 11.5559 27.4054C12.0643 27.3885 12.4464 26.9559 12.4464 26.4472V25.2146C12.4464 24.5996 11.8947 24.1348 11.2797 24.1412C9.22344 24.1629 7.1577 23.3867 5.574 21.8004C2.47344 18.6946 2.47344 13.6358 5.574 10.5301C7.4599 8.64104 10.0171 7.93665 12.4464 8.32086L9.31384 11.4586C9.12206 11.6507 9.09009 12.0029 9.31384 12.227L10.8481 13.7639Z" fill="#546E7A"/>
<path d="M19.3034 25H17.469V17.9287L15.279 18.6079V17.1162L19.1067 15.7451H19.3034V25ZM22.5852 20.4551L23.1184 15.7578H28.2981V17.2876H24.6228L24.3943 19.2744C24.8301 19.0417 25.2935 18.9253 25.7844 18.9253C26.6646 18.9253 27.3544 19.1982 27.8537 19.7441C28.3531 20.29 28.6028 21.0539 28.6028 22.0356C28.6028 22.6323 28.4758 23.1676 28.2219 23.6416C27.9722 24.1113 27.6125 24.4774 27.1428 24.7397C26.6731 24.9979 26.1187 25.127 25.4797 25.127C24.9211 25.127 24.4027 25.0148 23.9245 24.7905C23.4463 24.562 23.0676 24.2425 22.7883 23.832C22.5132 23.4215 22.3672 22.9539 22.3503 22.4292H24.1657C24.2038 22.8143 24.3371 23.1147 24.5656 23.3306C24.7984 23.5422 25.101 23.6479 25.4734 23.6479C25.8881 23.6479 26.2076 23.4998 26.4319 23.2036C26.6561 22.9032 26.7683 22.48 26.7683 21.9341C26.7683 21.4093 26.6392 21.0073 26.3811 20.728C26.1229 20.4487 25.7569 20.3091 25.2829 20.3091C24.8471 20.3091 24.4937 20.4233 24.2229 20.6519L24.0451 20.8169L22.5852 20.4551Z" fill="#546E7A"/>
</svg>
