<svg width="30" height="30" viewBox="0 0 30 30" fill="none" xmlns="http://www.w3.org/2000/svg">
<path d="M19.1321 13.7639C18.94 13.956 18.5557 13.956 18.3635 13.7639L11.959 7.36032C11.7348 7.1362 11.7668 6.784 11.959 6.5919L18.3956 0.156317C18.5877 -0.0357898 18.94 -0.0678076 19.1641 0.156317L20.7012 1.69317C20.8934 1.88528 20.8934 2.26949 20.7012 2.4616L18.1714 4.99101C21.2456 4.7989 24.4159 5.91952 26.7536 8.32086C31.1087 12.7393 31.0767 19.7512 26.6895 24.1377C24.4086 26.4182 21.4006 27.5044 18.4216 27.4053C17.9131 27.3884 17.531 26.9558 17.531 26.447V25.2143C17.531 24.5994 18.0824 24.1346 18.6973 24.1412C20.7581 24.1635 22.8287 23.3873 24.4159 21.8004C27.5221 18.6946 27.5221 13.6358 24.4159 10.5301C22.5265 8.64104 19.9647 7.93665 17.531 8.32086L20.6692 11.4586C20.8613 11.6507 20.8934 12.0029 20.6692 12.227L19.1321 13.7639Z" fill="#546E7A"/>
<path d="M5.08447 25H3.25V17.9287L1.06006 18.6079V17.1162L4.8877 15.7451H5.08447V25ZM8.36621 20.4551L8.89941 15.7578H14.0791V17.2876H10.4038L10.1753 19.2744C10.6112 19.0417 11.0745 18.9253 11.5654 18.9253C12.4456 18.9253 13.1354 19.1982 13.6348 19.7441C14.1341 20.29 14.3838 21.0539 14.3838 22.0356C14.3838 22.6323 14.2568 23.1676 14.0029 23.6416C13.7533 24.1113 13.3936 24.4774 12.9238 24.7397C12.4541 24.9979 11.8997 25.127 11.2607 25.127C10.7021 25.127 10.1838 25.0148 9.70557 24.7905C9.22738 24.562 8.84863 24.2425 8.56934 23.832C8.29427 23.4215 8.14827 22.9539 8.13135 22.4292H9.94678C9.98486 22.8143 10.1182 23.1147 10.3467 23.3306C10.5794 23.5422 10.882 23.6479 11.2544 23.6479C11.6691 23.6479 11.9886 23.4998 12.2129 23.2036C12.4372 22.9032 12.5493 22.48 12.5493 21.9341C12.5493 21.4093 12.4202 21.0073 12.1621 20.728C11.904 20.4487 11.5379 20.3091 11.064 20.3091C10.6281 20.3091 10.2747 20.4233 10.0039 20.6519L9.82617 20.8169L8.36621 20.4551Z" fill="#546E7A"/>
</svg>
