<svg width="24" height="26" viewBox="0 0 24 26" fill="none" xmlns="http://www.w3.org/2000/svg">
<path d="M9.33337 3.22223H24V5.00001H9.33337V3.22223Z" fill="#90A4AE"/>
<path d="M0 4.11113C0 4.81435 0.20853 5.50178 0.599219 6.08649C0.989909 6.6712 1.54521 7.12692 2.1949 7.39603C2.8446 7.66514 3.5595 7.73556 4.24921 7.59836C4.93892 7.46117 5.57246 7.12254 6.06971 6.62529C6.56697 6.12803 6.9056 5.49449 7.04279 4.80478C7.17998 4.11507 7.10957 3.40017 6.84046 2.75048C6.57135 2.10078 6.11562 1.54548 5.53092 1.15479C4.94621 0.764102 4.25878 0.555573 3.55556 0.555573C2.61289 0.556631 1.70913 0.931573 1.04257 1.59814C0.376001 2.26471 0.00105871 3.16846 0 4.11113ZM3.55556 2.33335C3.90717 2.33335 4.25088 2.43762 4.54324 2.63296C4.83559 2.8283 5.06345 3.10596 5.19801 3.4308C5.33256 3.75565 5.36777 4.1131 5.29917 4.45796C5.23058 4.80281 5.06126 5.11958 4.81263 5.36821C4.56401 5.61683 4.24724 5.78615 3.90238 5.85475C3.55753 5.92334 3.20008 5.88814 2.87523 5.75358C2.55038 5.61902 2.27273 5.39116 2.07739 5.09881C1.88204 4.80645 1.77778 4.46274 1.77778 4.11113C1.77831 3.63979 1.96578 3.18792 2.29906 2.85463C2.63234 2.52135 3.08422 2.33388 3.55556 2.33335Z" fill="#90A4AE"/>
<path d="M9.33337 12.1111H24V13.8889H9.33337V12.1111Z" fill="#90A4AE"/>
<path d="M3.55556 16.5556C4.25878 16.5556 4.94621 16.347 5.53092 15.9564C6.11562 15.5657 6.57135 15.0104 6.84046 14.3607C7.10957 13.711 7.17998 12.9961 7.04279 12.3064C6.9056 11.6167 6.56697 10.9831 6.06971 10.4859C5.57246 9.9886 4.93892 9.64997 4.24921 9.51278C3.5595 9.37559 2.8446 9.446 2.1949 9.71511C1.54521 9.98422 0.989909 10.4399 0.599219 11.0247C0.20853 11.6094 0 12.2968 0 13C0.00105871 13.9427 0.376001 14.8464 1.04257 15.513C1.70913 16.1796 2.61289 16.5545 3.55556 16.5556ZM3.55556 11.2222C3.90717 11.2222 4.25088 11.3265 4.54324 11.5218C4.83559 11.7172 5.06345 11.9948 5.19801 12.3197C5.33256 12.6445 5.36777 13.002 5.29917 13.3468C5.23058 13.6917 5.06126 14.0085 4.81263 14.2571C4.56401 14.5057 4.24724 14.675 3.90238 14.7436C3.55753 14.8122 3.20008 14.777 2.87523 14.6425C2.55038 14.5079 2.27273 14.2801 2.07739 13.9877C1.88204 13.6953 1.77778 13.3516 1.77778 13C1.77831 12.5287 1.96578 12.0768 2.29906 11.7435C2.63234 11.4102 3.08422 11.2228 3.55556 11.2222Z" fill="#90A4AE"/>
<path d="M9.33337 21H24V22.7778H9.33337V21Z" fill="#90A4AE"/>
<path d="M3.55556 25.4445C4.25878 25.4445 4.94621 25.2359 5.53092 24.8452C6.11562 24.4545 6.57135 23.8992 6.84046 23.2496C7.10957 22.5999 7.17998 21.885 7.04279 21.1952C6.9056 20.5055 6.56697 19.872 6.06971 19.3747C5.57246 18.8775 4.93892 18.5389 4.24921 18.4017C3.5595 18.2645 2.8446 18.3349 2.1949 18.604C1.54521 18.8731 0.989909 19.3288 0.599219 19.9135C0.20853 20.4982 0 21.1857 0 21.8889C0.00105871 22.8316 0.376001 23.7353 1.04257 24.4019C1.70913 25.0685 2.61289 25.4434 3.55556 25.4445ZM3.55556 20.1111C3.90717 20.1111 4.25088 20.2154 4.54324 20.4107C4.83559 20.6061 5.06345 20.8837 5.19801 21.2086C5.33256 21.5334 5.36777 21.8909 5.29917 22.2357C5.23058 22.5806 5.06126 22.8974 4.81263 23.146C4.56401 23.3946 4.24724 23.5639 3.90238 23.6325C3.55753 23.7011 3.20008 23.6659 2.87523 23.5314C2.55038 23.3968 2.27273 23.1689 2.07739 22.8766C1.88204 22.5842 1.77778 22.2405 1.77778 21.8889C1.77831 21.4176 1.96578 20.9657 2.29906 20.6324C2.63234 20.2991 3.08422 20.1117 3.55556 20.1111Z" fill="#90A4AE"/>
</svg>
