<svg width="30" height="26" viewBox="0 0 30 26" fill="none" xmlns="http://www.w3.org/2000/svg">
<path d="M11.7875 0.267059C10.2866 0.267059 8.84723 0.863282 7.78594 1.92456C6.72466 2.98585 6.12844 4.42526 6.12844 5.92614C6.12844 7.42702 6.72466 8.86643 7.78594 9.92771C8.84723 10.989 10.2866 11.5852 11.7875 11.5852C13.2884 11.5852 14.7278 10.989 15.7891 9.92771C16.8504 8.86643 17.4466 7.42702 17.4466 5.92614C17.4466 4.42526 16.8504 2.98585 15.7891 1.92456C14.7278 0.863282 13.2884 0.267059 11.7875 0.267059ZM11.7875 3.0966C12.538 3.0966 13.2577 3.39471 13.7883 3.92535C14.3189 4.45599 14.6171 5.1757 14.6171 5.92614C14.6171 6.67658 14.3189 7.39628 13.7883 7.92692C13.2577 8.45757 12.538 8.75568 11.7875 8.75568C11.0371 8.75568 10.3174 8.45757 9.78673 7.92692C9.25609 7.39628 8.95798 6.67658 8.95798 5.92614C8.95798 5.1757 9.25609 4.45599 9.78673 3.92535C10.3174 3.39471 11.0371 3.0966 11.7875 3.0966ZM21.6909 11.5852C21.4645 11.5852 21.3514 11.6984 21.3514 11.9248L20.9835 13.7074C20.6723 13.962 20.2195 14.1884 19.88 14.4148L18.0691 13.7074C17.9559 13.7074 17.7295 13.7074 17.6164 13.8488L16.2582 16.3388C16.145 16.452 16.145 16.6784 16.3714 16.7916L17.8427 17.9517V19.3664L16.3714 20.5266C16.2582 20.6397 16.145 20.8661 16.2582 20.9793L17.6164 23.4693C17.7295 23.6108 17.9559 23.6108 18.0691 23.6108L19.88 22.9034C20.2195 23.1297 20.6723 23.3561 20.9835 23.6108L21.3514 25.3934C21.3514 25.6197 21.4645 25.7329 21.6909 25.7329H24.5204C24.6336 25.7329 24.86 25.6197 24.86 25.3934L25.0863 23.6108C25.5391 23.3561 25.9918 23.1297 26.3313 22.9034L28.0574 23.6108C28.2554 23.6108 28.4818 23.6108 28.4818 23.4693L29.9532 20.9793C30.0663 20.8661 29.9532 20.6397 29.84 20.5266L28.3686 19.3664V17.9517L29.84 16.7916C29.9532 16.6784 30.0663 16.452 29.9532 16.3388L28.4818 13.8488C28.4818 13.7074 28.2554 13.7074 28.0574 13.7074L26.3313 14.4148C25.9918 14.1884 25.5391 13.962 25.0863 13.7074L24.86 11.9248C24.86 11.6984 24.6336 11.5852 24.5204 11.5852H21.6909ZM11.7875 13C8.01008 13 0.46936 14.8816 0.46936 18.6591V22.9034H14.1502C13.754 22.0687 13.4711 21.1632 13.3296 20.2153H3.15742V18.6591C3.15742 17.7536 7.58565 15.688 11.7875 15.688C12.3959 15.688 13.0184 15.7446 13.6267 15.8295C13.9097 14.9241 14.2917 14.0752 14.7868 13.2971C13.6833 13.1132 12.6364 13 11.7875 13ZM23.1623 16.5369C24.2941 16.5369 25.2278 17.4707 25.2278 18.7157C25.2278 19.8475 24.2941 20.7812 23.1623 20.7812C21.9173 20.7812 20.9835 19.8475 20.9835 18.7157C20.9835 17.4707 21.9173 16.5369 23.1623 16.5369Z" fill="#90A4AE"/>
</svg>
