<svg width="16" height="16" viewBox="0 0 16 16" fill="none" xmlns="http://www.w3.org/2000/svg">
<path d="M8.5 8.08203C8.08984 8.08203 7.79688 8.4043 7.79688 8.78516C7.82617 10.9238 7.5332 12.9453 6.97656 14.9961C6.88867 15.2891 7.03516 15.875 7.65039 15.875C7.97266 15.875 8.23633 15.6992 8.32422 15.377C8.73438 13.9707 9.23242 11.7148 9.20312 8.78516C9.20312 8.4043 8.88086 8.08203 8.5 8.08203ZM8.4707 5.70898C6.68359 5.70898 5.42383 7.08594 5.45312 8.66797C5.45312 10.0742 5.33594 11.4805 5.04297 12.8281C4.98438 13.209 5.21875 13.5898 5.59961 13.6777C5.98047 13.7363 6.36133 13.502 6.41992 13.1211C6.74219 11.6562 6.85938 10.1621 6.85938 8.63867C6.83008 7.87695 7.44531 7.11523 8.44141 7.11523C9.34961 7.11523 10.1113 7.84766 10.1406 8.72656C10.1406 10.1328 10.0527 11.5684 9.81836 12.9453C9.75977 13.3262 10.0234 13.6777 10.4043 13.7363C10.9902 13.8535 11.1953 13.2969 11.1953 13.1797C11.459 11.7148 11.5469 10.1914 11.5469 8.69727C11.5176 7.08594 10.1406 5.73828 8.4707 5.70898ZM5.21875 5.12305C4.92578 4.88867 4.48633 4.91797 4.22266 5.21094C3.49023 6.14844 3.08008 7.32031 3.10938 8.49219C3.10938 9.60547 3.02148 10.7188 2.81641 11.7734C2.75781 12.1836 3.02148 12.5352 3.40234 12.5938C3.98828 12.7109 4.19336 12.1836 4.22266 12.0371C4.42773 10.8652 4.51562 9.66406 4.51562 8.49219C4.48633 7.61328 4.7793 6.79297 5.33594 6.11914C5.57031 5.79688 5.51172 5.35742 5.21875 5.12305ZM8.44141 3.30664C7.97266 3.27734 7.5332 3.33594 7.09375 3.45312C6.71289 3.54102 6.47852 3.92188 6.56641 4.27344C6.6543 4.6543 7.03516 4.88867 7.41602 4.80078C7.73828 4.74219 8.06055 4.71289 8.41211 4.71289C10.6094 4.74219 12.4551 6.5 12.4844 8.63867C12.4844 9.75195 12.4258 10.8652 12.3086 11.9785C12.2793 12.3594 12.543 12.7109 12.9238 12.7402C13.4219 12.7988 13.6855 12.418 13.7148 12.125C13.832 11.0996 13.8906 10.0742 13.8906 9.01953C13.8906 8.87305 13.8906 8.75586 13.8906 8.60938C13.832 5.73828 11.4004 3.33594 8.44141 3.30664ZM15.8242 6.85156C15.7363 6.4707 15.3555 6.23633 14.9746 6.32422C14.5938 6.41211 14.3594 6.76367 14.4473 7.14453C14.5645 7.78906 14.5938 8.25781 14.5645 8.96094C14.5645 9.3418 14.8867 9.66406 15.2676 9.66406C15.6777 9.66406 15.9707 9.37109 15.9707 8.96094C16 8.31641 16 7.67188 15.8242 6.85156ZM14.623 4.18555C13.2168 2.16406 10.873 0.933594 8.38281 0.904297C6.36133 0.875 4.45703 1.60742 3.05078 3.01367C1.70312 4.39062 0.970703 6.20703 1 8.11133V8.75586C0.970703 9.13672 1.29297 9.45898 1.67383 9.45898C1.67383 9.45898 1.67383 9.45898 1.70312 9.45898C2.05469 9.45898 2.37695 9.16602 2.37695 8.78516L2.40625 8.08203C2.37695 6.55859 2.96289 5.12305 4.04688 4.00977C5.18945 2.89648 6.71289 2.28125 8.38281 2.31055C10.4043 2.33984 12.3086 3.33594 13.4805 5.00586C13.7148 5.32812 14.1543 5.38672 14.4766 5.18164C14.7695 4.94727 14.8574 4.50781 14.623 4.18555Z" fill="#546E7A"/>
</svg>
