<svg width="19" height="16" viewBox="0 0 19 16" fill="none" xmlns="http://www.w3.org/2000/svg">
<path d="M14.6855 7.49609L8.50391 1.31445C8.24023 1.05078 7.88867 0.875 7.50781 0.875H1.53125C0.740234 0.875 0.125 1.51953 0.125 2.28125V8.28711C0.125 8.66797 0.271484 9.01953 0.535156 9.2832L6.7168 15.4648C7.27344 16.0215 8.18164 16.0215 8.70898 15.4648L14.6855 9.48828C15.2422 8.96094 15.2422 8.05273 14.6855 7.49609ZM3.40625 5.5625C2.61523 5.5625 2 4.94727 2 4.15625C2 3.39453 2.61523 2.75 3.40625 2.75C4.16797 2.75 4.8125 3.39453 4.8125 4.15625C4.8125 4.94727 4.16797 5.5625 3.40625 5.5625ZM18.4355 9.48828C18.9922 8.96094 18.9922 8.05273 18.4355 7.49609L12.2539 1.31445C11.9902 1.05078 11.6387 0.875 11.2578 0.875H9.82227L15.5645 6.64648C16.0625 7.14453 16.3555 7.78906 16.3555 8.49219C16.3555 9.19531 16.0625 9.86914 15.5645 10.3672L10.4668 15.4648C11.0234 16.0215 11.9316 16.0215 12.459 15.4648L18.4355 9.48828Z" fill="#546E7A"/>
</svg>
