<svg width="25" height="25" viewBox="0 0 25 25" fill="none" xmlns="http://www.w3.org/2000/svg">
<path fill-rule="evenodd" clip-rule="evenodd" d="M12.5001 0C9.18492 0 6.00549 1.31696 3.66129 3.66117C1.31708 6.00537 0.00012207 9.18479 0.00012207 12.5C0.00012207 15.8152 1.31708 18.9946 3.66129 21.3388C6.00549 23.683 9.18492 25 12.5001 25C15.8153 25 18.9948 23.683 21.339 21.3388C23.6832 18.9946 25.0001 15.8152 25.0001 12.5C25.0001 9.18479 23.6832 6.00537 21.339 3.66117C18.9948 1.31696 15.8153 0 12.5001 0ZM12.5001 23.0769C9.69495 23.0769 7.00467 21.9626 5.02111 19.979C3.03755 17.9955 1.9232 15.3052 1.9232 12.5C1.9232 9.69483 3.03755 7.00454 5.02111 5.02099C7.00467 3.03743 9.69495 1.92308 12.5001 1.92308C15.3053 1.92308 17.9956 3.03743 19.9791 5.02099C21.9627 7.00454 23.077 9.69483 23.077 12.5C23.077 15.3052 21.9627 17.9955 19.9791 19.979C17.9956 21.9626 15.3053 23.0769 12.5001 23.0769ZM15.4809 6.88461C15.1487 6.53866 14.7495 6.26386 14.3078 6.07692C13.752 5.8544 13.1562 5.74963 12.5578 5.76923C11.9771 5.75868 11.4005 5.87006 10.8655 6.09615C10.4059 6.28846 10.0001 6.58461 9.6732 6.96154C9.35473 7.30792 9.10654 7.71285 8.94243 8.15385C8.78985 8.60181 8.69297 9.06684 8.65397 9.53846H11.0194C11.0303 9.23324 11.1275 8.93737 11.2997 8.68515C11.4719 8.43293 11.7121 8.2347 11.9924 8.11346C12.1782 8.04026 12.3777 8.00811 12.577 8.01923C12.749 7.99189 12.9243 7.99189 13.0963 8.01923C13.2543 8.07899 13.3983 8.17063 13.5194 8.28846C13.653 8.40407 13.7582 8.54882 13.827 8.71154C13.9058 8.89354 13.9451 9.09016 13.9424 9.28846C13.9424 9.62115 13.8713 9.94808 13.7309 10.25C13.5912 10.5632 13.4171 10.86 13.2117 11.1346L12.5386 11.9423C12.3078 12.1923 12.077 12.4615 11.8655 12.7308C11.6604 12.9988 11.4862 13.2891 11.3463 13.5962C11.2129 13.8988 11.1472 14.227 11.154 14.5577V15.8269H13.4617V14.8846C13.4682 14.6026 13.5406 14.326 13.6732 14.0769C13.8312 13.8001 14.0113 13.5364 14.2117 13.2885L14.904 12.4423C15.156 12.1511 15.3873 11.8427 15.5963 11.5192C15.8173 11.1894 15.998 10.8343 16.1347 10.4615C16.275 10.0664 16.3465 9.65009 16.3463 9.23077C16.3497 8.79389 16.2848 8.35915 16.154 7.94231C16.0087 7.54521 15.7791 7.18435 15.4809 6.88461ZM11.154 16.9808H13.404V19.2308H11.154V16.9808Z" fill="#90A4AE"/>
</svg>
