<svg width="17" height="16" viewBox="0 0 17 16" fill="none" xmlns="http://www.w3.org/2000/svg">
<path d="M6.44922 13.3262C6.36133 13.1504 6.21484 13.1211 6.15625 13.1211C6.06836 13.1211 5.92188 13.1504 5.83398 13.2969L5.62891 13.7656C5.42383 14.1172 4.89648 14.0879 4.75 13.707L4.28125 12.2129L3.95898 13.1504C3.7832 13.6777 3.31445 14 2.75781 14H2.40625C2.14258 14 1.9375 13.7949 1.9375 13.5312C1.9375 13.2969 2.14258 13.0625 2.40625 13.0625H2.75781C2.9043 13.0625 3.02148 12.9746 3.08008 12.8574L3.60742 11.2461C3.69531 10.9531 3.95898 10.7773 4.28125 10.7773C4.57422 10.7773 4.83789 10.9531 4.92578 11.2461L5.33594 12.4766C5.92188 12.0078 6.91797 12.1836 7.26953 12.8867C7.32812 13.0039 7.44531 13.0625 7.5625 13.0625V10.6602L11.3125 6.93945V5.5625H7.32812C6.91797 5.5625 6.625 5.26953 6.625 4.85938V0.875H0.765625C0.355469 0.875 0.0625 1.19727 0.0625 1.57812V15.1719C0.0625 15.582 0.355469 15.875 0.765625 15.875H10.6094C10.9902 15.875 11.3125 15.582 11.3125 15.1719V14H7.5625C7.06445 14 6.6543 13.7363 6.44922 13.3262ZM11.3125 4.44922C11.3125 4.27344 11.2246 4.09766 11.1074 3.95117L8.23633 1.08008C8.08984 0.962891 7.91406 0.875 7.73828 0.875H7.5625V4.625H11.3125V4.44922ZM8.5 11.041V13.0625H10.4922L15.2383 8.31641L13.2461 6.32422L8.5 11.041ZM16.7031 5.79688L15.7656 4.85938C15.4727 4.56641 15.0039 4.56641 14.7109 4.85938L13.9199 5.65039L15.9121 7.64258L16.7031 6.85156C16.9961 6.55859 16.9961 6.08984 16.7031 5.79688Z" fill="#546E7A"/>
</svg>
