<svg width="15" height="16" viewBox="0 0 15 16" fill="none" xmlns="http://www.w3.org/2000/svg">
<path d="M5.625 6.96875C5.625 6.4707 5.18555 6.03125 4.6875 6.03125H4.21875C3.16406 6.03125 2.34375 6.88086 2.34375 7.90625V9.3125C2.34375 10.3672 3.16406 11.1875 4.21875 11.1875H4.6875C5.18555 11.1875 5.625 10.7773 5.625 10.25V6.96875ZM10.7812 11.1875C11.8066 11.1875 12.6562 10.3672 12.6562 9.3125V7.90625C12.6562 6.88086 11.8066 6.03125 10.7812 6.03125H10.3125C9.78516 6.03125 9.375 6.4707 9.375 6.96875V10.25C9.375 10.7773 9.78516 11.1875 10.3125 11.1875H10.7812ZM7.5 0.875C3.31055 0.875 0.117188 4.36133 0 8.375V8.84375C0 9.10742 0.205078 9.3125 0.46875 9.3125H0.9375C1.17188 9.3125 1.40625 9.10742 1.40625 8.84375V8.375C1.40625 5.03516 4.13086 2.28125 7.5 2.28125C10.8398 2.28125 13.5938 5.03516 13.5938 8.375H13.5645C13.5645 8.46289 13.5938 13.2383 13.5938 13.2383C13.5938 13.9414 13.0371 14.4688 12.334 14.4688H9.375C9.375 13.707 8.73047 13.0625 7.96875 13.0625H7.03125C6.24023 13.0625 5.625 13.707 5.625 14.4688C5.625 15.2598 6.24023 15.875 7.03125 15.875H12.334C13.7988 15.875 15 14.7031 15 13.2383V8.375C14.8535 4.36133 11.6602 0.875 7.5 0.875Z" fill="#546E7A"/>
</svg>
