<svg width="19" height="16" viewBox="0 0 19 16" fill="none" xmlns="http://www.w3.org/2000/svg">
<path d="M18.3477 8.84375L14.9785 7.52539C14.8613 7.4668 14.5977 7.4082 14.3047 7.52539L10.9355 8.84375C10.6426 8.96094 10.4375 9.25391 10.4375 9.54688C10.4375 12.8281 12.4297 15.084 14.3047 15.8164C14.5977 15.9336 14.832 15.875 14.9785 15.8164C16.4727 15.2305 18.875 13.209 18.875 9.54688C18.875 9.25391 18.6699 8.96094 18.3477 8.84375ZM14.6562 14.4395V8.90234L17.4395 9.98633C17.2637 12.5352 15.6523 13.9414 14.6562 14.4395ZM6.6875 8.375C8.73828 8.375 10.4375 6.70508 10.4375 4.625C10.4375 2.57422 8.73828 0.875 6.6875 0.875C4.60742 0.875 2.9375 2.57422 2.9375 4.625C2.9375 6.70508 4.60742 8.375 6.6875 8.375ZM9.5 9.54688C9.5 9.48828 9.5 9.42969 9.5293 9.3418C9.44141 9.3418 9.38281 9.3125 9.29492 9.3125H8.79688C8.15234 9.63477 7.44922 9.78125 6.6875 9.78125C5.92578 9.78125 5.19336 9.63477 4.54883 9.3125H4.05078C1.88281 9.3125 0.125 11.0996 0.125 13.2676V14.4688C0.125 15.2598 0.740234 15.875 1.53125 15.875H11.8438C12.0195 15.875 12.2246 15.8457 12.4004 15.7578C10.8184 14.5273 9.5 12.3594 9.5 9.54688Z" fill="#546E7A"/>
</svg>
