<svg width="15" height="13" viewBox="0 0 15 13" fill="none" xmlns="http://www.w3.org/2000/svg">
<path d="M14.5605 6.87305C14.8242 6.60938 14.8242 6.16992 14.5605 5.87695L9.63867 0.955078C9.16992 0.515625 8.4375 0.837891 8.4375 1.45312V4.26562H4.45312C4.04297 4.26562 3.75 4.58789 3.75 4.96875V7.78125C3.75 8.19141 4.04297 8.48438 4.45312 8.48438H8.4375V11.2969C8.4375 11.9414 9.19922 12.2344 9.63867 11.7949L14.5605 6.87305ZM5.625 11.6484V10.4766C5.625 10.3008 5.44922 10.125 5.27344 10.125H2.8125C2.28516 10.125 1.875 9.71484 1.875 9.1875V3.5625C1.875 3.06445 2.28516 2.625 2.8125 2.625H5.27344C5.44922 2.625 5.625 2.47852 5.625 2.27344V1.10156C5.625 0.925781 5.44922 0.75 5.27344 0.75H2.8125C1.25977 0.75 0 2.00977 0 3.5625V9.1875C0 10.7402 1.25977 12 2.8125 12H5.27344C5.44922 12 5.625 11.8535 5.625 11.6484Z" fill="#546E7A"/>
</svg>
