<svg width="14" height="16" viewBox="0 0 14 16" fill="none" xmlns="http://www.w3.org/2000/svg">
<path d="M13.2988 11.5098C12.7422 10.8945 11.6582 9.98633 11.6582 6.96875C11.6582 4.71289 10.0762 2.89648 7.9082 2.42773V1.8125C7.9082 1.31445 7.49805 0.875 7 0.875C6.47266 0.875 6.0625 1.31445 6.0625 1.8125V2.42773C3.89453 2.89648 2.3125 4.71289 2.3125 6.96875C2.3125 9.98633 1.22852 10.8945 0.671875 11.5098C0.496094 11.6855 0.408203 11.9199 0.4375 12.125C0.4375 12.623 0.789062 13.0625 1.375 13.0625H12.5957C13.1816 13.0625 13.5332 12.623 13.5625 12.125C13.5625 11.9199 13.4746 11.6855 13.2988 11.5098ZM2.40039 11.6562C3.01562 10.8652 3.68945 9.48828 3.71875 6.99805C3.71875 6.99805 3.71875 6.99805 3.71875 6.96875C3.71875 5.18164 5.18359 3.6875 7 3.6875C8.78711 3.6875 10.2812 5.18164 10.2812 6.96875C10.2812 6.99805 10.252 6.99805 10.252 6.99805C10.2812 9.48828 10.9551 10.8652 11.5703 11.6562H2.40039ZM7 15.875C8.02539 15.875 8.8457 15.0547 8.8457 14H5.125C5.125 15.0547 5.94531 15.875 7 15.875Z" fill="#546E7A"/>
</svg>
