<svg width="14" height="16" viewBox="0 0 14 16" fill="none" xmlns="http://www.w3.org/2000/svg">
<path d="M13.5625 11.4219V1.57812C13.5625 1.19727 13.2402 0.875 12.8594 0.875H3.25C1.69727 0.875 0.4375 2.13477 0.4375 3.6875V13.0625C0.4375 14.6152 1.69727 15.875 3.25 15.875H12.8594C13.2402 15.875 13.5625 15.582 13.5625 15.1719V14.7031C13.5625 14.498 13.4453 14.293 13.2988 14.1758C13.1523 13.707 13.1523 12.418 13.2988 11.9785C13.4453 11.8613 13.5625 11.6562 13.5625 11.4219ZM4.1875 4.80078C4.1875 4.71289 4.24609 4.625 4.36328 4.625H10.5742C10.6621 4.625 10.75 4.71289 10.75 4.80078V5.38672C10.75 5.50391 10.6621 5.5625 10.5742 5.5625H4.36328C4.24609 5.5625 4.1875 5.50391 4.1875 5.38672V4.80078ZM4.1875 6.67578C4.1875 6.58789 4.24609 6.5 4.36328 6.5H10.5742C10.6621 6.5 10.75 6.58789 10.75 6.67578V7.26172C10.75 7.37891 10.6621 7.4375 10.5742 7.4375H4.36328C4.24609 7.4375 4.1875 7.37891 4.1875 7.26172V6.67578ZM11.5996 14H3.25C2.72266 14 2.3125 13.5898 2.3125 13.0625C2.3125 12.5645 2.72266 12.125 3.25 12.125H11.5996C11.541 12.6523 11.541 13.502 11.5996 14Z" fill="#546E7A"/>
</svg>
