<svg width="27" height="27" viewBox="0 0 27 27" fill="none" xmlns="http://www.w3.org/2000/svg">
<path d="M13.5842 7.59375C10.2936 7.59375 7.67798 10.2094 7.67798 13.5C7.67798 16.7906 10.2936 19.4062 13.5842 19.4062C16.8749 19.4062 19.4905 16.7906 19.4905 13.5C19.4905 10.2094 16.8749 7.59375 13.5842 7.59375ZM13.5842 17.7188C11.2217 17.7188 9.36548 15.8625 9.36548 13.5C9.36548 11.1375 11.2217 9.28125 13.5842 9.28125C15.9467 9.28125 17.803 11.1375 17.803 13.5C17.803 15.8625 15.9467 17.7188 13.5842 17.7188Z" fill="#90A4AE"/>
<path d="M25.9875 10.7156L23.625 9.95625L23.1187 8.69063L24.3 6.49687C24.5531 5.99062 24.4688 5.31563 24.0469 4.89375L22.0219 2.86875C21.6 2.44688 20.925 2.3625 20.4188 2.61562L18.225 3.79688L16.9594 3.29063L16.2 0.928125C16.0312 0.421875 15.525 0 14.9344 0H12.0656C11.475 0 10.9688 0.421875 10.8844 1.0125L10.125 3.375C9.61875 3.45937 9.19687 3.62812 8.775 3.88125L6.58125 2.7C6.075 2.44687 5.4 2.53125 4.97813 2.95312L2.95312 4.97813C2.53125 5.4 2.44687 6.075 2.7 6.58125L3.79688 8.69063C3.62812 9.1125 3.45938 9.61875 3.29063 10.0406L0.928125 10.8C0.421875 10.9688 0 11.475 0 12.0656V14.9344C0 15.525 0.421875 16.0312 1.0125 16.2L3.375 16.9594L3.88125 18.225L2.7 20.4188C2.44687 20.925 2.53125 21.6 2.95312 22.0219L4.97813 24.0469C5.4 24.4688 6.075 24.5531 6.58125 24.3L8.775 23.1187L10.0406 23.625L10.8 26.0719C10.9688 26.5781 11.475 27 12.0656 27H14.9344C15.525 27 16.0312 26.5781 16.2 26.0719L16.9594 23.625L18.225 23.1187L20.4188 24.3C20.925 24.5531 21.6 24.4688 22.0219 24.0469L24.0469 22.0219C24.4688 21.6 24.5531 20.925 24.3 20.4188L23.1187 18.225L23.625 16.9594L26.0719 16.2C26.5781 16.0312 27 15.525 27 14.9344V12.0656C27 11.475 26.5781 10.8844 25.9875 10.7156ZM25.3125 14.6812L22.275 15.6094L22.1906 16.0312L21.4312 17.8031L21.1781 18.225L22.6969 21.0094L21.0094 22.6969L18.225 21.1781L17.8031 21.4312C17.2125 21.7687 16.6219 22.0219 16.0312 22.1906L15.6094 22.275L14.6812 25.3125H12.3188L11.3906 22.275L10.9688 22.1906L9.19687 21.4312L8.775 21.1781L5.99063 22.6969L4.30312 21.0094L5.82187 18.225L5.56875 17.8031C5.23125 17.2125 4.97812 16.6219 4.80937 16.0312L4.725 15.6094L1.6875 14.6812V12.3188L4.55625 11.475L4.725 11.0531C4.89375 10.3781 5.14687 9.7875 5.48438 9.19687L5.7375 8.775L4.30312 5.99063L5.99063 4.30312L8.69063 5.82187L9.1125 5.56875C9.70312 5.23125 10.2937 4.97812 10.9688 4.80937L11.3906 4.64062L12.3188 1.6875H14.6812L15.6094 4.64062L16.0312 4.80937C16.6219 4.97812 17.2125 5.23125 17.8031 5.56875L18.225 5.82187L21.0094 4.30312L22.6969 5.99063L21.1781 8.775L21.4312 9.19687C21.7687 9.7875 22.0219 10.3781 22.1906 10.9688L22.275 11.3906L25.3125 12.3188V14.6812Z" fill="#90A4AE"/>
</svg>
