<svg width="6" height="16" viewBox="0 0 6 16" fill="none" xmlns="http://www.w3.org/2000/svg">
<path d="M0.773438 13.3262C0.421875 13.3262 0.1875 13.5898 0.1875 13.9121V15.2891C0.1875 15.6406 0.421875 15.875 0.773438 15.875H5.22656C5.54883 15.875 5.8125 15.6406 5.8125 15.2891V13.9121C5.8125 13.5898 5.54883 13.3262 5.22656 13.3262H4.64062V7.08594C4.64062 6.76367 4.37695 6.5 4.05469 6.5H0.773438C0.421875 6.5 0.1875 6.76367 0.1875 7.08594V8.49219C0.1875 8.81445 0.421875 9.07812 0.773438 9.07812H1.35938V13.3262H0.773438ZM3 0.875C1.82812 0.875 0.890625 1.8418 0.890625 2.98438C0.890625 4.15625 1.82812 5.09375 3 5.09375C4.14258 5.09375 5.10938 4.15625 5.10938 2.98438C5.10938 1.8418 4.14258 0.875 3 0.875Z" fill="#546E7A"/>
</svg>
