<svg width="36" height="36" viewBox="0 0 36 36" fill="none" xmlns="http://www.w3.org/2000/svg">
<g clip-path="url(#clip0)">
<path d="M23.7 10.41C23.5684 10.4108 23.4379 10.3856 23.3161 10.3358C23.1943 10.286 23.0834 10.2127 22.99 10.12L15.56 2.69004C15.373 2.49908 15.2696 2.24167 15.2724 1.97443C15.2752 1.70719 15.384 1.45202 15.575 1.26504C15.766 1.07806 16.0234 0.974599 16.2906 0.977412C16.5578 0.980225 16.813 1.08908 17 1.28004L24.44 8.71004C24.5776 8.85042 24.6708 9.02825 24.7079 9.2213C24.745 9.41434 24.7244 9.61404 24.6486 9.79543C24.5729 9.97683 24.4453 10.1319 24.2819 10.2412C24.1186 10.3505 23.9266 10.4092 23.73 10.41H23.7Z" fill="white"/>
<path d="M11.86 22.2501C11.8608 22.1185 11.8355 21.988 11.7858 21.8662C11.736 21.7443 11.6627 21.6335 11.57 21.5401L4.14 14.1101C3.9517 13.9218 3.6963 13.816 3.43 13.816C3.1637 13.816 2.90831 13.9218 2.72 14.1101C2.5317 14.2984 2.42591 14.5538 2.42591 14.8201C2.42591 15.0864 2.5317 15.3418 2.72 15.5301L10.15 23.0001C10.243 23.0938 10.3536 23.1682 10.4754 23.219C10.5973 23.2697 10.728 23.2959 10.86 23.2959C10.992 23.2959 11.1227 23.2697 11.2446 23.219C11.3664 23.1682 11.477 23.0938 11.57 23.0001C11.6676 22.9019 11.7438 22.7846 11.7937 22.6555C11.8436 22.5264 11.8662 22.3883 11.86 22.2501Z" fill="white"/>
<path d="M21.93 34.0001H3C2.84252 34.006 2.68589 33.9745 2.54287 33.9084C2.39984 33.8422 2.27447 33.7432 2.17699 33.6194C2.0795 33.4956 2.01265 33.3505 1.9819 33.196C1.95114 33.0414 1.95734 32.8818 2 32.7301L3.13 28.7301C3.19049 28.5138 3.32203 28.3241 3.50344 28.1917C3.68484 28.0593 3.90555 27.9918 4.13 28.0001H20.8C21.0244 27.9918 21.2452 28.0593 21.4266 28.1917C21.608 28.3241 21.7395 28.5138 21.8 28.7301L22.93 32.7301C22.9704 32.8784 22.9762 33.0341 22.9467 33.1849C22.9172 33.3358 22.8533 33.4779 22.76 33.6001C22.6639 33.7284 22.5383 33.8317 22.3938 33.9014C22.2494 33.971 22.0903 34.0048 21.93 34.0001ZM4.31 32.0001H20.6L20 30.0001H4.87L4.31 32.0001Z" fill="white"/>
<path d="M33.11 27.4401L19.11 13.4401L21.47 11.0801L14.52 4.13007L5.58 13.0701L12.51 20.0001L14.86 17.6601L28.86 31.6601C29.4225 32.2219 30.185 32.5374 30.98 32.5374C31.775 32.5374 32.5375 32.2219 33.1 31.6601C33.657 31.0997 33.9706 30.3422 33.9724 29.5521C33.9743 28.762 33.6644 28.003 33.11 27.4401ZM8.4 13.0701L14.52 7.00007L18.63 11.1101L12.51 17.2201L8.4 13.0701ZM31.69 30.2701C31.5026 30.4563 31.2492 30.5609 30.985 30.5609C30.7208 30.5609 30.4674 30.4563 30.28 30.2701L16.28 16.2701L17.69 14.8601L31.69 28.8601C31.8763 29.0474 31.9808 29.3009 31.9808 29.5651C31.9808 29.8293 31.8763 30.0827 31.69 30.2701Z" fill="white"/>
</g>
<defs>
<clipPath id="clip0">
<rect width="36" height="36" fill="white"/>
</clipPath>
</defs>
</svg>
