<svg width="22" height="22" viewBox="0 0 22 22" fill="none" xmlns="http://www.w3.org/2000/svg">
<path d="M16.9583 1.83331H5.95833C4.18917 1.83331 2.75 3.27248 2.75 5.04165V20.1666L9.16667 16.9583L15.5833 20.1666V11.9166H20.1667V5.04165C20.1667 3.27248 18.7275 1.83331 16.9583 1.83331ZM13.75 17.2003L9.16667 14.9086L4.58333 17.2003V5.04165C4.58333 4.28356 5.20025 3.66665 5.95833 3.66665H14.0727C13.8629 4.09481 13.7526 4.56485 13.75 5.04165V17.2003ZM18.3333 10.0833H15.5833V5.04165C15.5833 4.28356 16.2003 3.66665 16.9583 3.66665C17.7164 3.66665 18.3333 4.28356 18.3333 5.04165V10.0833Z" fill="#546E7A"/>
<path d="M10.0833 6.41669H8.24996V8.25002H6.41663V10.0834H8.24996V11.9167H10.0833V10.0834H11.9166V8.25002H10.0833V6.41669Z" fill="#546E7A"/>
</svg>
