<svg width="19" height="19" viewBox="0 0 19 19" fill="none" xmlns="http://www.w3.org/2000/svg">
<path d="M14.25 6.33331C15.5617 6.33331 16.625 5.26999 16.625 3.95831C16.625 2.64664 15.5617 1.58331 14.25 1.58331C12.9383 1.58331 11.875 2.64664 11.875 3.95831C11.875 5.26999 12.9383 6.33331 14.25 6.33331Z" stroke="#546E7A" stroke-width="2" stroke-linecap="round" stroke-linejoin="round"/>
<path d="M4.75 11.875C6.06168 11.875 7.125 10.8117 7.125 9.5C7.125 8.18832 6.06168 7.125 4.75 7.125C3.43832 7.125 2.375 8.18832 2.375 9.5C2.375 10.8117 3.43832 11.875 4.75 11.875Z" stroke="#546E7A" stroke-width="2" stroke-linecap="round" stroke-linejoin="round"/>
<path d="M14.25 17.4166C15.5617 17.4166 16.625 16.3533 16.625 15.0416C16.625 13.7299 15.5617 12.6666 14.25 12.6666C12.9383 12.6666 11.875 13.7299 11.875 15.0416C11.875 16.3533 12.9383 17.4166 14.25 17.4166Z" stroke="#546E7A" stroke-width="2" stroke-linecap="round" stroke-linejoin="round"/>
<path d="M6.80042 10.6954L12.2075 13.8462" stroke="#546E7A" stroke-width="2" stroke-linecap="round" stroke-linejoin="round"/>
<path d="M12.1996 5.15375L6.80042 8.30458" stroke="#546E7A" stroke-width="2" stroke-linecap="round" stroke-linejoin="round"/>
</svg>
