<svg width="30" height="24" viewBox="0 0 30 24" fill="none" xmlns="http://www.w3.org/2000/svg">
<path d="M12 15.75H11.9531C11.9531 15 12.0469 15.375 7.96875 7.26562C7.17188 5.625 4.78125 5.625 3.98438 7.26562C-0.140625 15.4219 0 15.0469 0 15.75C0 17.8594 2.67188 19.5 6 19.5C9.28125 19.5 12 17.8594 12 15.75ZM6 8.25L9.375 15H2.625L6 8.25ZM29.9531 15.75C29.9531 15 30.0469 15.375 25.9688 7.26562C25.1719 5.625 22.7812 5.625 21.9844 7.26562C17.8594 15.4219 18 15.0469 18 15.75C18 17.8594 20.6719 19.5 24 19.5C27.2812 19.5 30 17.8594 30 15.75H29.9531ZM20.625 15L24 8.25L27.375 15H20.625ZM24.75 21H16.5V7.21875C17.5781 6.70312 18.4219 5.71875 18.6562 4.5H24.75C25.125 4.5 25.5 4.17188 25.5 3.75V2.25C25.5 1.875 25.125 1.5 24.75 1.5H17.9531C17.2969 0.609375 16.2188 0 15 0C13.7344 0 12.6562 0.609375 12 1.5H5.25C4.82812 1.5 4.5 1.875 4.5 2.25V3.75C4.5 4.17188 4.82812 4.5 5.25 4.5H11.2969C11.5312 5.71875 12.375 6.70312 13.5 7.21875V21H5.25C4.82812 21 4.5 21.375 4.5 21.75V23.25C4.5 23.6719 4.82812 24 5.25 24H24.75C25.125 24 25.5 23.6719 25.5 23.25V21.75C25.5 21.375 25.125 21 24.75 21Z" fill="#FFB300"/>
</svg>
