<svg width="28" height="28" viewBox="0 0 28 28" fill="none" xmlns="http://www.w3.org/2000/svg">
<path d="M4.66668 6.99992H2.33334V23.3333C2.33334 24.6166 3.38334 25.6666 4.66668 25.6666H21V23.3333H4.66668V6.99992ZM23.3333 2.33325H9.33334C8.05001 2.33325 7.00001 3.38325 7.00001 4.66659V18.6666C7.00001 19.9499 8.05001 20.9999 9.33334 20.9999H23.3333C24.6167 20.9999 25.6667 19.9499 25.6667 18.6666V4.66659C25.6667 3.38325 24.6167 2.33325 23.3333 2.33325ZM23.3333 18.6666H9.33334V4.66659H23.3333V18.6666ZM11.6667 10.4999H21V12.8333H11.6667V10.4999ZM11.6667 13.9999H16.3333V16.3333H11.6667V13.9999ZM11.6667 6.99992H21V9.33325H11.6667V6.99992Z" fill="#546E7A"/>
</svg>
