<svg width="49" height="55" viewBox="0 0 49 55" fill="none" xmlns="http://www.w3.org/2000/svg">
<path d="M41.5512 27.4839H7.44431C6.40296 27.4839 5.55884 26.6398 5.55884 25.5984V1.88547C5.55884 0.844123 6.40296 0 7.44431 0H41.5513C42.5927 0 43.4368 0.844123 43.4368 1.88547V25.5984C43.4367 26.6398 42.5926 27.4839 41.5512 27.4839Z" fill="#F6F7F6"/>
<path d="M41.5505 0H38.2096C39.2509 0 40.0951 0.844234 40.0951 1.88547V25.5984C40.0951 26.6398 39.2509 27.4839 38.2096 27.4839H41.5505C42.5918 27.4839 43.4359 26.6398 43.4359 25.5984V1.88547C43.4359 0.844234 42.5918 0 41.5505 0V0Z" fill="#F1F1F1"/>
<path d="M16.7016 55H16.4124L10.9164 53.8864L5.3025 55H5.01162C2.24383 55 0 52.7563 0 49.9884V38.2984C0 35.5306 2.24372 33.2867 5.01162 33.2867H16.7016C19.4694 33.2867 21.7132 35.5305 21.7132 38.2984V49.9884C21.7131 52.7561 19.4694 55 16.7016 55Z" fill="#EDF6FF"/>
<path d="M43.9827 55H43.5257L37.5374 53.8864L32.4157 55H32.2927C29.525 55 27.2811 52.7563 27.2811 49.9884V38.2984C27.2811 35.5306 29.5248 33.2867 32.2927 33.2867H43.9827C46.7505 33.2867 48.9944 35.5305 48.9944 38.2984V49.9884C48.9944 52.7561 46.7505 55 43.9827 55Z" fill="#EDF6FF"/>
<path d="M16.7018 33.2867H13.3609C16.1287 33.2867 18.3725 35.5305 18.3725 38.2982V49.9882C18.3725 51.82 17.3893 53.4216 15.9222 54.2958L16.4126 54.9999H16.7018C19.4695 54.9999 21.7134 52.7561 21.7134 49.9882V38.2984C21.7133 35.5306 19.4695 33.2867 16.7018 33.2867Z" fill="#DDEBFD"/>
<path d="M43.9829 33.2867H40.642C43.4098 33.2867 45.6536 35.5305 45.6536 38.2982V49.9882C45.6536 51.8533 44.634 53.4793 43.1226 54.3423L43.5259 54.9999H43.9829C46.7507 54.9999 48.9945 52.7561 48.9945 49.9882V38.2984C48.9945 35.5306 46.7507 33.2867 43.9829 33.2867Z" fill="#DDEBFD"/>
<path d="M16.4122 55L16.4107 54.0984C16.4084 52.1816 14.9287 50.6116 13.0501 50.4644L8.63997 50.4707C6.76775 50.6285 5.29845 52.1993 5.30078 54.1119L5.30234 55H16.4122Z" fill="#E6989E"/>
<path d="M16.0861 44.8158L16.0874 45.8947C16.0908 48.6168 13.8867 50.8261 11.1647 50.8295L10.5387 50.8302C7.81658 50.8336 5.60727 48.6295 5.60393 45.9075L5.59992 42.5646C5.59647 39.7388 7.8844 37.4453 10.7102 37.4419L10.9607 37.4415C13.7865 37.4381 16.08 39.726 16.0834 42.5518L16.0861 44.8158Z" fill="#FEE5D0"/>
<path d="M16.0845 43.4486L16.0834 42.5518C16.08 39.7261 13.7865 37.4382 10.9608 37.4415L10.7103 37.4419C7.88451 37.4452 5.59658 39.7388 5.59992 42.5646L5.60103 43.4486H8.79756C9.65271 43.4486 10.4818 43.1544 11.1456 42.6152L12.6003 41.4337C12.6525 41.3914 12.7292 41.4009 12.7694 41.4546L13.1474 41.9586C13.8417 42.8848 14.9271 43.4354 16.0845 43.4486Z" fill="#A59DA7"/>
<path d="M43.5257 55L43.5242 54.0984C43.5218 52.1816 42.0421 50.6116 40.1636 50.4644L35.7534 50.4707C33.8812 50.6285 32.4119 52.1993 32.4142 54.1119L32.4158 55H43.5257Z" fill="#77D1B3"/>
<path d="M43.1996 44.8158L43.2009 45.8947C43.2042 48.6168 41.0002 50.8261 38.2781 50.8295L37.6522 50.8302C34.93 50.8336 32.7207 48.6295 32.7174 45.9075L32.7134 42.5646C32.7099 39.7388 34.9979 37.4453 37.8237 37.4419L38.0741 37.4415C40.8999 37.4381 43.1934 39.726 43.1968 42.5518L43.1996 44.8158Z" fill="#FEE5D0"/>
<path d="M43.198 43.4486L43.1969 42.5518C43.1934 39.7261 40.9 37.4382 38.0742 37.4415L37.8238 37.4419C34.998 37.4452 32.7099 39.7388 32.7134 42.5646L32.7145 43.4486H35.911C36.7662 43.4486 37.5953 43.1544 38.2591 42.6152L39.7138 41.4337C39.7659 41.3914 39.8427 41.4009 39.8829 41.4546L40.2608 41.9586C40.9552 42.8848 42.0406 43.4354 43.198 43.4486Z" fill="#D6995C"/>
<path d="M14.7177 22.001H10.9047V14.8969C10.9047 14.4693 11.2514 14.1224 11.6792 14.1224H13.9432C14.3709 14.1224 14.7177 14.4691 14.7177 14.8969V22.001Z" fill="#DC4955"/>
<path d="M22.5083 22H18.6957V7.1015C18.6957 6.67387 19.0423 6.32709 19.4701 6.32709H21.7339C22.1615 6.32709 22.5083 6.67376 22.5083 7.1015V22Z" fill="#9EC8FC"/>
<path d="M30.2989 22.0001H26.4863V10.4424C26.4863 10.0148 26.833 9.66803 27.2607 9.66803H29.5245C29.9521 9.66803 30.2989 10.0147 30.2989 10.4424V22.0001Z" fill="#F8E883"/>
<path d="M38.09 22.0008H34.277V17.1242C34.277 16.6966 34.6237 16.3497 35.0515 16.3497H37.3155C37.7432 16.3497 38.09 16.6964 38.09 17.1242V22.0008Z" fill="#77D1B3"/>
<path d="M10.9164 48.424C9.81387 48.4241 8.91619 47.5205 8.91486 46.4087C8.9143 45.9474 9.28785 45.5729 9.74916 45.5724H9.75017C10.211 45.5724 10.5849 45.9457 10.5855 46.4067C10.5857 46.5979 10.7342 46.7534 10.9165 46.7534H10.9168C11.0992 46.7531 11.2475 46.5972 11.2473 46.4058C11.2467 45.9445 11.6203 45.57 12.0816 45.5695H12.0826C12.5436 45.5695 12.9173 45.9428 12.9179 46.4038C12.9192 47.5164 12.0224 48.4225 10.9188 48.4239C10.918 48.424 10.9172 48.424 10.9164 48.424Z" fill="#FEC99D"/>
<path d="M38.0297 48.4239C37.4938 48.4239 36.9905 48.2132 36.6121 47.8305C36.2363 47.4504 36.029 46.9453 36.0283 46.4086C36.0278 45.9473 36.4013 45.5729 36.8626 45.5723H36.8636C37.3246 45.5723 37.6984 45.9456 37.6989 46.4066C37.6991 46.5346 37.7624 46.6179 37.8002 46.656C37.8362 46.6923 37.9138 46.7533 38.0298 46.7533H38.0302C38.1464 46.7532 38.2241 46.692 38.2599 46.6555C38.2976 46.6172 38.3607 46.5339 38.3606 46.4058C38.3601 45.9445 38.7336 45.5701 39.1949 45.5695H39.1959C39.6568 45.5695 40.0307 45.9428 40.0312 46.4038C40.0319 46.9405 39.8258 47.4461 39.4509 47.8272C39.0729 48.2114 38.569 48.4234 38.0322 48.4239C38.0314 48.4239 38.0305 48.4239 38.0297 48.4239Z" fill="#FEC99D"/>
<path d="M39.2034 22.8353H9.79121C9.32995 22.8353 8.95599 22.4614 8.95599 22.0001C8.95599 21.5389 9.32995 21.1649 9.79121 21.1649H39.2034C39.6647 21.1649 40.0387 21.5389 40.0387 22.0001C40.0387 22.4614 39.6648 22.8353 39.2034 22.8353Z" fill="#E3E0E4"/>
</svg>
