<svg width="60" height="53" viewBox="0 0 60 53" fill="none" xmlns="http://www.w3.org/2000/svg">
<path d="M35.9024 14.0014C34.8767 14.0014 34.0423 13.167 34.0423 12.1413V5.41182C34.0423 4.61281 33.3921 3.9628 32.5931 3.9628H22.3485C21.5495 3.9628 20.8993 4.61281 20.8993 5.41182V12.1413C20.8993 13.167 20.0649 14.0014 19.0392 14.0014C18.0135 14.0014 17.1791 13.167 17.1791 12.1413V5.41182C17.1791 2.56153 19.4979 0.242554 22.3483 0.242554H32.593C35.4434 0.242554 37.7623 2.56142 37.7623 5.41182V12.1413C37.7625 13.167 36.9281 14.0014 35.9024 14.0014Z" fill="#365E7D"/>
<path d="M-3.05176e-05 18.6193V42.5493C-3.05176e-05 45.4973 2.38977 47.8869 5.33757 47.8869H43.3544C46.3023 47.8869 48.692 45.4971 48.692 42.5493V18.6193H-3.05176e-05Z" fill="#DDB7A0"/>
<path d="M49.6039 9.44666H42.0043C44.9522 9.44666 47.3419 11.8365 47.3419 14.7843V42.5493C47.3419 45.4972 44.9521 47.8869 42.0043 47.8869H49.6039C52.5519 47.8869 54.9415 45.4971 54.9415 42.5493V14.7843C54.9415 11.8363 52.5519 9.44666 49.6039 9.44666Z" fill="#D6A889"/>
<path d="M48.6921 27.5456V14.7843C48.6921 11.8363 46.3023 9.44666 43.3545 9.44666H5.3376C2.38969 9.44666 0 11.8365 0 14.7843V18.4965C0 23.8383 4.3303 28.1686 9.6721 28.1686H45.2695C46.4746 28.1686 47.6281 27.9482 48.6921 27.5456Z" fill="#CC9675"/>
<path d="M49.6039 9.44666H42.0043C44.9522 9.44666 47.3419 11.8365 47.3419 14.7843V27.9436C51.6874 26.9946 54.9415 23.1265 54.9415 18.4965V14.7843C54.9415 11.8363 52.5519 9.44666 49.6039 9.44666Z" fill="#C4845C"/>
<path d="M12.2776 34.8107C10.8999 34.8107 9.78326 33.694 9.78326 32.3164V26.5196C9.78326 25.1419 10.8999 24.0253 12.2776 24.0253C13.6552 24.0253 14.7719 25.1419 14.7719 26.5196V32.3164C14.7719 33.6939 13.6551 34.8107 12.2776 34.8107Z" fill="#F4FBFF"/>
<path d="M9.78326 30.4497V32.3164C9.78326 33.694 10.8999 34.8106 12.2776 34.8106C13.6552 34.8106 14.7719 33.6939 14.7719 32.3164V30.4497H9.78326Z" fill="#E4F6FF"/>
<path d="M36.2331 35.9392L38.7928 38.4989L33.4312 43.8606L30.8714 41.3008L36.2331 35.9392Z" fill="#F4FBFF"/>
<path d="M32.8733 45.1959L29.5436 41.8661L28.5058 42.2367L22.7844 47.958C21.6807 49.0618 21.6807 50.8512 22.7844 51.9549C23.8882 53.0587 25.6776 53.0587 26.7814 51.9549L32.5027 46.2336L32.8733 45.1959Z" fill="#407093"/>
<path d="M34.1211 43.0921L31.6473 40.6183C31.2268 40.1977 30.5449 40.1977 30.1242 40.6183L28.5057 42.237L32.5026 46.2339L34.1213 44.6152C34.5418 44.1946 34.5418 43.5127 34.1211 43.0921Z" fill="#4A80AA"/>
<path d="M45.6276 43.127C53.368 43.127 59.6429 36.8522 59.6429 29.1117C59.6429 21.3713 53.368 15.0964 45.6276 15.0964C37.8871 15.0964 31.6122 21.3713 31.6122 29.1117C31.6122 36.8522 37.8871 43.127 45.6276 43.127Z" fill="#E4F6FF"/>
<path d="M45.6278 39.0221C51.1011 39.0221 55.5381 34.5851 55.5381 29.1117C55.5381 23.6384 51.1011 19.2014 45.6278 19.2014C40.1544 19.2014 35.7174 23.6384 35.7174 29.1117C35.7174 34.5851 40.1544 39.0221 45.6278 39.0221Z" fill="#CBE2FF"/>
<path d="M52.6354 22.1041C49.7134 19.1822 45.4215 18.4677 41.8279 19.9577C42.9942 20.4413 44.0874 21.1557 45.0357 22.1041C48.9059 25.9743 48.9059 32.2491 45.0357 36.1194C44.0873 37.0678 42.9942 37.7822 41.8279 38.2658C45.4215 39.7558 49.7134 39.0414 52.6354 36.1194C56.5055 32.2491 56.5055 25.9743 52.6354 22.1041Z" fill="#BED8FB"/>
</svg>
