<svg width="54" height="54" viewBox="0 0 54 54" fill="none" xmlns="http://www.w3.org/2000/svg">
<path d="M41.7797 48.0214C38.9742 52.5717 33.5951 54.8631 28.3774 53.7007C22.5127 52.3941 16.1356 48.839 10.6486 43.352C5.16079 37.8642 1.60565 31.487 0.299204 25.6221C-0.863064 20.4044 1.42814 15.0252 5.9785 12.2198C6.99849 11.5909 8.31695 11.7452 9.16429 12.5925L15.4575 18.8857C16.638 20.0662 16.4073 22.0395 14.9861 22.9156L12.4145 24.5011C11.3353 25.1665 10.8959 26.5159 11.3803 27.6875C12.4317 30.2303 14.3315 33.7495 17.7318 37.0209C20.7734 39.947 23.9434 41.6438 26.3227 42.6252C27.4907 43.107 28.8359 42.6625 29.499 41.5871L31.0851 39.0146C31.9613 37.5934 33.9344 37.3626 35.1149 38.5431L41.4072 44.8354C42.2545 45.6827 42.4087 47.0012 41.7799 48.0212L41.7797 48.0214Z" fill="#B5ADB6"/>
<path d="M30.7407 39.5736L40.6911 49.524C41.0859 49.0549 41.4511 48.5542 41.7797 48.0212L41.7799 48.0208C42.4088 47.0009 42.2546 45.6824 41.4072 44.8351L35.1149 38.5428C33.9344 37.3623 31.9612 37.593 31.0851 39.0142L30.7406 39.5729L30.7407 39.5736Z" fill="#918291"/>
<path d="M14.4271 23.2601L14.9861 22.9155C16.4072 22.0393 16.6381 20.0662 15.4576 18.8857L9.16433 12.5924C8.31699 11.7451 6.99852 11.5909 5.97853 12.2197C5.44539 12.5484 4.94462 12.9136 4.47549 13.3086L14.4269 23.26L14.4271 23.2601Z" fill="#918291"/>
<path d="M54 17.2898C54 7.65612 46.121 -0.137299 36.4554 0.00170903C27.0929 0.136393 19.4798 7.81464 19.4205 17.178C19.3874 22.4217 21.6893 27.1278 25.3468 30.3199C25.7328 30.6568 25.6773 31.2716 25.2363 31.5325L21.9784 33.46C21.4516 33.7717 21.6728 34.5792 22.2847 34.579L37.0374 34.5754C46.4352 34.4008 54 26.7292 54 17.2898Z" fill="#FD8087"/>
<path d="M36.7103 23.5839C36.0772 23.5839 35.5502 23.0977 35.4994 22.4667L34.3349 8.01346C34.2231 6.62633 35.3187 5.43896 36.7103 5.43896C38.1018 5.43896 39.1975 6.62633 39.0857 8.01346L37.9212 22.4666C37.8703 23.0977 37.3433 23.5839 36.7103 23.5839Z" fill="white"/>
<path d="M36.7103 30.1031C37.6104 30.1031 38.3401 29.3734 38.3401 28.4733C38.3401 27.5732 37.6104 26.8435 36.7103 26.8435C35.8102 26.8435 35.0805 27.5732 35.0805 28.4733C35.0805 29.3734 35.8102 30.1031 36.7103 30.1031Z" fill="white"/>
<path d="M36.4555 0.00170903C35.9933 0.00835358 35.5354 0.034088 35.0824 0.0768029C43.8659 0.899144 50.7405 8.29115 50.7405 17.2898C50.7405 26.7292 43.1757 34.4008 33.7781 34.5755L22.2755 34.5783C22.2787 34.5783 22.2817 34.5792 22.285 34.5792L37.0377 34.5756C46.4353 34.4008 54.0001 26.7292 54.0001 17.2898C54.0001 7.65612 46.1211 -0.137299 36.4555 0.00170903Z" fill="#FE646F"/>
</svg>
