<svg width="50" height="54" viewBox="0 0 50 54" fill="none" xmlns="http://www.w3.org/2000/svg">
<path d="M35.9377 53.6663H0.729128C0.326441 53.6663 0 53.3399 0 52.9372V4.39527C0 3.99258 0.326441 3.66614 0.729128 3.66614H10L11.7872 5.33699H25.0546L26.6667 3.66614H35.9376C36.3403 3.66614 36.6667 3.99258 36.6667 4.39527V52.9371C36.6668 53.3399 36.3404 53.6663 35.9377 53.6663Z" fill="#E2A76E"/>
<path d="M36.6668 24.2111C34.944 23.2635 32.9649 22.7245 30.8599 22.7245C24.1955 22.7245 18.7929 28.127 18.7929 34.7915C18.7929 41.4559 24.1954 46.8584 30.8599 46.8584C32.9649 46.8584 34.944 46.3194 36.6668 45.3718V24.2111Z" fill="#D6995C"/>
<path d="M32.6043 50.333H5.5168L3.99115 48.9282V9.40938L5.5168 6.68921H32.6043C33.007 6.68921 33.3335 7.01565 33.3335 7.41834V49.6038C33.3335 50.0065 33.007 50.333 32.6043 50.333Z" fill="#F9F8F9"/>
<path d="M30.0001 32.8613H6.66667C6.22221 32.8613 5.86182 33.2217 5.86182 33.6662C5.86182 34.1106 6.22211 34.471 6.66667 34.471H30.0001C30.4446 34.471 30.805 34.1107 30.805 33.6662C30.805 33.2216 30.4446 32.8613 30.0001 32.8613Z" fill="#DCDBDD"/>
<path d="M33.3334 22.9784C32.535 22.8121 31.7076 22.7246 30.8598 22.7246C24.1954 22.7246 18.7929 28.1271 18.7929 34.7916C18.7929 41.456 24.1954 46.8585 30.8598 46.8585C31.7075 46.8585 32.5349 46.7711 33.3334 46.6047V22.9784Z" fill="#E8E8E8"/>
<path d="M30.0001 32.8613H18.9465C18.862 33.3873 18.8115 33.9246 18.7972 34.471H30.0001C30.4446 34.471 30.805 34.1107 30.805 33.6662C30.805 33.2217 30.4446 32.8613 30.0001 32.8613Z" fill="#D1D1D1"/>
<path d="M30.0002 33.6662H26.6668V19.4173C26.6668 19.0025 27.0031 18.6661 27.418 18.6661H29.249C29.6638 18.6661 30.0002 19.0025 30.0002 19.4173V33.6662Z" fill="#FEE07D"/>
<path d="M29.4067 18.6828C29.3558 18.672 29.3031 18.6661 29.2491 18.6661H27.418C27.0031 18.6661 26.6668 19.0025 26.6668 19.4173V33.6662H28.8131V19.4173C28.8131 19.0565 29.0674 18.7552 29.4067 18.6828Z" fill="#FFCF64"/>
<path d="M23.3335 25.359V22.7507C23.3335 22.3358 22.9972 21.9995 22.5823 21.9995H20.7513C20.3365 21.9995 20.0001 22.3358 20.0001 22.7507V29.5245C20.7903 27.8984 21.9349 26.4765 23.3335 25.359Z" fill="#FFA95F"/>
<path d="M26.6668 23.4729V33.666H30.0002V22.7546C28.8357 22.8366 27.7169 23.0839 26.6668 23.4729Z" fill="#F7D36F"/>
<path d="M22.7399 22.0162C22.689 22.0053 22.6363 21.9995 22.5823 21.9995H20.7513C20.3365 21.9995 20.0001 22.3358 20.0001 22.7507V33.6662H22.1464V22.7507C22.1463 22.3899 22.4007 22.0886 22.7399 22.0162Z" fill="#FF9161"/>
<path d="M28.8131 19.4173C28.8131 19.0565 29.0674 18.7552 29.4066 18.6828C29.3557 18.672 29.303 18.6661 29.249 18.6661H27.418C27.0031 18.6661 26.6668 19.0025 26.6668 19.4173V23.4731C27.3548 23.2181 28.0725 23.024 28.8131 22.8975V19.4173Z" fill="#FFCF64"/>
<path d="M26.6668 23.473V33.6661H28.8131V22.8975C28.0725 23.024 27.3549 23.2181 26.6668 23.473Z" fill="#F4C15D"/>
<path d="M20.0001 29.5245V33.6662H22.1464V26.4437C21.2802 27.3477 20.5532 28.3861 20.0001 29.5245Z" fill="#F48058"/>
<path d="M23.3335 33.6662H20.0001V22.7507C20.0001 22.3358 20.3365 21.9995 20.7513 21.9995H22.5823C22.9972 21.9995 23.3335 22.3358 23.3335 22.7507V33.6662Z" fill="#FFA95F"/>
<path d="M23.3335 25.359C21.9349 26.4765 20.7903 27.8985 20.0001 29.5246V33.6663H23.3335V25.359Z" fill="#F79C57"/>
<path d="M23.3335 25.359C21.9349 26.4765 20.7903 27.8985 20.0001 29.5246V33.6663H23.3335V25.359Z" fill="#F99B55"/>
<path d="M49.7799 51.0892L41.5655 42.8737L39.2084 45.2307L47.4228 53.4462C47.7161 53.7395 48.1918 53.7395 48.4851 53.4462L49.7799 52.1515C50.0733 51.8582 50.0733 51.3825 49.7799 51.0892Z" fill="#857E87"/>
<path d="M48.5116 52.3887L40.2804 44.1589L39.2086 45.2307L47.4229 53.4462C47.7162 53.7395 48.1919 53.7395 48.4853 53.4462L49.4302 52.5012C49.1414 52.6754 48.7608 52.6379 48.5116 52.3887Z" fill="#6F6571"/>
<path d="M4.06249 50.333C3.65981 50.333 3.33337 50.0065 3.33337 49.6038V7.41823C3.33337 7.01555 3.65981 6.6891 4.06249 6.6891H5.51679V3.66614H0.729128C0.326441 3.66614 0 3.99258 0 4.39527V52.9371C0 53.3398 0.326441 53.6662 0.729128 53.6662H5.51679V50.333H4.06249Z" fill="#D6995C"/>
<path d="M3.33325 7.41822V49.6038C3.33325 50.0065 3.65969 50.3329 4.06238 50.3329H5.51658V6.68909H4.06238C3.65969 6.68909 3.33325 7.01553 3.33325 7.41822Z" fill="#E8E8E8"/>
<path d="M10.0001 33.6661H6.66669V25.7226C6.66669 25.3078 7.00302 24.9714 7.4179 24.9714H9.24884C9.66372 24.9714 10.0001 25.3078 10.0001 25.7226V33.6661Z" fill="#FF7D92"/>
<path d="M9.40644 24.9882C9.35561 24.9774 9.3029 24.9717 9.24884 24.9717H7.4179C7.00302 24.9717 6.66669 25.308 6.66669 25.7229V33.6663H8.81293V25.7229C8.81293 25.3621 9.06729 25.0607 9.40644 24.9882Z" fill="#E15F78"/>
<path d="M16.6668 33.6661H13.3334V29.4172C13.3334 29.0024 13.6698 28.666 14.0846 28.666H15.9156C16.3305 28.666 16.6668 29.0024 16.6668 29.4172V33.6661Z" fill="#B0EFA5"/>
<path d="M16.0732 28.6827C16.0224 28.6718 15.9697 28.666 15.9156 28.666H14.0846C13.6698 28.666 13.3334 29.0024 13.3334 29.4172V33.6661H15.4797V29.4172C15.4797 29.0565 15.734 28.7552 16.0732 28.6827Z" fill="#7FD394"/>
<path d="M30.8599 45.6515C36.8577 45.6515 41.7198 40.7894 41.7198 34.7916C41.7198 28.7938 36.8577 23.9316 30.8599 23.9316C24.8621 23.9316 19.9999 28.7938 19.9999 34.7916C19.9999 40.7894 24.8621 45.6515 30.8599 45.6515Z" fill="#857E87"/>
<path d="M22.1462 34.7916C22.1462 29.1559 26.439 24.523 31.933 23.984C31.58 23.9493 31.222 23.9316 30.8599 23.9316C24.8621 23.9316 19.9999 28.7938 19.9999 34.7916C19.9999 40.7894 24.8621 45.6515 30.8599 45.6515C31.2221 45.6515 31.58 45.6337 31.933 45.5991C26.4389 45.0602 22.1462 40.4272 22.1462 34.7916Z" fill="#6F6571"/>
<path d="M30.8412 42.2995C34.9878 42.2995 38.3493 38.9381 38.3493 34.7915C38.3493 30.6449 34.9878 27.2834 30.8412 27.2834C26.6947 27.2834 23.3332 30.6449 23.3332 34.7915C23.3332 38.9381 26.6947 42.2995 30.8412 42.2995Z" fill="#D3EFFD"/>
<path d="M27.6257 34.7915C27.6257 31.3907 29.8867 28.5181 32.9875 27.5947C32.3075 27.3922 31.587 27.2834 30.8412 27.2834C26.6947 27.2834 23.3332 30.6449 23.3332 34.7915C23.3332 38.938 26.6947 42.2995 30.8412 42.2995C31.587 42.2995 32.3074 42.1908 32.9875 41.9883C29.8867 41.0649 27.6257 38.1922 27.6257 34.7915Z" fill="#A0DBF2"/>
<path d="M42.7065 41.5413L40.6409 39.4771L35.9127 44.4066L37.8749 46.3736C38.1683 46.6668 38.6437 46.6667 38.937 46.3734L42.7066 42.6038C43.0002 42.3104 43.0001 41.8346 42.7065 41.5413Z" fill="#857E87"/>
<path d="M38.9336 45.3262L36.9433 43.3325L35.9129 44.4067L37.8751 46.3737C38.1686 46.6669 38.644 46.6668 38.9373 46.3735L39.9136 45.3971C39.6195 45.6169 39.2009 45.5933 38.9336 45.3262Z" fill="#6F6571"/>
<path d="M14.4927 20.7859L9.24227 17.3803C8.87 17.1375 8.37127 17.2424 8.12847 17.6147C7.88557 17.987 7.99056 18.4857 8.36284 18.7285L13.6133 22.134C13.9857 22.3768 14.4843 22.2719 14.7271 21.8997C14.97 21.5275 14.8651 21.0288 14.4927 20.7859Z" fill="#DCDBDD"/>
<path d="M21.575 15.5586C21.2457 15.26 20.7367 15.2849 20.4381 15.6141L15.0436 21.5702C14.745 21.8995 14.7698 22.4084 15.099 22.7071C15.429 23.0064 15.938 22.9802 16.2359 22.6517L21.6305 16.6956C21.9291 16.3662 21.9043 15.8572 21.575 15.5586Z" fill="#DCDBDD"/>
<path d="M28.2962 14.2744C28.2334 13.8343 27.8251 13.5286 27.3859 13.5911L22.4966 14.2985C22.0565 14.3612 21.7506 14.7688 21.8133 15.2087C21.8757 15.6467 22.2812 15.9547 22.7235 15.892L27.6129 15.1847C28.0529 15.122 28.3588 14.7145 28.2962 14.2744Z" fill="#DCDBDD"/>
<path d="M10.0002 6.68909V10.0629C10.0002 10.4777 10.3365 10.8141 10.7514 10.8141H25.9157C26.3306 10.8141 26.6669 10.4777 26.6669 10.0629V6.68909H10.0002Z" fill="#E8E8E8"/>
<path d="M8.33335 19.0892C9.25385 19.0892 10.0001 18.343 10.0001 17.4225C10.0001 16.502 9.25385 15.7557 8.33335 15.7557C7.41284 15.7557 6.66663 16.502 6.66663 17.4225C6.66663 18.343 7.41284 19.0892 8.33335 19.0892Z" fill="#FF7D92"/>
<path d="M15 23.1914C15.9205 23.1914 16.6668 22.4451 16.6668 21.5246C16.6668 20.6041 15.9205 19.8579 15 19.8579C14.0795 19.8579 13.3333 20.6041 13.3333 21.5246C13.3333 22.4451 14.0795 23.1914 15 23.1914Z" fill="#FF7D92"/>
<path d="M21.6668 16.9996C22.5873 16.9996 23.3335 16.2534 23.3335 15.3329C23.3335 14.4124 22.5873 13.6661 21.6668 13.6661C20.7463 13.6661 20.0001 14.4124 20.0001 15.3329C20.0001 16.2534 20.7463 16.9996 21.6668 16.9996Z" fill="#FF7D92"/>
<path d="M28.3333 15.7559C29.2538 15.7559 30 15.0097 30 14.0892C30 13.1687 29.2538 12.4225 28.3333 12.4225C27.4128 12.4225 26.6666 13.1687 26.6666 14.0892C26.6666 15.0097 27.4128 15.7559 28.3333 15.7559Z" fill="#FF7D92"/>
<path d="M6.66722 39.5279H16.6673C17.1118 39.5279 17.4722 39.1676 17.4722 38.7231C17.4722 38.2785 17.1119 37.9182 16.6673 37.9182H6.66722C6.22276 37.9182 5.86237 38.2785 5.86237 38.7231C5.86237 39.1676 6.22266 39.5279 6.66722 39.5279Z" fill="#DCDBDD"/>
<path d="M6.66722 42.8614H16.6673C17.1118 42.8614 17.4722 42.5011 17.4722 42.0566C17.4722 41.6121 17.1119 41.2517 16.6673 41.2517H6.66722C6.22276 41.2517 5.86237 41.612 5.86237 42.0566C5.86237 42.501 6.22266 42.8614 6.66722 42.8614Z" fill="#DCDBDD"/>
<path d="M6.66722 46.1948H16.6673C17.1118 46.1948 17.4722 45.8345 17.4722 45.3899C17.4722 44.9455 17.1119 44.5851 16.6673 44.5851H6.66722C6.22276 44.5851 5.86237 44.9454 5.86237 45.3899C5.86237 45.8344 6.22266 46.1948 6.66722 46.1948Z" fill="#DCDBDD"/>
<path d="M20.9358 3.66617V2.93673C20.9358 1.49952 19.7707 0.334473 18.3335 0.334473C16.8963 0.334473 15.7313 1.49952 15.7313 2.93663V3.66607H10.0002V7.91657C10.0002 8.33145 10.3365 8.66778 10.7514 8.66778H25.9157C26.3306 8.66778 26.6669 8.33145 26.6669 7.91657V3.66617H20.9358Z" fill="#857E87"/>
</svg>
