<svg width="59" height="57" viewBox="0 0 59 57" fill="none" xmlns="http://www.w3.org/2000/svg">
<path d="M29.4381 50.8717C28.9475 50.8717 28.5497 50.4739 28.5497 49.9833V44.9473C28.5497 44.4566 28.9475 44.0588 29.4381 44.0588C29.9289 44.0588 30.3266 44.4566 30.3266 44.9473V49.9833C30.3266 50.4739 29.9289 50.8717 29.4381 50.8717Z" fill="#8DCAFC"/>
<path d="M29.4385 56.1215C27.5665 56.1215 26.0435 54.5987 26.0435 52.7267C26.0435 50.8547 27.5665 49.3318 29.4385 49.3318C31.3104 49.3318 32.8334 50.8547 32.8334 52.7267C32.8334 54.5987 31.3104 56.1215 29.4385 56.1215ZM29.4385 51.1088C28.5463 51.1088 27.8205 51.8346 27.8205 52.7267C27.8205 53.6188 28.5463 54.3446 29.4385 54.3446C30.3307 54.3446 31.0564 53.6188 31.0564 52.7267C31.0564 51.8346 30.3307 51.1088 29.4385 51.1088Z" fill="#C4E1FF"/>
<path d="M55.6875 45.0014H3.1885C2.53419 45.0014 2.00385 44.4711 2.00385 43.8167V5.74194H56.8722V43.8167C56.8722 44.4711 56.3419 45.0014 55.6875 45.0014Z" fill="#EAF6FF"/>
<path d="M2.00385 5.74194H56.8722V9.61709H2.00385V5.74194Z" fill="#D9ECFD"/>
<path d="M56.8718 5.74097V43.8163C56.8718 44.4703 56.3422 45.001 55.6871 45.001H50.9983C51.6523 45.001 52.1829 44.4703 52.1829 43.8163V5.74097H56.8718Z" fill="#D9ECFD"/>
<path d="M57.6854 6.78479H1.19081C0.533168 6.78479 6.10352e-05 6.25168 6.10352e-05 5.59403V2.0135C6.10352e-05 1.35586 0.533168 0.822754 1.19081 0.822754H57.6854C58.343 0.822754 58.8761 1.35586 58.8761 2.0135V5.59403C58.8761 6.25168 58.343 6.78479 57.6854 6.78479Z" fill="#64B9FC"/>
<path d="M58.8761 2.01253V5.59317C58.8761 6.25047 58.3427 6.78393 57.6854 6.78393H53.1309C53.7882 6.78393 54.3216 6.25047 54.3216 5.59317V2.01253C54.3216 1.35523 53.7882 0.821777 53.1309 0.821777H57.6854C58.3427 0.821892 58.8761 1.35534 58.8761 2.01253Z" fill="#31A7FB"/>
<path d="M52.0647 37.4878H45.8409C45.3501 37.4878 44.9524 37.09 44.9524 36.5994C44.9524 36.1087 45.3502 35.7109 45.8409 35.7109H52.0647C52.5555 35.7109 52.9532 36.1087 52.9532 36.5994C52.9532 37.09 52.5554 37.4878 52.0647 37.4878Z" fill="#B3D5F2"/>
<path d="M52.0648 40.6648H39.617C39.1262 40.6648 38.7285 40.267 38.7285 39.7764C38.7285 39.2857 39.1263 38.8879 39.617 38.8879H52.0648C52.5556 38.8879 52.9533 39.2857 52.9533 39.7764C52.9533 40.267 52.5555 40.6648 52.0648 40.6648Z" fill="#B3D5F2"/>
<path d="M40.8065 14.1384H39.6171C39.1263 14.1384 38.7287 13.7407 38.7287 13.25C38.7287 12.7593 39.1265 12.3616 39.6171 12.3616H40.8065C41.2973 12.3616 41.6949 12.7593 41.6949 13.25C41.6949 13.7407 41.2973 14.1384 40.8065 14.1384Z" fill="#B3D5F2"/>
<path d="M52.0649 14.1383H44.0725C43.5818 14.1383 43.1841 13.7406 43.1841 13.2499C43.1841 12.7592 43.5819 12.3615 44.0725 12.3615H52.0649C52.5557 12.3615 52.9533 12.7592 52.9533 13.2499C52.9533 13.7406 52.5556 14.1383 52.0649 14.1383Z" fill="#B3D5F2"/>
<path d="M52.0648 17.3153H39.617C39.1262 17.3153 38.7285 16.9176 38.7285 16.4269C38.7285 15.9362 39.1263 15.5385 39.617 15.5385H52.0648C52.5556 15.5385 52.9533 15.9362 52.9533 16.4269C52.9533 16.9176 52.5555 17.3153 52.0648 17.3153Z" fill="#B3D5F2"/>
<path d="M52.0651 30.5317H49.9298V22.8001C49.9298 22.3095 49.532 21.9117 49.0413 21.9117C48.5507 21.9117 48.1529 22.3095 48.1529 22.8001V30.5317H46.7299V27.6757C46.7299 27.185 46.3321 26.7873 45.8414 26.7873C45.3508 26.7873 44.953 27.185 44.953 27.6757V30.5317H43.5299V25.4255C43.5299 24.9349 43.1321 24.5371 42.6414 24.5371C42.1507 24.5371 41.753 24.9349 41.753 25.4255V30.5317H40.5061V21.7405C40.5061 21.2498 40.1084 20.8521 39.6177 20.8521C39.1269 20.8521 38.7292 21.2498 38.7292 21.7405V31.4202C38.7292 31.9109 39.127 32.3087 39.6177 32.3087H52.0655C52.5563 32.3087 52.954 31.9109 52.954 31.4202C52.9535 30.9294 52.5558 30.5317 52.0651 30.5317Z" fill="#FB4A59"/>
<path d="M27.2667 31.1822C25.6816 33.2671 23.1737 34.6164 20.3579 34.6164C15.5756 34.6164 11.684 30.725 11.684 25.9414C11.684 21.1591 15.5755 17.2675 20.3579 17.2675C20.5569 17.2675 20.7547 17.2746 20.9502 17.2876V11.8537C20.7536 11.843 20.5558 11.8395 20.3579 11.8395C12.582 11.8395 6.25598 18.1655 6.25598 25.9414C6.25598 33.7173 12.582 40.0433 20.3579 40.0433C24.6712 40.0433 28.5378 38.0969 31.125 35.0358L27.2667 31.1822Z" fill="#64B9FC"/>
<path d="M31.1249 35.0355C28.5377 38.0966 24.671 40.043 20.3578 40.043C16.9092 40.043 13.7464 38.798 11.293 36.7354C13.1837 37.7601 15.3468 38.3406 17.6438 38.3406C22.2011 38.3406 26.2336 36.0508 28.6491 32.562L31.1249 35.0355Z" fill="#31A7FB"/>
<path d="M30.732 35.4826C33.0448 32.9698 34.4595 29.618 34.4595 25.9417H29.0326C29.0326 28.1226 28.2218 30.1166 26.8881 31.6424C28.1712 32.9207 29.4525 34.2009 30.732 35.4826Z" fill="#23F1A8"/>
<path d="M34.4583 25.9412C34.4583 29.6171 33.045 32.9684 30.7302 35.481C29.4519 34.2004 28.1702 32.921 26.8884 31.6439C28.2223 30.1181 29.0314 28.122 29.0314 25.9411C29.0314 25.7433 29.0243 25.5478 29.0113 25.3535C29.0184 25.3511 29.0243 25.3499 29.0314 25.3488H34.444C34.4547 25.5456 34.4583 25.7434 34.4583 25.9412Z" fill="#23F1A8"/>
<path d="M34.4597 25.9409C34.4597 29.6184 33.0452 32.9692 30.7315 35.4829C29.9211 34.6699 29.1093 33.8582 28.2976 33.0477C29.8236 31.0443 30.7962 28.599 30.9887 25.9409H34.4597Z" fill="#26D192"/>
<path d="M29.0328 25.9415C29.0328 21.1583 25.1412 17.2667 20.3578 17.2667V11.8398C28.1337 11.8398 34.4596 18.1658 34.4596 25.9415H29.0328Z" fill="#FDDD45"/>
<path d="M34.4595 25.941C34.4595 18.1655 28.1329 11.8401 20.3574 11.8401V11.8565C26.4397 13.1127 31.0252 18.5125 31.0252 24.9608C31.0252 25.29 31.0138 25.6167 30.9885 25.941H34.4595Z" fill="#F8C52D"/>
<path d="M8.37411 41.5262C8.14677 41.5262 7.91931 41.4394 7.7459 41.266L6.55722 40.0773C6.21017 39.7303 6.21017 39.1678 6.55722 38.8207C6.90416 38.4738 7.4667 38.4738 7.81375 38.8207L8.37422 39.3812L8.9347 38.8207C9.28163 38.4738 9.84418 38.4738 10.1912 38.8207C10.5383 39.1677 10.5383 39.7302 10.1912 40.0773L9.00254 41.266C8.82891 41.4395 8.60145 41.5262 8.37411 41.5262Z" fill="#31A7FB"/>
<path d="M24.1825 29.1594C23.9552 29.1594 23.7278 29.0727 23.5543 28.8992L22.3657 27.7105C22.0186 27.3636 22.0186 26.8011 22.3657 26.454C22.7126 26.1071 23.2751 26.1071 23.6222 26.454L24.1825 27.0144L24.743 26.454C25.0901 26.107 25.6526 26.107 25.9996 26.454C26.3466 26.8011 26.3465 27.3635 25.9996 27.7105L24.8109 28.8992C24.6373 29.0726 24.4099 29.1594 24.1825 29.1594Z" fill="#26D192"/>
<path d="M33.6324 15.4419C33.3968 15.4419 33.1707 15.3483 33.0041 15.1817L31.8155 13.993C31.4686 13.6459 31.4686 13.0834 31.8156 12.7365C32.1626 12.3895 32.7251 12.3896 33.0722 12.7366L33.6324 13.2969L34.1928 12.7366C34.5398 12.3896 35.1022 12.3896 35.4494 12.7366C35.7963 13.0835 35.7963 13.6461 35.4494 13.9931L34.2607 15.1818C34.094 15.3483 33.868 15.4419 33.6324 15.4419Z" fill="#F8C52D"/>
</svg>
