<svg width="19" height="11" viewBox="0 0 19 11" fill="none" xmlns="http://www.w3.org/2000/svg">
<path d="M4.57812 4.81836C4.46094 4.4668 4.34375 3.82227 4.34375 3.82227H4.31445C4.31445 3.82227 4.19727 4.4668 4.10938 4.81836L3.75781 5.90234H4.90039L4.57812 4.81836ZM18.1719 0.6875H9.96875V10.0625H18.1719C18.5527 10.0625 18.875 9.76953 18.875 9.35938V1.39062C18.875 1.00977 18.5527 0.6875 18.1719 0.6875ZM17.4688 4.20312C17.4688 4.4082 17.293 4.55469 17.1172 4.55469H16.7656C16.5605 5.25781 16.1211 5.96094 15.5059 6.60547C15.7695 6.81055 16.0332 6.98633 16.2969 7.13281C16.4434 7.25 16.502 7.45508 16.4141 7.63086L16.1797 8.01172C16.0625 8.1875 15.8574 8.24609 15.6816 8.1582C15.3008 7.92383 14.9785 7.68945 14.6562 7.42578C14.334 7.68945 13.9824 7.92383 13.6016 8.1582C13.4258 8.24609 13.2207 8.1875 13.1328 8.01172L12.8984 7.63086C12.7812 7.45508 12.8398 7.25 13.0156 7.13281C13.2793 6.98633 13.543 6.81055 13.7773 6.60547C13.543 6.37109 13.3379 6.10742 13.1621 5.87305C13.0449 5.69727 13.1035 5.46289 13.2793 5.375L13.4551 5.25781L13.6602 5.11133C13.8359 5.02344 14.041 5.08203 14.1289 5.22852C14.2754 5.43359 14.4512 5.63867 14.6562 5.84375C15.0371 5.4043 15.3594 4.99414 15.5352 4.55469H12.1953C11.9902 4.55469 11.8438 4.4082 11.8438 4.20312V3.73438C11.8438 3.55859 11.9902 3.38281 12.1953 3.38281H14.0703V2.91406C14.0703 2.73828 14.2168 2.5625 14.4219 2.5625H14.8906C15.0664 2.5625 15.2422 2.73828 15.2422 2.91406V3.38281H17.1172C17.293 3.38281 17.4688 3.55859 17.4688 3.73438V4.20312ZM0.125 1.39062V9.35938C0.125 9.76953 0.417969 10.0625 0.828125 10.0625H9.03125V0.6875H0.828125C0.417969 0.6875 0.125 1.00977 0.125 1.39062ZM1.82422 7.74805L3.52344 2.76758C3.58203 2.65039 3.69922 2.5332 3.8457 2.5332H4.8125C4.95898 2.5332 5.10547 2.65039 5.13477 2.76758L6.83398 7.74805C6.89258 7.95312 6.74609 8.1875 6.48242 8.1875H5.80859C5.66211 8.1875 5.51562 8.09961 5.48633 7.95312L5.22266 7.01562H3.43555L3.17188 7.95312C3.14258 8.09961 2.99609 8.1875 2.84961 8.1875H2.17578C1.94141 8.1875 1.76562 7.95312 1.82422 7.74805Z" fill="#546E7A"/>
</svg>
