<svg width="12" height="11" viewBox="0 0 12 11" fill="none" xmlns="http://www.w3.org/2000/svg">
<path d="M8.08984 5.375L11.0195 2.44531C11.4004 2.09375 11.4004 1.50781 11.0195 1.15625L10.375 0.511719C10.0234 0.130859 9.4375 0.130859 9.08594 0.511719L6.15625 3.44141L3.19727 0.511719C2.8457 0.130859 2.25977 0.130859 1.9082 0.511719L1.26367 1.15625C0.882812 1.50781 0.882812 2.09375 1.26367 2.44531L4.19336 5.375L1.26367 8.33398C0.882812 8.68555 0.882812 9.27148 1.26367 9.62305L1.9082 10.2676C2.25977 10.6484 2.8457 10.6484 3.19727 10.2676L6.15625 7.33789L9.08594 10.2676C9.4375 10.6484 10.0234 10.6484 10.375 10.2676L11.0195 9.62305C11.4004 9.27148 11.4004 8.68555 11.0195 8.33398L8.08984 5.375Z" fill="#546E7A"/>
</svg>
