<svg width="15" height="16" viewBox="0 0 15 16" fill="none" xmlns="http://www.w3.org/2000/svg">
<path d="M6.32816 0.875C5.918 0.875 5.62503 1.19727 5.62503 1.57812V6.5H3.04691C2.51956 6.5 2.25589 7.14453 2.63675 7.52539L7.08987 11.9785C7.29495 12.1836 7.67581 12.1836 7.88089 11.9785L12.334 7.52539C12.7149 7.14453 12.4512 6.5 11.9239 6.5H9.37503V1.57812C9.37503 1.19727 9.05276 0.875 8.67191 0.875H6.32816ZM15 11.8906C15 11.5098 14.6778 11.1875 14.2969 11.1875H9.99026L8.55472 12.623C7.96878 13.2383 7.00198 13.2383 6.41605 12.623L4.9805 11.1875H0.703156C0.292999 11.1875 3.05176e-05 11.5098 3.05176e-05 11.8906V15.1719C3.05176e-05 15.582 0.292999 15.875 0.703156 15.875H14.2969C14.6778 15.875 15 15.582 15 15.1719V11.8906ZM11.3672 14.4688C11.3672 14.791 11.1035 15.0547 10.7813 15.0547C10.459 15.0547 10.1953 14.791 10.1953 14.4688C10.1953 14.1465 10.459 13.8828 10.7813 13.8828C11.1035 13.8828 11.3672 14.1465 11.3672 14.4688ZM13.2422 14.4688C13.2422 14.791 12.9785 15.0547 12.6563 15.0547C12.334 15.0547 12.0703 14.791 12.0703 14.4688C12.0703 14.1465 12.334 13.8828 12.6563 13.8828C12.9785 13.8828 13.2422 14.1465 13.2422 14.4688Z" fill="#546E7A"/>
</svg>
