<svg width="74" height="74" viewBox="0 0 74 74" fill="none" xmlns="http://www.w3.org/2000/svg">
<path d="M39.168 13.1523V19.6562H34.832V13.1523L37 8.81641L39.168 13.1523Z" fill="#3E5959"/>
<path d="M39.168 19.6562H37V8.81641L39.168 13.1523V19.6562Z" fill="#384949"/>
<path d="M59.8071 30.7996H14.193L37 17.1413L59.8071 30.7996Z" fill="#DFD7D5"/>
<path d="M59.807 30.7996H37V17.1413L59.807 30.7996Z" fill="#D2C5C2"/>
<path d="M65.1836 47.8398V69.6641L56.5117 74H52.1758L45.6719 69.6641L39.168 74H34.832L28.3281 69.6641L21.8242 74H17.4883L8.81641 69.6641V47.8398C8.81641 43.0505 12.6989 39.168 17.4883 39.168L37 37L56.5117 39.168C61.3011 39.168 65.1836 43.0505 65.1836 47.8398Z" fill="#3E5959"/>
<path d="M65.1836 47.8398V69.6641L56.5117 74H52.1758L45.6719 69.6641L39.168 74H37V37L56.5117 39.168C61.3011 39.168 65.1836 43.0505 65.1836 47.8398Z" fill="#384949"/>
<path d="M34.832 0V13.1523H52.1758V0H34.832Z" fill="#FF4949"/>
<path d="M17.4883 39.168V47.8398L8.81641 51.6988L7.73242 52.1758L0 47.8398V39.168H17.4883Z" fill="#DFD7D5"/>
<path d="M17.4883 39.168V47.8398L8.81641 51.6988V39.168H17.4883Z" fill="#D2C5C2"/>
<path d="M17.4883 47.8398H0V74H17.4883V47.8398Z" fill="#EDE9E8"/>
<path d="M17.4883 47.8398H8.81641V74H17.4883V47.8398Z" fill="#DFD7D5"/>
<path d="M34.832 39.168V47.8398L28.3281 52.1758L21.8242 47.8398V39.168H34.832Z" fill="#DFD7D5"/>
<path d="M34.832 39.168V47.8398L28.3281 52.1758V39.168H34.832Z" fill="#D2C5C2"/>
<path d="M34.832 47.8398H21.8242V74H34.832V47.8398Z" fill="#EDE9E8"/>
<path d="M34.832 47.8398H28.3281V74H34.832V47.8398Z" fill="#DFD7D5"/>
<path d="M74 39.168V47.8398L65.1836 51.6988L64.0996 52.1758L56.5117 47.8398V39.168H74Z" fill="#DFD7D5"/>
<path d="M74 39.168V47.8398L65.1836 51.6988V39.168H74Z" fill="#D2C5C2"/>
<path d="M74 47.8398H56.5117V74H74V47.8398Z" fill="#EDE9E8"/>
<path d="M74 47.8398H65.1836V74H74V47.8398Z" fill="#DFD7D5"/>
<path d="M52.1758 39.168V47.8398L45.6719 52.1758L39.168 47.8398V39.168H52.1758Z" fill="#DFD7D5"/>
<path d="M52.1758 39.168V47.8398L45.6719 52.1758V39.168H52.1758Z" fill="#D2C5C2"/>
<path d="M52.1758 47.8398H39.168V74H52.1758V47.8398Z" fill="#EDE9E8"/>
<path d="M52.1758 47.8398H45.6719V74H52.1758V47.8398Z" fill="#DFD7D5"/>
<path d="M8.81641 30.4961V39.168H65.1836V30.4961H8.81641Z" fill="#EDE9E8"/>
<path d="M65.1836 30.4961H37V39.168H65.1836V30.4961Z" fill="#DFD7D5"/>
<path d="M52.1758 0H37V13.1523H52.1758V0Z" fill="#FF193D"/>
</svg>
