<svg width="90" height="74" viewBox="0 0 90 74" fill="none" xmlns="http://www.w3.org/2000/svg">
<path d="M83.7881 28.8551C83.9379 30.3034 85.8491 32.7069 88.2255 34.4439C89.7084 35.5278 89.9182 37.6554 88.6841 39.016C86.6173 41.295 83.409 43.8748 80.055 43.8748H71.2993L71.5708 28.8551H83.7881Z" fill="#59636F"/>
<path d="M33.9648 48.92C36.6833 48.92 38.567 46.2057 37.6157 43.6592C35.2286 37.2696 28.6136 32.6758 20.827 32.6758C13.0403 32.6758 6.42538 37.2696 4.03827 43.6592C3.08679 46.2057 4.97063 48.92 7.68915 48.92H33.9648Z" fill="#88D37F"/>
<path d="M6.96741 38.7803C10.9683 41.1826 15.7262 42.5777 20.8268 42.5777C25.9274 42.5777 30.6855 41.1827 34.6862 38.7803C31.4353 35.0594 26.4352 32.6758 20.8268 32.6758C15.2184 32.6758 10.2182 35.0594 6.96741 38.7803Z" fill="#5EC682"/>
<path d="M20.827 37.2067C32.0472 37.2067 41.143 28.8777 41.143 18.6034C41.143 8.32901 32.0472 0 20.827 0C9.60675 0 0.510956 8.32901 0.510956 18.6034C0.510956 28.8777 9.60675 37.2067 20.827 37.2067Z" fill="#FFD3BD"/>
<path d="M2.64725 10.2928C6.58887 11.5446 11.8627 9.67307 14.6622 8.30034C15.7123 7.78541 16.9486 7.86674 17.9317 8.50019C23.0354 11.7884 31.2167 12.4875 38.3193 9.1392C34.7819 3.66878 28.2728 0 20.8268 0C12.8688 0 5.98062 4.19049 2.64725 10.2928Z" fill="#E7889D"/>
<path d="M9.64668 22.2468C8.92669 22.2468 8.34329 21.6634 8.34329 20.9434V18.7951C8.34329 18.0751 8.92669 17.4917 9.64668 17.4917C10.3667 17.4917 10.9501 18.0751 10.9501 18.7951V20.9434C10.9501 21.6634 10.3667 22.2468 9.64668 22.2468Z" fill="#4E5660"/>
<path d="M32.0071 22.2468C31.2871 22.2468 30.7037 21.6634 30.7037 20.9434V18.7951C30.7037 18.0751 31.2871 17.4917 32.0071 17.4917C32.7271 17.4917 33.3105 18.0751 33.3105 18.7951V20.9434C33.3105 21.6634 32.7271 22.2468 32.0071 22.2468Z" fill="#4E5660"/>
<path d="M20.8268 23.5258C19.3203 23.5258 17.8879 22.8734 16.8967 21.736C16.4236 21.1932 16.4803 20.37 17.023 19.897C17.5656 19.4241 18.3888 19.4806 18.862 20.0231C19.358 20.5923 20.0743 20.9188 20.827 20.9188C21.5797 20.9188 22.2958 20.5923 22.792 20.0231C23.265 19.4804 24.0881 19.4239 24.631 19.897C25.1735 20.37 25.2302 21.1932 24.7573 21.736C23.7659 22.8734 22.3334 23.5258 20.8268 23.5258Z" fill="#4E5660"/>
<path d="M56.0352 48.92C53.3167 48.92 51.433 46.2057 52.3843 43.6592C54.7715 37.2696 61.3864 32.6758 69.173 32.6758C76.9597 32.6758 83.5745 37.2696 85.9618 43.6592C86.9132 46.2057 85.0294 48.92 82.3109 48.92H56.0352Z" fill="#A2DDFD"/>
<path d="M69.1732 42.5777C74.2738 42.5777 79.0317 41.1827 83.0326 38.7803C79.7818 35.0594 74.7816 32.6758 69.1732 32.6758C63.5646 32.6758 58.5645 35.0594 55.3138 38.7803C59.3146 41.1826 64.0725 42.5777 69.1732 42.5777Z" fill="#7ACEFA"/>
<path d="M69.173 37.2067C80.3933 37.2067 89.4891 28.8777 89.4891 18.6034C89.4891 8.32901 80.3933 0 69.173 0C57.9528 0 48.857 8.32901 48.857 18.6034C48.857 28.8777 57.9528 37.2067 69.173 37.2067Z" fill="#F2D1A5"/>
<path d="M57.9929 22.2468C57.2729 22.2468 56.6895 21.6634 56.6895 20.9434V18.7951C56.6895 18.0751 57.2729 17.4917 57.9929 17.4917C58.7129 17.4917 59.2963 18.0751 59.2963 18.7951V20.9434C59.2963 21.6634 58.7128 22.2468 57.9929 22.2468Z" fill="#4E5660"/>
<path d="M80.3533 22.2468C79.6333 22.2468 79.0499 21.6634 79.0499 20.9434V18.7951C79.0499 18.0751 79.6333 17.4917 80.3533 17.4917C81.0733 17.4917 81.6567 18.0751 81.6567 18.7951V20.9434C81.6567 21.6634 81.0731 22.2468 80.3533 22.2468Z" fill="#4E5660"/>
<path d="M69.1732 23.5258C67.6665 23.5258 66.234 22.8734 65.2429 21.7358C64.77 21.193 64.8267 20.3698 65.3696 19.8968C65.9121 19.4241 66.7353 19.4806 67.2086 20.0235C67.7044 20.5926 68.4205 20.919 69.1734 20.919C69.926 20.919 70.6422 20.5924 71.1384 20.0233C71.6114 19.4806 72.4345 19.4241 72.9774 19.8971C73.5199 20.3702 73.5766 21.1934 73.1037 21.7361C72.1121 22.8734 70.6798 23.5258 69.1732 23.5258Z" fill="#4E5660"/>
<path d="M37.5305 53.2181C37.5305 49.0421 34.0039 45.6896 29.7663 45.9765C26.1356 46.2222 23.213 49.1959 23.0229 52.8299C22.9553 54.1222 23.2275 55.3444 23.7561 56.4177C23.9726 56.8574 23.8788 57.3808 23.5554 57.7491C22.3344 59.1393 21.6358 60.9995 21.7682 63.024C22.003 66.6131 24.9014 69.5261 28.4895 69.7767C32.7342 70.0732 36.2699 66.7176 36.2699 62.5361C36.2699 61.0929 35.8469 59.749 35.1206 58.6187C36.5997 57.2899 37.5305 55.363 37.5305 53.2181Z" fill="#59636F"/>
<path d="M52.4694 53.2181C52.4694 49.0421 55.996 45.6896 60.2336 45.9765C63.8644 46.2222 66.7869 49.1959 66.977 52.8299C67.0446 54.1222 66.7725 55.3444 66.2438 56.4177C66.0273 56.8574 66.1211 57.3808 66.4445 57.7491C67.6656 59.1393 68.3642 60.9995 68.2318 63.024C67.997 66.6131 65.0986 69.5261 61.5104 69.7767C57.2657 70.0732 53.7301 66.7176 53.7301 62.5361C53.7301 61.0929 54.1531 59.749 54.8793 58.6187C53.4002 57.2899 52.4694 55.363 52.4694 53.2181Z" fill="#59636F"/>
<path d="M31.8622 73.9999C29.1437 73.9999 27.26 71.2857 28.2113 68.739C30.5984 62.3495 37.2134 57.7556 45 57.7556C52.7867 57.7556 59.4016 62.3496 61.7887 68.739C62.7402 71.2855 60.8564 73.9999 58.1379 73.9999H31.8622Z" fill="#B0ADE2"/>
<path d="M45 67.6574C50.1006 67.6574 54.8585 66.2624 58.8594 63.8602C55.6086 60.1393 50.6086 57.7556 45 57.7556C39.3914 57.7556 34.3915 60.1393 31.1406 63.8602C35.1415 66.2624 39.8994 67.6574 45 67.6574Z" fill="#A09CDC"/>
<path d="M45 62.2866C56.2202 62.2866 65.316 53.9576 65.316 43.6832C65.316 33.4088 56.2202 25.0798 45 25.0798C33.7798 25.0798 24.684 33.4088 24.684 43.6832C24.684 53.9576 33.7798 62.2866 45 62.2866Z" fill="#CB9D82"/>
<path d="M64.8442 39.6861C62.8467 31.333 54.7215 25.0798 45 25.0798C35.2784 25.0798 27.1533 31.333 25.1558 39.6861C28.1195 40.7216 32.5333 38.6586 34.0392 36.1957C34.3282 35.723 34.8739 35.4614 35.4143 35.5829C38.6956 36.3203 41.8003 35.3003 44.3869 33.498C44.7567 33.2403 45.2436 33.2403 45.6135 33.498C48.1999 35.3003 51.3048 36.3201 54.586 35.5829C55.1266 35.4614 55.6722 35.723 55.9612 36.1957C57.4667 38.6586 61.8805 40.7216 64.8442 39.6861Z" fill="#59636F"/>
<path d="M33.8199 47.3268C33.0999 47.3268 32.5165 46.7433 32.5165 46.0234V43.8749C32.5165 43.1551 33.0999 42.5715 33.8199 42.5715C34.5399 42.5715 35.1233 43.1551 35.1233 43.8749V46.0233C35.1233 46.7433 34.5399 47.3268 33.8199 47.3268Z" fill="#4E5660"/>
<path d="M56.1801 47.3268C55.4601 47.3268 54.8767 46.7433 54.8767 46.0234V43.8749C54.8767 43.1551 55.4601 42.5715 56.1801 42.5715C56.9001 42.5715 57.4835 43.1551 57.4835 43.8749V46.0233C57.4835 46.7433 56.9001 47.3268 56.1801 47.3268Z" fill="#4E5660"/>
<path d="M45 48.6055C43.4934 48.6055 42.0611 47.9531 41.0698 46.8157C40.5968 46.273 40.6536 45.4498 41.1962 44.9767C41.7387 44.5038 42.5619 44.5605 43.0352 45.1031C43.5311 45.6722 44.2473 45.9987 45.0002 45.9987C45.7528 45.9987 46.469 45.6722 46.9652 45.1031C47.4382 44.5605 48.2612 44.5038 48.8041 44.9767C49.3467 45.4498 49.4034 46.273 48.9305 46.8157C47.9389 47.9531 46.5065 48.6055 45 48.6055Z" fill="#4E5660"/>
<path d="M69.1731 0C60.2562 0 52.6818 5.26066 49.9474 12.5774C53.5843 11.9505 57.2169 10.7 59.3266 9.27909C59.7668 8.98262 60.3586 9.293 60.3586 9.82391V10.5887C60.3586 11.9144 61.4331 12.9889 62.7587 12.9889H75.5874C76.913 12.9889 77.9875 11.9144 77.9875 10.5887V9.82391C77.9875 9.29317 78.5791 8.98262 79.0195 9.27909C81.1292 10.6998 84.762 11.9505 88.3987 12.5774C85.6643 5.26066 78.0899 0 69.1731 0Z" fill="#59636F"/>
</svg>
