<svg width="36" height="36" viewBox="0 0 36 36" fill="none" xmlns="http://www.w3.org/2000/svg">
<path d="M32.5665 16.5533C32.515 16.5533 32.4626 16.5458 32.4106 16.5303C32.1233 16.4444 31.9599 16.1417 32.0458 15.8542L34.2532 8.47181L32.446 7.93272C32.1585 7.84694 31.9949 7.54431 32.0807 7.2568C32.1665 6.9693 32.4693 6.80603 32.7565 6.89146L35.0847 7.58594C35.2229 7.62721 35.3389 7.72164 35.4074 7.84841C35.4758 7.97526 35.4911 8.12411 35.4498 8.26213L33.0867 16.1653C33.0163 16.401 32.8003 16.5533 32.5665 16.5533Z" fill="#595959"/>
<path fill-rule="evenodd" clip-rule="evenodd" d="M0.527191 3.40911V35.5131C0.527191 35.7802 0.745231 36.0001 1.01256 36.0001H8.75806H25.335H28.6257C28.8931 36.0001 29.1131 35.7802 29.1131 35.5131C29.1131 18.8292 29.1131 24.2193 29.1131 6.04352L29.111 5.74145C29.111 5.69828 29.1049 5.66544 29.0904 5.63458H25.1498C24.0762 5.63458 23.196 4.75511 23.196 3.68038L23.2001 0.0246798C23.1611 0.00618752 23.124 0 23.0726 0H22.7086H1.01256C0.745231 0 0.527191 0.217829 0.527191 0.484947V3.40911Z" fill="#F9F7F7"/>
<path fill-rule="evenodd" clip-rule="evenodd" d="M17.8239 0C21.5588 3.84477 23.9898 10.1143 23.9898 17.1955C23.9898 18.7305 23.8746 20.2265 23.6587 21.667C23.5888 22.1294 23.5086 22.5876 23.4181 23.0376C23.3091 23.5822 23.1857 24.1164 23.0479 24.6404C21.7563 29.5538 19.2245 33.602 15.9976 36.0001H25.335H28.6257C28.8931 36.0001 29.1131 35.7802 29.1131 35.5131V30.0696V22.861V6.04352L29.111 5.74145C29.111 5.69828 29.1049 5.66544 29.0904 5.63458L23.2001 0.0246798C23.161 0.00618752 23.124 0 23.0726 0H22.7086L17.8239 0Z" fill="#E2E2E2"/>
<path fill-rule="evenodd" clip-rule="evenodd" d="M23.2001 0.0246582L23.196 3.68035C23.196 4.75508 24.0762 5.63456 25.1498 5.63456H29.0904C29.0575 5.56881 28.9835 5.51123 28.8354 5.36948L23.5127 0.297964C23.3481 0.13969 23.2741 0.0616427 23.2001 0.0246582Z" fill="#CECECE"/>
<path d="M19.1407 32.5982C18.6295 32.5982 18.215 32.2565 17.8747 31.9178C17.7216 31.7658 17.648 31.7525 17.6472 31.7524C17.5945 31.7622 17.4408 31.896 17.3491 31.9758C16.9732 32.303 16.1911 32.9836 15.0792 31.964C14.8582 31.7612 14.8433 31.4175 15.046 31.1963C15.2487 30.9751 15.5922 30.9602 15.8134 31.163C16.0032 31.3371 16.1701 31.4304 16.2617 31.4149C16.3586 31.3974 16.5059 31.2693 16.6359 31.1561C16.9841 30.8532 17.7087 30.2224 18.6404 31.1469C18.9964 31.5012 19.1227 31.5133 19.1446 31.5115C19.1721 31.5099 19.2573 31.4642 19.3836 31.3036C19.5545 31.0867 19.6771 30.8688 19.7956 30.6582C20.0241 30.2521 20.2604 29.8323 20.7627 29.7353C21.3607 29.623 21.6731 30.1324 21.9012 30.5044C22.2285 31.0385 22.459 31.3621 23.0449 31.2969C23.3429 31.2624 23.6118 31.4782 23.6452 31.7764C23.6785 32.0745 23.4639 32.3433 23.1657 32.3766C21.8639 32.5222 21.2857 31.579 20.975 31.0724C20.9491 31.0301 20.9197 30.9822 20.8906 30.9365C20.8413 31.0152 20.7874 31.111 20.7423 31.1911C20.6165 31.4147 20.4598 31.6931 20.2372 31.9758C19.9315 32.3644 19.586 32.5733 19.2104 32.5961C19.1871 32.5975 19.1638 32.5982 19.1407 32.5982Z" fill="#595959"/>
<path fill-rule="evenodd" clip-rule="evenodd" d="M29.835 4.16118L30.9098 5.63458L32.6506 5.00169L33.3705 2.59538C33.6008 1.82068 33.1566 0.998722 32.3833 0.768589C31.608 0.536417 30.7852 0.98023 30.5549 1.75494L29.835 4.16118Z" fill="#838383"/>
<path fill-rule="evenodd" clip-rule="evenodd" d="M22.7723 29.2189L23.0541 31.7074C23.0829 31.8698 23.0808 31.878 23.1981 31.7506L24.7982 29.8231L26.5217 27.7476L24.9031 25.7831L22.4721 26.5393L22.7723 29.2189Z" fill="#838383"/>
<path fill-rule="evenodd" clip-rule="evenodd" d="M29.0329 4.59277L22.4721 26.5393L24.4959 27.1434L26.5217 27.7475L32.6013 7.41203L33.0826 5.80306C33.1855 5.46401 32.9901 5.10232 32.6507 5.00164L29.8351 4.16119C29.4956 4.0605 29.1336 4.25372 29.0329 4.59277Z" fill="#FE9737"/>
<path fill-rule="evenodd" clip-rule="evenodd" d="M31.9616 2.17401L31.2418 4.58032L32.6506 5.00156L33.3705 2.59525C33.6008 1.82055 33.1566 0.998592 32.3833 0.768459C32.1262 0.692451 31.865 0.688303 31.6223 0.747928C31.9698 1.11784 32.1159 1.65623 31.9616 2.17401Z" fill="#595959"/>
<path fill-rule="evenodd" clip-rule="evenodd" d="M31.1944 6.99287L25.3966 26.3831L25.1149 27.3284L26.5216 27.7476L32.6012 7.41208L33.0825 5.80311C33.1854 5.46406 32.99 5.10238 32.6506 5.00169L31.2417 4.58044C31.5811 4.68317 31.7765 5.04282 31.6757 5.38187L31.1944 6.99287Z" fill="#F36B37"/>
<path fill-rule="evenodd" clip-rule="evenodd" d="M25.1149 27.3284L23.3914 29.4039L22.8649 30.0367L23.0541 31.7074C23.0829 31.8697 23.0808 31.878 23.1981 31.7505L24.7982 29.8231L26.5217 27.7476L25.1149 27.3284Z" fill="#595959"/>
<path d="M22.1512 14.6646H7.40263C7.10261 14.6646 6.85947 14.4214 6.85947 14.1214C6.85947 13.8213 7.10268 13.5781 7.40263 13.5781H22.1511C22.4512 13.5781 22.6943 13.8213 22.6943 14.1214C22.6943 14.4214 22.4512 14.6646 22.1512 14.6646Z" fill="#595959"/>
<path d="M21.2524 18.8875H7.40263C7.10261 18.8875 6.85947 18.6443 6.85947 18.3443C6.85947 18.0442 7.10268 17.801 7.40263 17.801H21.2524C21.5524 17.801 21.7956 18.0442 21.7956 18.3443C21.7956 18.6443 21.5524 18.8875 21.2524 18.8875Z" fill="#595959"/>
<path d="M20.1809 23.1104H7.40263C7.10261 23.1104 6.85947 22.8672 6.85947 22.5672C6.85947 22.2671 7.10268 22.0239 7.40263 22.0239H20.1808C20.4809 22.0239 20.724 22.2671 20.724 22.5672C20.7241 22.8672 20.4809 23.1104 20.1809 23.1104Z" fill="#595959"/>
<path d="M16.1539 27.3332H7.40263C7.10261 27.3332 6.85947 27.09 6.85947 26.7899C6.85947 26.4898 7.10268 26.2467 7.40263 26.2467H16.1538C16.4538 26.2467 16.697 26.4899 16.697 26.7899C16.6971 27.09 16.4538 27.3332 16.1539 27.3332Z" fill="#595959"/>
<path fill-rule="evenodd" clip-rule="evenodd" d="M20.4235 7.0155H8.47011C8.26649 7.0155 8.09991 7.18193 8.09991 7.38542V9.57594C8.09991 9.77935 8.26649 9.94585 8.47011 9.94585H20.4235C20.6272 9.94585 20.7937 9.77942 20.7937 9.57594V7.38542C20.7937 7.18193 20.6272 7.0155 20.4235 7.0155Z" fill="#97DA7B"/>
<path fill-rule="evenodd" clip-rule="evenodd" d="M20.4236 7.0155H17.0301C17.2337 7.0155 17.4003 7.18193 17.4003 7.38542V9.57594C17.4003 9.77935 17.2337 9.94585 17.0301 9.94585H20.4236C20.6272 9.94585 20.7938 9.77942 20.7938 9.57594V7.38542C20.7938 7.18193 20.6272 7.0155 20.4236 7.0155Z" fill="#68CA44"/>
</svg>
