<svg width="76" height="74" viewBox="0 0 76 74" fill="none" xmlns="http://www.w3.org/2000/svg">
<path d="M52.7059 32.0154C52.5697 32.0154 52.4316 31.9873 52.2996 31.9279C51.8002 31.7031 51.5774 31.1161 51.8021 30.6167L57.876 17.1179C58.0361 16.7621 58.3902 16.5332 58.7803 16.5332C59.1705 16.5332 59.5245 16.7621 59.6846 17.1179L65.7585 30.6167C65.9832 31.1161 65.7604 31.7031 65.261 31.9279C64.7621 32.1524 64.1747 31.9299 63.9499 31.4305L58.7802 19.9414L53.6106 31.4305C53.4455 31.7978 53.084 32.0154 52.7059 32.0154Z" fill="#FFD064"/>
<path d="M23.2936 32.0144C22.9153 32.0144 22.5541 31.7968 22.3888 31.4294L17.2191 19.9402L12.0499 31.4293C11.8252 31.9287 11.2382 32.1513 10.7387 31.9267C10.2393 31.702 10.0165 31.1151 10.2412 30.6156L16.3151 17.1168C16.4752 16.7609 16.8291 16.5322 17.2193 16.5322C17.6094 16.5322 17.9633 16.7611 18.1234 17.1169L24.1971 30.6156C24.4219 31.115 24.1992 31.702 23.6998 31.9267C23.5678 31.9863 23.4296 32.0144 23.2936 32.0144Z" fill="#FFD064"/>
<path d="M26.8821 33.4355C26.8821 35.1932 26.412 36.8405 25.5918 38.2605C23.9224 41.1513 20.7986 43.0964 17.2198 43.0964C13.641 43.0964 10.5173 41.1513 8.84782 38.2605C8.02763 36.8405 7.55884 35.1932 7.55884 33.4355H26.8821Z" fill="#FFE07D"/>
<path d="M26.8821 33.4355C26.8821 35.1932 26.412 36.8405 25.5918 38.2605H8.84782C8.02763 36.8405 7.55884 35.1932 7.55884 33.4355H26.8821Z" fill="#FFD064"/>
<path d="M20.8 42.4115C19.6931 42.854 18.4845 43.0968 17.2198 43.0968C11.8842 43.0968 7.55884 38.7714 7.55884 33.4358H14.7191C14.719 37.5066 17.2368 40.9888 20.8 42.4115Z" fill="#FFD064"/>
<path d="M26.8814 35.8477H7.55827C6.22597 35.8477 5.14587 34.7676 5.14587 33.4353C5.14587 32.103 6.22597 31.0229 7.55827 31.0229H26.8814C28.2137 31.0229 29.2938 32.103 29.2938 33.4353C29.2939 34.7676 28.2138 35.8477 26.8814 35.8477Z" fill="#FFE07D"/>
<path d="M13.9121 35.8477H7.55827C6.22523 35.8477 5.14587 34.7684 5.14587 33.4353C5.14587 32.1036 6.22523 31.0229 7.55827 31.0229H13.912C12.5803 31.0229 11.4996 32.1038 11.4996 33.4353C11.4996 34.7684 12.5804 35.8477 13.9121 35.8477Z" fill="#FFD064"/>
<path d="M68.4425 33.436C68.4425 35.1937 67.9724 36.841 67.1522 38.261C65.4828 41.1518 62.3591 43.0969 58.7802 43.0969C55.2014 43.0969 52.0778 41.1518 50.4082 38.261C49.5881 36.841 49.1193 35.1937 49.1193 33.436H68.4425Z" fill="#FFE07D"/>
<path d="M68.4425 33.436C68.4425 35.1937 67.9724 36.841 67.1522 38.261H50.4084C49.5882 36.841 49.1194 35.1937 49.1194 33.436H68.4425Z" fill="#FFD064"/>
<path d="M62.3605 42.412C61.2537 42.8545 60.0451 43.0972 58.7803 43.0972C53.4448 43.0972 49.1194 38.7718 49.1194 33.4363H56.2797C56.2795 37.5071 58.7974 40.9894 62.3605 42.412Z" fill="#FFD064"/>
<path d="M68.4419 35.8481H49.1188C47.7865 35.8481 46.7064 34.768 46.7064 33.4357C46.7064 32.1034 47.7865 31.0233 49.1188 31.0233H68.4419C69.7742 31.0233 70.8543 32.1034 70.8543 33.4357C70.8543 34.768 69.7743 35.8481 68.4419 35.8481Z" fill="#FFE07D"/>
<path d="M55.4727 35.8481H49.1189C47.7859 35.8481 46.7065 34.7688 46.7065 33.4357C46.7065 32.104 47.7859 31.0233 49.1189 31.0233H55.4727C54.1409 31.0233 53.0603 32.1041 53.0603 33.4357C53.0601 34.7688 54.1409 35.8481 55.4727 35.8481Z" fill="#FFD064"/>
<path d="M38.0002 0.000854492C36.0796 0.000854492 34.5228 1.55772 34.5228 3.47826V12.7591H41.4776V3.47826C41.4776 1.55772 39.9207 0.000854492 38.0002 0.000854492Z" fill="#FFE07D"/>
<path d="M41.4776 22.727V47.3012L37.9994 49.187L34.5228 47.3012V22.727C34.5228 20.8053 36.0792 19.2489 37.9994 19.2489C39.9212 19.2489 41.4776 20.8053 41.4776 22.727Z" fill="#FFE07D"/>
<path d="M39.6091 0.395475C38.4971 0.974994 37.7388 2.13788 37.7388 3.47831V12.7595H34.5228V3.47831C34.5228 1.55836 36.0798 0.00134277 37.9997 0.00134277C38.5806 0.00134277 39.1274 0.143561 39.6091 0.395475Z" fill="#FFD064"/>
<path d="M39.6091 19.6432C38.4971 20.2227 37.7388 21.3856 37.7388 22.726V47.3019H34.5228V22.726C34.5228 20.806 36.0798 19.249 37.9997 19.249C38.5806 19.249 39.1274 19.3912 39.6091 19.6432Z" fill="#FFD064"/>
<path d="M41.4776 21.6241V27.9737C40.4148 28.4493 39.2374 28.7126 37.9994 28.7126C36.7615 28.7126 35.5842 28.4493 34.5228 27.9737V21.6241C34.5228 19.7024 36.0792 18.146 37.9994 18.146C39.9212 18.1461 41.4776 19.7024 41.4776 21.6241Z" fill="#FFD064"/>
<path d="M61.9722 8.99805H14.0278C11.6732 8.99805 9.76453 10.9068 9.76453 13.2615C9.76453 15.6161 11.6732 17.5248 14.0278 17.5248H29.4732C29.4732 22.234 33.2908 26.0516 38 26.0516C42.7091 26.0516 46.5267 22.234 46.5267 17.5248H61.9721C64.3267 17.5248 66.2355 15.6161 66.2355 13.2615C66.2355 10.9069 64.3268 8.99805 61.9722 8.99805Z" fill="#FFE07D"/>
<path d="M14.7208 13.2608C14.7208 14.438 15.1984 15.5043 15.9699 16.2757C16.7413 17.0472 17.8076 17.5248 18.9848 17.5248H14.0277C12.8505 17.5248 11.7855 17.0472 11.0128 16.2757C10.2427 15.5043 9.76501 14.438 9.76501 13.2608C9.76501 10.9062 11.6731 8.99805 14.0277 8.99805H18.9848C16.6302 8.99805 14.7208 10.9062 14.7208 13.2608Z" fill="#FFD064"/>
<path d="M38.0002 21.2859C40.0774 21.2859 41.7613 19.602 41.7613 17.5248C41.7613 15.4476 40.0774 13.7637 38.0002 13.7637C35.923 13.7637 34.2391 15.4476 34.2391 17.5248C34.2391 19.602 35.923 21.2859 38.0002 21.2859Z" fill="#FFD064"/>
<path d="M53.2583 61.5919H22.741V49.7888C22.741 48.0462 24.1536 46.6338 25.896 46.6338H50.1032C51.8457 46.6338 53.2582 48.0464 53.2582 49.7888V61.5919H53.2583Z" fill="#FFE07D"/>
<path d="M31.3789 60.164L24.4189 61.5918C24.398 61.5918 24.3775 61.584 24.362 61.5702C22.2126 59.6726 22.438 48.7872 23.6649 47.5574C24.2361 46.986 25.025 46.6335 25.8961 46.6335H34.534C33.6629 46.6335 32.8741 46.9861 32.3028 47.5574C31.7316 48.1288 31.379 48.9175 31.379 49.7885V60.164H31.3789Z" fill="#FFD064"/>
<path d="M72.7981 47.8672V61.8707L45.4188 65.8367L37.9996 71.4672V66.9112V61.7486C37.9996 56.685 41.71 52.388 46.7141 51.6459C46.7263 51.6428 46.7371 51.6413 46.7492 51.6398L52.5716 50.7972L72.7981 47.8672Z" fill="#E7ECF6"/>
<path d="M49.9278 51.1799C46.1306 52.9931 43.5707 56.8637 43.5707 61.2627V66.1037L37.9996 71.4672V61.7488C37.9996 56.6852 41.71 52.3882 46.7141 51.6461C46.7263 51.643 46.7371 51.6415 46.7492 51.64L49.9278 51.1799Z" fill="#D8E2F1"/>
<path d="M37.9997 61.7487V71.4672L30.5744 66.9112L3.20117 61.8707V47.8672L23.4277 50.7975L29.2501 51.6401C29.2622 51.6416 29.273 51.6432 29.2851 51.6462C34.2893 52.3882 37.9997 56.6853 37.9997 61.7487Z" fill="#E7ECF6"/>
<path d="M2.76389 64.8863L11.6094 66.1677L22.5394 67.7509L28.802 68.6576C30.6671 71.9428 34.1459 74 37.9995 74C41.8532 74 45.3319 71.9428 47.197 68.6576L73.2353 64.8863C74.9008 64.6455 76.0559 63.0989 75.8136 61.4334C75.5728 59.7679 74.0277 58.6129 72.3607 58.8537L44.7011 62.8612C43.633 63.0151 42.7278 63.7237 42.318 64.7203L42.1549 65.118C41.4601 66.8125 39.8296 67.905 37.9995 67.905C36.1695 67.905 34.539 66.8125 33.8441 65.1194L33.6811 64.7203C33.2711 63.7237 32.3661 63.0151 31.2979 62.8612L22.5392 61.5919L11.6094 60.0086L3.63849 58.8535C1.97296 58.6127 0.426444 59.7678 0.185619 61.4333C-0.0566852 63.0988 1.09836 64.6455 2.76389 64.8863Z" fill="#808080"/>
<path d="M73.2355 64.8863L47.1972 68.6576C45.3321 71.9428 41.8533 73.9999 37.9997 73.9999C34.146 73.9999 30.6673 71.9428 28.8022 68.6576L22.5395 67.7509L11.6094 66.1677L2.76389 64.8863C1.09836 64.6454 -0.0566852 63.0989 0.185619 61.4334C0.254215 60.964 0.424818 60.5344 0.67481 60.1655C1.13798 60.8528 1.88012 61.3496 2.76389 61.4776L11.6094 62.759L22.5394 64.3422L28.802 65.2489C30.6671 68.5341 34.1459 70.5913 37.9995 70.5913C41.8532 70.5913 45.3319 68.5341 47.197 65.2489L73.2353 61.4776C74.1206 61.3496 74.8612 60.8528 75.3244 60.1641C75.5727 60.5329 75.745 60.9625 75.8136 61.4334C76.056 63.0988 74.901 64.6454 73.2355 64.8863Z" fill="#595959"/>
<path d="M64.3899 56.5822V72.4283C64.3899 73.7372 62.8829 74.4702 61.8529 73.6626L59.8933 72.1251C59.3249 71.6801 58.525 71.6801 57.9567 72.1251L55.9971 73.6626C54.9686 74.4702 53.4601 73.7372 53.4601 72.4283V58.1655L64.3899 56.5822Z" fill="#DD636E"/>
<path d="M64.3899 56.5822V62.1547L53.4595 63.7386V58.1644L64.3899 56.5822Z" fill="#DA4A54"/>
</svg>
