<svg width="74" height="74" viewBox="0 0 74 74" fill="none" xmlns="http://www.w3.org/2000/svg">
<path d="M58.4885 46.635V65.8694H45.5295V47.951L58.4885 46.635Z" fill="#808080"/>
<path d="M54.6825 63.0064C53.1472 60.5873 53.1472 57.4989 54.6825 55.0796L32.7171 51.251H5.2511V65.8694H43.2491L54.6825 63.0064Z" fill="#E7ECF6"/>
<path d="M58.488 2.86259V52.2164L9.6888 53.3974L6.8966 53.4776L0 59.0426V9.6888C0 4.34649 4.34663 0 9.6888 0H55.6268C57.2075 0 58.488 1.28199 58.488 2.86259Z" fill="#808080"/>
<path d="M9.68948 0V53.3977L6.89772 53.478L0.000976562 59.0422V9.68851C0.000976562 4.3462 4.34718 0 9.68948 0V0Z" fill="#595959"/>
<path d="M55.6266 68.7314H9.68897C4.34681 68.7314 0.000610352 64.3852 0.000610352 59.043C0.000610352 53.7009 4.34681 49.3547 9.68897 49.3547H55.6266C57.2072 49.3547 58.4887 50.6361 58.4887 52.2167C58.4887 53.7973 57.2072 55.0787 55.6266 55.0787H9.68897C7.50308 55.0787 5.72463 56.8572 5.72463 59.043C5.72463 61.2291 7.50308 63.0074 9.68897 63.0074H55.6266C57.2072 63.0074 58.4887 64.2888 58.4887 65.8694C58.4887 67.45 57.2072 68.7314 55.6266 68.7314Z" fill="#595959"/>
<path d="M23.332 55.0794V72.1709C23.332 73.6936 21.5775 74.5468 20.3795 73.6064L18.1003 71.8186C17.44 71.3012 16.509 71.3012 15.8469 71.8186L13.5676 73.6064C12.3696 74.5468 10.617 73.6936 10.617 72.1709V55.0794H23.332Z" fill="#FFE07D"/>
<path d="M10.6168 55.0794H23.332V62.1233H10.6168V55.0794Z" fill="#FFD064"/>
<path d="M9.68906 5.9751V8.20854C4.66096 8.20854 0.511323 11.5766 0.000549316 15.8826V10.4375C2.17878 7.73506 5.71055 5.9751 9.68906 5.9751Z" fill="#FFE07D"/>
<path d="M9.68906 13.4153V15.6487C4.66096 15.6487 0.511323 19.0167 0.000549316 23.3228V17.8777C2.17878 15.1752 5.71055 13.4153 9.68906 13.4153Z" fill="#FFE07D"/>
<path d="M9.68906 31.1083V33.3417C4.66096 33.3417 0.511323 36.7097 0.000549316 41.0158V35.5705C2.17878 32.8681 5.71055 31.1083 9.68906 31.1083Z" fill="#FFE07D"/>
<path d="M9.68906 38.5485V40.7819C4.66096 40.7819 0.511323 44.1499 0.000549316 48.4574V43.0109C2.17878 40.3084 5.71055 38.5485 9.68906 38.5485Z" fill="#FFE07D"/>
<path d="M49.7012 27.4681C49.2753 27.4681 48.8684 27.2231 48.6824 26.8095L45.9372 20.7098L43.192 26.8095C42.9388 27.372 42.2774 27.6226 41.7155 27.3696C41.1531 27.1165 40.9023 26.4554 41.1555 25.8929L44.919 17.5306C45.0992 17.13 45.4978 16.8723 45.9372 16.8723C46.3766 16.8723 46.7752 17.13 46.9554 17.5306L50.7189 25.8929C50.9721 26.4553 50.7213 27.1165 50.159 27.3696C50.0102 27.4365 49.8544 27.4681 49.7012 27.4681Z" fill="#FFD064"/>
<path d="M40.0032 26.3512C40.0032 29.6284 42.6599 32.2852 45.9372 32.2852C49.2144 32.2852 51.8712 29.6284 51.8712 26.3512H40.0032Z" fill="#FFE07D"/>
<path d="M48.0157 31.9116C47.3681 32.1528 46.6682 32.2854 45.9372 32.2854C42.6601 32.2854 40.0023 29.6292 40.0023 26.3519H44.1595C44.1595 28.898 45.763 31.0689 48.0157 31.9116Z" fill="#FFD064"/>
<path d="M26.8781 27.4681C26.4522 27.4681 26.0453 27.2231 25.8593 26.8095L23.1141 20.7098L20.3689 26.8095C20.1156 27.372 19.4543 27.6226 18.8923 27.3696C18.33 27.1165 18.0792 26.4554 18.3324 25.8929L22.0959 17.5306C22.2761 17.13 22.6747 16.8723 23.1141 16.8723C23.5535 16.8723 23.9521 17.13 24.1323 17.5306L27.8958 25.8929C28.149 26.4553 27.8982 27.1165 27.3358 27.3696C27.1871 27.4365 27.0313 27.4681 26.8781 27.4681Z" fill="#FFD064"/>
<path d="M17.1799 26.3512C17.1799 29.6284 19.8367 32.2852 23.114 32.2852C26.3912 32.2852 29.048 29.6284 29.048 26.3512H17.1799Z" fill="#FFE07D"/>
<path d="M25.1926 31.9116C24.5449 32.1528 23.8451 32.2854 23.1141 32.2854C19.837 32.2854 17.1792 29.6292 17.1792 26.3519H21.3364C21.3362 28.898 22.9398 31.0689 25.1926 31.9116Z" fill="#FFD064"/>
<path d="M36.8868 37.1768H32.1642V8.08132C32.1642 6.77722 33.2215 5.71997 34.5256 5.71997C35.8297 5.71997 36.887 6.77722 36.887 8.08132V37.1768H36.8868Z" fill="#FFE07D"/>
<path d="M35.7062 6.03719C35.0005 6.44362 34.5256 7.20746 34.5256 8.08144V37.1767H32.1641V8.08159C32.1641 6.77734 33.2212 5.72009 34.5256 5.72009C34.9558 5.72009 35.3594 5.83471 35.7062 6.03719Z" fill="#FFD064"/>
<path d="M45.9372 11.7212H23.1137C21.3829 11.7212 19.9798 13.1243 19.9798 14.8551C19.9798 16.5858 21.3829 17.9889 23.1137 17.9889H28.2577C28.2577 21.4505 31.0638 24.2567 34.5254 24.2567C37.9871 24.2567 40.7932 21.4506 40.7932 17.9889H45.9372C47.6679 17.9889 49.071 16.5858 49.071 14.8551C49.071 13.1243 47.6679 11.7212 45.9372 11.7212Z" fill="#FFE07D"/>
<path d="M22.6256 14.8551C22.6256 15.7201 22.9769 16.5033 23.5428 17.0706C24.1101 17.6379 24.8933 17.9878 25.7583 17.9878H23.114C22.2489 17.9878 21.4657 17.6379 20.8984 17.0706C20.3312 16.5033 19.9798 15.7201 19.9798 14.8551C19.9798 13.1235 21.3839 11.7209 23.114 11.7209H25.7583C24.0283 11.7209 22.6256 13.1235 22.6256 14.8551Z" fill="#FFD064"/>
<path d="M35.8489 24.1162C35.4231 24.2086 34.9808 24.2561 34.5267 24.2561C31.0649 24.2561 28.2582 21.4495 28.2582 17.9877H30.9026C30.9026 20.9955 33.0229 23.5102 35.8489 24.1162Z" fill="#FFD064"/>
<path d="M34.5255 20.1753C35.7508 20.1753 36.7442 19.1819 36.7442 17.9566C36.7442 16.7312 35.7508 15.7379 34.5255 15.7379C33.3001 15.7379 32.3068 16.7312 32.3068 17.9566C32.3068 19.1819 33.3001 20.1753 34.5255 20.1753Z" fill="#FFD064"/>
<path d="M42.172 39.5268H26.8789C25.581 39.5268 24.5288 38.4746 24.5288 37.1767C24.5288 35.8788 25.581 34.8267 26.8789 34.8267H42.172C43.4699 34.8267 44.5221 35.8788 44.5221 37.1767C44.5221 38.4748 43.4699 39.5268 42.172 39.5268Z" fill="#FFE07D"/>
<path d="M32.1774 39.5279H26.8797C25.5814 39.5279 24.5286 38.4752 24.5286 37.1768C24.5286 36.5275 24.7921 35.941 25.218 35.5151C25.6424 35.0893 26.2305 34.8273 26.8797 34.8273H32.1774C31.5281 34.8273 30.94 35.0893 30.5157 35.5151C30.0899 35.9409 29.8263 36.5275 29.8263 37.1768C29.8264 38.4752 30.879 39.5279 32.1774 39.5279Z" fill="#FFD064"/>
<path d="M73.8939 39.6186V58.6426C73.8939 61.9346 72.941 65.1552 71.1498 67.9158V67.9172C70.0406 69.6264 69.4509 71.6186 69.4509 73.6555V74.001H46.0523V72.6625C46.0523 71.3001 45.5103 69.9928 44.547 69.0295L28.6839 53.1678C27.7221 52.2059 27.2411 50.9463 27.2411 49.6866C27.2411 48.4254 27.7219 47.1673 28.6839 46.2054C30.6077 44.2832 33.7224 44.2832 35.6447 46.2054L40.1026 50.6633V30.009C40.1026 28.7851 40.6 27.6788 41.401 26.8763C42.202 26.0737 43.3112 25.5779 44.5337 25.5779C46.98 25.5779 48.9633 27.5626 48.9633 30.009V26.2137C48.9633 23.757 50.9733 21.6858 53.4316 21.7052C54.6406 21.7156 55.732 22.2085 56.5272 23.0021C57.3282 23.8047 57.824 24.9124 57.824 26.1348V30.7118C57.824 28.2655 59.8073 26.2822 62.2536 26.2822C63.4775 26.2822 64.5854 26.778 65.3864 27.5791C66.1889 28.3817 66.6832 29.4879 66.6832 30.7118V39.6186C66.6832 38.6224 67.0868 37.7201 67.7403 37.068C68.3925 36.4159 69.2948 36.0124 70.2894 36.0124C72.2799 36.0124 73.8939 37.6263 73.8939 39.6186Z" fill="#FFDDCE"/>
<path d="M66.6839 50.0673V39.6164C66.6839 37.6244 68.2979 36.0104 70.2888 36.0104C70.5794 36.0104 70.8619 36.0458 71.1327 36.1107C69.5491 36.4907 68.3716 37.9152 68.3716 39.6164V48.3796C68.3716 49.3117 67.616 50.0673 66.6839 50.0673Z" fill="#FFCBBE"/>
<path d="M45.5875 25.7051C44.7883 25.9002 44.0733 26.3114 43.5102 26.8756C42.7088 27.677 42.2122 28.7844 42.2122 30.0083V51.6887H41.1292L40.1027 50.6623V30.0083C40.1027 28.7846 40.5993 27.6772 41.4008 26.8756C42.2022 26.073 43.3107 25.5776 44.5335 25.5776C44.897 25.5776 45.2495 25.6219 45.5875 25.7051Z" fill="#FFCBBE"/>
<path d="M48.9631 45.6794V26.134C48.9631 24.9103 49.4597 23.8029 50.2611 23.0013C51.0625 22.1987 52.1711 21.7032 53.3938 21.7032C53.7575 21.7032 54.11 21.7476 54.448 21.8307C53.6488 22.0258 52.9338 22.437 52.3707 23.0013C51.5693 23.8027 51.0727 24.9101 51.0727 26.134V43.5698C51.0725 44.7349 50.128 45.6794 48.9631 45.6794Z" fill="#FFCBBE"/>
<path d="M57.8234 45.818V30.7111C57.8234 29.4874 58.32 28.38 59.1214 27.5784C59.9228 26.7758 61.0314 26.2804 62.2541 26.2804C62.6178 26.2804 62.9703 26.3248 63.3083 26.4079C62.5091 26.603 61.7941 27.0142 61.231 27.5784C60.4296 28.3799 59.9329 29.4873 59.9329 30.7111V43.7085C59.9328 44.8735 58.9883 45.818 57.8234 45.818Z" fill="#FFCBBE"/>
<path d="M51.9486 70.236V74H46.0525V72.6615C46.0525 71.2992 45.5119 69.9933 44.5472 69.03L28.684 53.1669C27.7236 52.205 27.2427 50.9469 27.2427 49.6857C27.2427 48.4261 27.7236 47.1664 28.684 46.2045C29.1112 45.7787 29.5953 45.4482 30.1134 45.2098C29.8171 45.8591 29.6683 46.5587 29.6683 47.2586C29.6683 48.5197 30.1491 49.7793 31.111 50.7397L50.4433 66.6029C51.4066 67.5664 51.9486 68.8736 51.9486 70.236Z" fill="#FFCBBE"/>
</svg>
