<svg width="41" height="36" viewBox="0 0 41 36" fill="none" xmlns="http://www.w3.org/2000/svg">
<path d="M39.3962 8.8302H1.35849C0.608217 8.8302 0 9.43842 0 10.1887V34.6415C0 35.3918 0.608217 36 1.35849 36H39.3962C40.1465 36 40.7547 35.3918 40.7547 34.6415V10.1887C40.7547 9.43842 40.1465 8.8302 39.3962 8.8302Z" fill="#F06423"/>
<path d="M39.3962 8.8302H1.35849C0.608217 8.8302 0 9.43842 0 10.1887V33.283C0 34.0333 0.608217 34.6415 1.35849 34.6415H39.3962C40.1465 34.6415 40.7547 34.0333 40.7547 33.283V10.1887C40.7547 9.43842 40.1465 8.8302 39.3962 8.8302Z" fill="#FAA51E"/>
<path d="M2.71701 6.11316H17.6604C18.381 6.11316 19.0721 6.39941 19.5816 6.90894C20.0911 7.41848 20.3774 8.10955 20.3774 8.83014V33.283H2.71701C2.35672 33.283 2.01118 33.1398 1.75641 32.8851C1.50165 32.6303 1.35852 32.2848 1.35852 31.9245V7.47165C1.35852 7.11136 1.50165 6.76582 1.75641 6.51105C2.01118 6.25629 2.35672 6.11316 2.71701 6.11316Z" fill="#738CA0"/>
<path d="M38.0377 33.283H20.3774V8.83013C20.3774 8.10954 20.6636 7.41847 21.1732 6.90893C21.6827 6.3994 22.3738 6.11315 23.0944 6.11315H38.0377C38.398 6.11315 38.7436 6.25627 38.9983 6.51104C39.2531 6.76581 39.3962 7.11134 39.3962 7.47164V31.9245C39.3962 32.2848 39.2531 32.6303 38.9983 32.8851C38.7436 33.1398 38.398 33.283 38.0377 33.283Z" fill="#738CA0"/>
<path d="M20.3774 33.283C20.3774 32.5624 20.0911 31.8713 19.5816 31.3618C19.0721 30.8522 18.381 30.566 17.6604 30.566H2.71701C2.35672 30.566 2.01118 30.4229 1.75641 30.1681C1.50165 29.9133 1.35852 29.5678 1.35852 29.2075V7.47165C1.35852 7.11136 1.50165 6.76582 1.75641 6.51105C2.01118 6.25629 2.35672 6.11316 2.71701 6.11316H17.6604C18.381 6.11316 19.0721 6.39941 19.5816 6.90894C20.0911 7.41848 20.3774 8.10955 20.3774 8.83014V33.283Z" fill="#D7E6E6"/>
<path d="M20.3774 33.283C20.3774 32.5624 20.6636 31.8713 21.1732 31.3618C21.6827 30.8522 22.3738 30.566 23.0944 30.566H38.0378C38.3981 30.566 38.7436 30.4229 38.9984 30.1681C39.2531 29.9133 39.3962 29.5678 39.3962 29.2075V7.47165C39.3962 7.11136 39.2531 6.76582 38.9984 6.51105C38.7436 6.25629 38.3981 6.11316 38.0378 6.11316H23.0944C22.3738 6.11316 21.6827 6.39941 21.1732 6.90894C20.6636 7.41848 20.3774 8.10955 20.3774 8.83014V33.283Z" fill="#AAC3D7"/>
<path d="M10.8679 12.2264C14.2441 12.2264 16.9811 9.48944 16.9811 6.11321C16.9811 2.73698 14.2441 0 10.8679 0C7.49168 0 4.7547 2.73698 4.7547 6.11321C4.7547 9.48944 7.49168 12.2264 10.8679 12.2264Z" fill="#91BE41"/>
<path d="M9.73587 8.94336C9.60203 8.94353 9.46948 8.91726 9.34583 8.86604C9.22218 8.81482 9.10987 8.73967 9.01536 8.64491L7.65687 7.28642C7.56184 7.1919 7.48639 7.07956 7.43485 6.95583C7.38331 6.83211 7.35669 6.69943 7.35651 6.56539C7.35633 6.43136 7.3826 6.29861 7.43381 6.17475C7.48502 6.05088 7.56017 5.93834 7.65495 5.84357C7.74972 5.7488 7.86227 5.67365 7.98614 5.62245C8.11 5.57125 8.24276 5.54498 8.37679 5.54517C8.51082 5.54536 8.6435 5.57199 8.76722 5.62354C8.89095 5.67508 9.00329 5.75054 9.0978 5.84557L9.73587 6.48355L12.4116 3.80784C12.6028 3.61761 12.8617 3.51099 13.1314 3.51135C13.4012 3.51171 13.6598 3.61902 13.8505 3.80975C14.0413 4.00048 14.1486 4.25906 14.149 4.52881C14.1493 4.79855 14.0427 5.05743 13.8525 5.24869L10.4563 8.64491C10.3618 8.73966 10.2495 8.81481 10.1259 8.86602C10.0022 8.91724 9.86969 8.94352 9.73587 8.94336Z" fill="#D7E6E6"/>
<path d="M29.8868 12.2264C33.263 12.2264 36 9.48944 36 6.11321C36 2.73698 33.263 0 29.8868 0C26.5105 0 23.7736 2.73698 23.7736 6.11321C23.7736 9.48944 26.5105 12.2264 29.8868 12.2264Z" fill="#F05555"/>
<path d="M31.3277 6.11324L32.645 4.79593C32.8335 4.60433 32.9386 4.346 32.9375 4.07722C32.9364 3.80844 32.8292 3.55098 32.6391 3.36092C32.4491 3.17086 32.1916 3.0636 31.9228 3.06251C31.654 3.06141 31.3957 3.16657 31.2041 3.35508L29.8868 4.6723L28.5695 3.35508C28.3779 3.16657 28.1196 3.06141 27.8508 3.06251C27.582 3.0636 27.3246 3.17086 27.1345 3.36092C26.9444 3.55098 26.8372 3.80844 26.8361 4.07722C26.835 4.346 26.9401 4.60433 27.1287 4.79593L28.4459 6.11324L27.1287 7.43055C27.0328 7.52487 26.9565 7.63725 26.9043 7.76119C26.8521 7.88514 26.8249 8.01819 26.8243 8.15269C26.8238 8.28719 26.8499 8.42046 26.9011 8.54483C26.9523 8.66919 27.0277 8.78218 27.1228 8.87729C27.2179 8.97239 27.3309 9.04773 27.4552 9.09894C27.5796 9.15016 27.7129 9.17625 27.8474 9.1757C27.9819 9.17515 28.1149 9.14798 28.2389 9.09575C28.3628 9.04352 28.4752 8.96727 28.5695 8.8714L29.8868 7.55417L31.2041 8.8714C31.3957 9.0599 31.654 9.16506 31.9228 9.16396C32.1916 9.16287 32.4491 9.05561 32.6391 8.86555C32.8292 8.6755 32.9364 8.41804 32.9375 8.14925C32.9386 7.88047 32.8335 7.62215 32.645 7.43055L31.3277 6.11324Z" fill="#D7E6E6"/>
<path d="M16.6415 14.2642H8.49055C7.92784 14.2642 7.47168 14.7203 7.47168 15.283C7.47168 15.8457 7.92784 16.3019 8.49055 16.3019H16.6415C17.2042 16.3019 17.6604 15.8457 17.6604 15.283C17.6604 14.7203 17.2042 14.2642 16.6415 14.2642Z" fill="#AAC3D7"/>
<path d="M5.09437 16.3019C5.65707 16.3019 6.11324 15.8457 6.11324 15.283C6.11324 14.7203 5.65707 14.2642 5.09437 14.2642C4.53166 14.2642 4.0755 14.7203 4.0755 15.283C4.0755 15.8457 4.53166 16.3019 5.09437 16.3019Z" fill="#AAC3D7"/>
<path d="M16.6415 19.6981H8.49055C7.92784 19.6981 7.47168 20.1543 7.47168 20.717C7.47168 21.2797 7.92784 21.7359 8.49055 21.7359H16.6415C17.2042 21.7359 17.6604 21.2797 17.6604 20.717C17.6604 20.1543 17.2042 19.6981 16.6415 19.6981Z" fill="#AAC3D7"/>
<path d="M5.09437 21.7359C5.65707 21.7359 6.11324 21.2797 6.11324 20.717C6.11324 20.1543 5.65707 19.6981 5.09437 19.6981C4.53166 19.6981 4.0755 20.1543 4.0755 20.717C4.0755 21.2797 4.53166 21.7359 5.09437 21.7359Z" fill="#AAC3D7"/>
<path d="M16.6415 25.1321H8.49055C7.92784 25.1321 7.47168 25.5882 7.47168 26.1509C7.47168 26.7137 7.92784 27.1698 8.49055 27.1698H16.6415C17.2042 27.1698 17.6604 26.7137 17.6604 26.1509C17.6604 25.5882 17.2042 25.1321 16.6415 25.1321Z" fill="#AAC3D7"/>
<path d="M5.09437 27.1698C5.65707 27.1698 6.11324 26.7137 6.11324 26.1509C6.11324 25.5882 5.65707 25.1321 5.09437 25.1321C4.53166 25.1321 4.0755 25.5882 4.0755 26.1509C4.0755 26.7137 4.53166 27.1698 5.09437 27.1698Z" fill="#AAC3D7"/>
<path d="M35.6604 14.2642H27.5094C26.9467 14.2642 26.4905 14.7203 26.4905 15.283C26.4905 15.8457 26.9467 16.3019 27.5094 16.3019H35.6604C36.2231 16.3019 36.6792 15.8457 36.6792 15.283C36.6792 14.7203 36.2231 14.2642 35.6604 14.2642Z" fill="#738CA0"/>
<path d="M24.1132 16.3019C24.6759 16.3019 25.1321 15.8457 25.1321 15.283C25.1321 14.7203 24.6759 14.2642 24.1132 14.2642C23.5505 14.2642 23.0944 14.7203 23.0944 15.283C23.0944 15.8457 23.5505 16.3019 24.1132 16.3019Z" fill="#738CA0"/>
<path d="M35.6604 19.6981H27.5094C26.9467 19.6981 26.4905 20.1543 26.4905 20.717C26.4905 21.2797 26.9467 21.7359 27.5094 21.7359H35.6604C36.2231 21.7359 36.6792 21.2797 36.6792 20.717C36.6792 20.1543 36.2231 19.6981 35.6604 19.6981Z" fill="#738CA0"/>
<path d="M24.1132 21.7359C24.6759 21.7359 25.132 21.2797 25.132 20.717C25.132 20.1543 24.6759 19.6981 24.1132 19.6981C23.5505 19.6981 23.0943 20.1543 23.0943 20.717C23.0943 21.2797 23.5505 21.7359 24.1132 21.7359Z" fill="#738CA0"/>
<path d="M35.6604 25.1321H27.5094C26.9467 25.1321 26.4905 25.5882 26.4905 26.1509C26.4905 26.7137 26.9467 27.1698 27.5094 27.1698H35.6604C36.2231 27.1698 36.6792 26.7137 36.6792 26.1509C36.6792 25.5882 36.2231 25.1321 35.6604 25.1321Z" fill="#738CA0"/>
<path d="M24.1132 27.1698C24.6759 27.1698 25.132 26.7137 25.132 26.1509C25.132 25.5882 24.6759 25.1321 24.1132 25.1321C23.5505 25.1321 23.0943 25.5882 23.0943 26.1509C23.0943 26.7137 23.5505 27.1698 24.1132 27.1698Z" fill="#738CA0"/>
</svg>
